<?xml version="1.0" encoding="utf-8"?>
<!-- Generator: Adobe Illustrator 16.0.4, SVG Export Plug-In . SVG Version: 6.00 Build 0)  -->
<!DOCTYPE svg PUBLIC "-//W3C//DTD SVG 1.1//EN" "http://www.w3.org/Graphics/SVG/1.1/DTD/svg11.dtd">
<svg version="1.1" id="Layer_1" xmlns="http://www.w3.org/2000/svg" xmlns:xlink="http://www.w3.org/1999/xlink" x="0px" y="0px"
	 width="299.627px" height="275.63px" viewBox="0 0 299.627 275.63" enable-background="new 0 0 299.627 275.63"
	 xml:space="preserve">
<g>
	<path d="M39.442,23.12v9.438h-3.797V9.807h7.828c2.531,0,4.489,0.573,5.875,1.719c1.385,1.146,2.078,2.781,2.078,4.906
		c0,1.177-0.305,2.19-0.914,3.039C49.903,20.32,49.015,21,47.848,21.51c1.281,0.406,2.206,1.068,2.773,1.984
		c0.567,0.917,0.852,2.052,0.852,3.406v1.891c0,0.667,0.083,1.318,0.25,1.953c0.167,0.636,0.442,1.12,0.828,1.453v0.359h-3.906
		c-0.417-0.344-0.683-0.88-0.797-1.609c-0.115-0.729-0.172-1.458-0.172-2.188v-1.828c0-1.167-0.336-2.094-1.008-2.781
		s-1.586-1.031-2.742-1.031H39.442z M39.442,20.073h3.828c1.521,0,2.63-0.292,3.328-0.875c0.698-0.583,1.047-1.474,1.047-2.672
		c0-1.146-0.344-2.044-1.031-2.695c-0.688-0.651-1.734-0.977-3.141-0.977h-4.031V20.073z"/>
	<path d="M54.911,23.948c0-2.521,0.69-4.586,2.07-6.195c1.38-1.609,3.268-2.414,5.664-2.414c2.427,0,4.331,0.805,5.711,2.414
		c1.38,1.609,2.07,3.675,2.07,6.195v0.328c0,2.542-0.69,4.612-2.07,6.211c-1.38,1.599-3.273,2.398-5.68,2.398
		c-2.417,0-4.315-0.802-5.695-2.406c-1.38-1.604-2.07-3.672-2.07-6.203V23.948z M58.708,24.276c0,1.656,0.323,3,0.969,4.031
		c0.646,1.031,1.646,1.547,3,1.547c1.323,0,2.315-0.518,2.977-1.555c0.661-1.036,0.992-2.377,0.992-4.023v-0.328
		c0-1.614-0.331-2.945-0.992-3.992c-0.662-1.047-1.664-1.57-3.008-1.57c-1.323,0-2.31,0.523-2.961,1.57
		c-0.651,1.047-0.977,2.378-0.977,3.992V24.276z"/>
	<path d="M80.629,29.854c0.864,0,1.596-0.271,2.195-0.812c0.599-0.542,0.898-1.229,0.898-2.062h3.438l0.031,0.094
		c0.042,1.583-0.586,2.948-1.883,4.094c-1.297,1.146-2.857,1.719-4.68,1.719c-2.438,0-4.318-0.805-5.641-2.414
		c-1.323-1.609-1.984-3.638-1.984-6.086v-0.547c0-2.438,0.661-4.463,1.984-6.078c1.323-1.614,3.198-2.422,5.625-2.422
		c1.969,0,3.567,0.591,4.797,1.773c1.229,1.183,1.823,2.685,1.781,4.508l-0.031,0.094h-3.438c0-0.927-0.287-1.713-0.859-2.359
		c-0.573-0.646-1.323-0.969-2.25-0.969c-1.354,0-2.328,0.523-2.922,1.57s-0.891,2.341-0.891,3.883v0.547
		c0,1.573,0.294,2.878,0.883,3.914C78.272,29.336,79.254,29.854,80.629,29.854z"/>
	<path d="M95.583,25.167h-1.406v7.391h-3.781V8.182h3.781V22.12h1.297l4.578-6.469h4.453l-5.797,7.781l6.438,9.125h-4.422
		L95.583,25.167z"/>
	<path d="M112.739,25.776l0.375,1.688h0.094l3.703-11.812h4.156l-7,19.469c-0.448,1.177-1.078,2.182-1.891,3.016
		c-0.812,0.833-1.964,1.25-3.453,1.25c-0.312,0-0.648-0.031-1.008-0.094s-0.706-0.136-1.039-0.219l0.422-2.938
		c0.135,0.01,0.328,0.026,0.578,0.047c0.25,0.021,0.438,0.031,0.562,0.031c0.688,0,1.237-0.234,1.648-0.703
		c0.411-0.469,0.747-1.011,1.008-1.625l0.625-1.531l-6.141-16.703h4.141L112.739,25.776z"/>
	<path d="M143.223,27.307h0.094l6.578-17.5h4.844v22.75h-3.797V16.213l-0.094-0.016l-6.266,16.359h-2.609l-6.375-16.672
		l-0.094,0.031v16.641h-3.797V9.807h4.984L143.223,27.307z"/>
	<path d="M158.442,23.948c0-2.521,0.69-4.586,2.07-6.195c1.38-1.609,3.268-2.414,5.664-2.414c2.427,0,4.331,0.805,5.711,2.414
		c1.38,1.609,2.07,3.675,2.07,6.195v0.328c0,2.542-0.69,4.612-2.07,6.211c-1.38,1.599-3.273,2.398-5.68,2.398
		c-2.417,0-4.315-0.802-5.695-2.406c-1.38-1.604-2.07-3.672-2.07-6.203V23.948z M162.239,24.276c0,1.656,0.323,3,0.969,4.031
		c0.646,1.031,1.646,1.547,3,1.547c1.323,0,2.315-0.518,2.977-1.555c0.661-1.036,0.992-2.377,0.992-4.023v-0.328
		c0-1.614-0.331-2.945-0.992-3.992c-0.662-1.047-1.664-1.57-3.008-1.57c-1.323,0-2.31,0.523-2.961,1.57
		c-0.651,1.047-0.977,2.378-0.977,3.992V24.276z"/>
	<path d="M187.817,30.057c-0.521,0.906-1.19,1.604-2.008,2.094c-0.818,0.489-1.763,0.734-2.836,0.734
		c-1.812,0-3.229-0.596-4.25-1.789c-1.021-1.192-1.531-3.044-1.531-5.555v-9.891h3.781v9.922c0,1.615,0.234,2.722,0.703,3.32
		c0.469,0.599,1.198,0.898,2.188,0.898c0.917,0,1.685-0.164,2.305-0.492c0.62-0.328,1.106-0.805,1.461-1.43V15.651h3.797v16.906
		h-3.266L187.817,30.057z"/>
	<path d="M198.833,15.651l0.219,2.438c0.552-0.864,1.247-1.539,2.086-2.023c0.838-0.484,1.783-0.727,2.836-0.727
		c1.76,0,3.133,0.542,4.117,1.625c0.984,1.083,1.477,2.776,1.477,5.078v10.516h-3.797V22.073c0-1.312-0.256-2.245-0.766-2.797
		c-0.511-0.552-1.281-0.828-2.312-0.828c-0.812,0-1.516,0.154-2.109,0.461c-0.594,0.308-1.068,0.732-1.422,1.273v12.375h-3.797
		V15.651H198.833z"/>
	<path d="M218.379,11.542v4.109h3.031v2.812h-3.031v9.344c0,0.698,0.15,1.195,0.453,1.492c0.302,0.297,0.703,0.445,1.203,0.445
		c0.208,0,0.411-0.018,0.609-0.055c0.197-0.036,0.385-0.086,0.562-0.148l0.406,2.781c-0.323,0.177-0.706,0.315-1.148,0.414
		c-0.443,0.099-0.904,0.148-1.383,0.148c-1.396,0-2.492-0.409-3.289-1.227c-0.797-0.817-1.195-2.102-1.195-3.852v-9.344h-2.578
		v-2.812h2.578v-4.109H218.379z"/>
	<path d="M234.661,32.557c-0.136-0.427-0.248-0.844-0.336-1.25c-0.089-0.406-0.148-0.812-0.18-1.219
		c-0.511,0.792-1.193,1.456-2.047,1.992c-0.854,0.536-1.808,0.805-2.859,0.805c-1.761,0-3.112-0.453-4.055-1.359
		c-0.943-0.906-1.414-2.151-1.414-3.734c0-1.635,0.646-2.909,1.938-3.82c1.291-0.911,3.109-1.367,5.453-1.367h2.953V21.12
		c0-0.885-0.258-1.578-0.773-2.078s-1.264-0.75-2.242-0.75c-0.865,0-1.553,0.206-2.062,0.617c-0.511,0.412-0.766,0.945-0.766,1.602
		l-3.656,0.016l-0.016-0.094c-0.073-1.333,0.523-2.516,1.789-3.547s2.914-1.547,4.945-1.547c1.969,0,3.557,0.5,4.766,1.5
		c1.208,1,1.812,2.438,1.812,4.312v7.516c0,0.698,0.047,1.367,0.141,2.008s0.244,1.269,0.453,1.883H234.661z M230.02,29.838
		c0.947,0,1.805-0.239,2.57-0.719c0.766-0.479,1.273-1.026,1.523-1.641v-2.5h-3.016c-1.104,0-1.969,0.273-2.594,0.82
		s-0.938,1.19-0.938,1.93c0,0.646,0.211,1.159,0.633,1.539C228.622,29.648,229.228,29.838,230.02,29.838z"/>
	<path d="M245.926,11.51h-3.797V8.182h3.797V11.51z M245.926,32.557h-3.797V15.651h3.797V32.557z"/>
	<path d="M253.614,15.651l0.219,2.438c0.552-0.864,1.247-1.539,2.086-2.023c0.838-0.484,1.783-0.727,2.836-0.727
		c1.76,0,3.133,0.542,4.117,1.625c0.984,1.083,1.477,2.776,1.477,5.078v10.516h-3.797V22.073c0-1.312-0.256-2.245-0.766-2.797
		c-0.511-0.552-1.281-0.828-2.312-0.828c-0.812,0-1.516,0.154-2.109,0.461c-0.594,0.308-1.068,0.732-1.422,1.273v12.375h-3.797
		V15.651H253.614z"/>
	<path d="M61.817,61.52v9.438H58.02v-22.75h7.828c2.531,0,4.489,0.573,5.875,1.719c1.385,1.146,2.078,2.781,2.078,4.906
		c0,1.177-0.305,2.19-0.914,3.039c-0.609,0.849-1.498,1.529-2.664,2.039c1.281,0.406,2.206,1.068,2.773,1.984
		c0.567,0.917,0.852,2.052,0.852,3.406v1.891c0,0.667,0.083,1.318,0.25,1.953c0.167,0.636,0.442,1.12,0.828,1.453v0.359H71.02
		c-0.417-0.344-0.683-0.88-0.797-1.609c-0.115-0.729-0.172-1.458-0.172-2.188v-1.828c0-1.167-0.336-2.094-1.008-2.781
		s-1.586-1.031-2.742-1.031H61.817z M61.817,58.473h3.828c1.521,0,2.63-0.292,3.328-0.875c0.698-0.583,1.047-1.474,1.047-2.672
		c0-1.146-0.344-2.044-1.031-2.695c-0.688-0.651-1.734-0.977-3.141-0.977h-4.031V58.473z"/>
	<path d="M96.145,70.957h-3.797L82.27,54.566l-0.094,0.031v16.359h-3.797v-22.75h3.797l10.078,16.391l0.094-0.031V48.207h3.797
		V70.957z"/>
	<path d="M113.051,65.645h-8.062l-1.75,5.312h-3.922l7.938-22.75h3.609l7.844,22.75h-3.922L113.051,65.645z M106.036,62.473h5.984
		l-2.922-8.969h-0.094L106.036,62.473z"/>
	<path d="M141.004,65.707h0.094l6.578-17.5h4.844v22.75h-3.797V54.613l-0.094-0.016l-6.266,16.359h-2.609l-6.375-16.672
		l-0.094,0.031v16.641h-3.797v-22.75h4.984L141.004,65.707z"/>
	<path d="M164.098,71.285c-2.469,0-4.398-0.778-5.789-2.336c-1.391-1.557-2.086-3.575-2.086-6.055V62.27
		c0-2.479,0.695-4.523,2.086-6.133s3.185-2.409,5.383-2.398c2.271,0,3.989,0.701,5.156,2.102c1.167,1.401,1.75,3.273,1.75,5.617
		v2.047h-10.453l-0.031,0.078c0.042,1.386,0.406,2.511,1.094,3.375c0.688,0.865,1.724,1.297,3.109,1.297
		c1.031,0,1.924-0.125,2.68-0.375c0.755-0.25,1.456-0.609,2.102-1.078l1.234,2.484c-0.646,0.562-1.5,1.037-2.562,1.422
		S165.483,71.285,164.098,71.285z M163.692,56.785c-0.99,0-1.781,0.357-2.375,1.07c-0.594,0.714-0.964,1.644-1.109,2.789
		l0.031,0.078h6.609v-0.297c0-1.083-0.253-1.961-0.758-2.633C165.585,57.121,164.786,56.785,163.692,56.785z"/>
	<path d="M180.848,71.285c-2.469,0-4.398-0.778-5.789-2.336c-1.391-1.557-2.086-3.575-2.086-6.055V62.27
		c0-2.479,0.695-4.523,2.086-6.133s3.185-2.409,5.383-2.398c2.271,0,3.989,0.701,5.156,2.102c1.167,1.401,1.75,3.273,1.75,5.617
		v2.047h-10.453l-0.031,0.078c0.042,1.386,0.406,2.511,1.094,3.375c0.688,0.865,1.724,1.297,3.109,1.297
		c1.031,0,1.924-0.125,2.68-0.375c0.755-0.25,1.456-0.609,2.102-1.078l1.234,2.484c-0.646,0.562-1.5,1.037-2.562,1.422
		S182.233,71.285,180.848,71.285z M180.442,56.785c-0.99,0-1.781,0.357-2.375,1.07c-0.594,0.714-0.964,1.644-1.109,2.789
		l0.031,0.078h6.609v-0.297c0-1.083-0.253-1.961-0.758-2.633C182.335,57.121,181.536,56.785,180.442,56.785z"/>
	<path d="M195.286,49.941v4.109h3.031v2.812h-3.031v9.344c0,0.698,0.15,1.195,0.453,1.492c0.302,0.297,0.703,0.445,1.203,0.445
		c0.208,0,0.411-0.018,0.609-0.055c0.197-0.036,0.385-0.086,0.562-0.148l0.406,2.781c-0.323,0.177-0.706,0.315-1.148,0.414
		c-0.443,0.099-0.904,0.148-1.383,0.148c-1.396,0-2.492-0.409-3.289-1.227c-0.797-0.817-1.195-2.102-1.195-3.852v-9.344h-2.578
		v-2.812h2.578v-4.109H195.286z"/>
	<path d="M205.426,49.91h-3.797v-3.328h3.797V49.91z M205.426,70.957h-3.797V54.051h3.797V70.957z"/>
	<path d="M213.114,54.051l0.219,2.438c0.552-0.864,1.247-1.539,2.086-2.023c0.838-0.484,1.783-0.727,2.836-0.727
		c1.76,0,3.133,0.542,4.117,1.625c0.984,1.083,1.477,2.776,1.477,5.078v10.516h-3.797V60.473c0-1.312-0.256-2.245-0.766-2.797
		c-0.511-0.552-1.281-0.828-2.312-0.828c-0.812,0-1.516,0.154-2.109,0.461c-0.594,0.308-1.068,0.732-1.422,1.273v12.375h-3.797
		V54.051H213.114z"/>
	<path d="M227.208,62.738c0-2.698,0.578-4.872,1.734-6.523c1.156-1.651,2.781-2.477,4.875-2.477c1.01,0,1.898,0.216,2.664,0.648
		c0.766,0.433,1.414,1.055,1.945,1.867l0.375-2.203h3.156v16.906c0,2.177-0.672,3.859-2.016,5.047s-3.25,1.781-5.719,1.781
		c-0.823,0-1.711-0.117-2.664-0.352s-1.815-0.544-2.586-0.93l0.609-2.984c0.646,0.323,1.367,0.575,2.164,0.758
		c0.797,0.182,1.611,0.273,2.445,0.273c1.375,0,2.38-0.294,3.016-0.883c0.635-0.589,0.953-1.492,0.953-2.711v-1.734
		c-0.531,0.677-1.159,1.19-1.883,1.539c-0.725,0.349-1.555,0.523-2.492,0.523c-2.073,0-3.688-0.755-4.844-2.266
		c-1.156-1.51-1.734-3.495-1.734-5.953V62.738z M230.989,63.066c0,1.562,0.302,2.808,0.906,3.734
		c0.604,0.927,1.557,1.391,2.859,1.391c0.812,0,1.497-0.169,2.055-0.508c0.557-0.338,1.008-0.825,1.352-1.461v-7.406
		c-0.354-0.614-0.811-1.096-1.367-1.445c-0.558-0.349-1.227-0.523-2.008-0.523c-1.303,0-2.261,0.544-2.875,1.633
		c-0.615,1.089-0.922,2.508-0.922,4.258V63.066z"/>
</g>
<g>
	<path d="M26.59,218.131c0,2.938-0.805,5.312-2.414,7.125s-3.769,2.719-6.477,2.719c-2.667,0-4.794-0.906-6.383-2.719
		c-1.589-1.812-2.383-4.188-2.383-7.125v-3.703c0-2.927,0.792-5.302,2.375-7.125c1.583-1.823,3.708-2.734,6.375-2.734
		c2.708,0,4.87,0.911,6.484,2.734c1.614,1.823,2.422,4.198,2.422,7.125V218.131z M24.731,214.396c0-2.458-0.623-4.438-1.867-5.938
		c-1.245-1.5-2.972-2.25-5.18-2.25c-2.167,0-3.854,0.75-5.062,2.25c-1.208,1.5-1.812,3.479-1.812,5.938v3.734
		c0,2.479,0.606,4.469,1.82,5.969c1.213,1.5,2.903,2.25,5.07,2.25c2.219,0,3.945-0.747,5.18-2.242s1.852-3.487,1.852-5.977V214.396z
		"/>
	<path d="M37.184,226.396c1.198,0,2.258-0.354,3.18-1.062s1.383-1.692,1.383-2.953h1.672l0.031,0.094
		c0.042,1.562-0.573,2.87-1.844,3.922c-1.271,1.052-2.745,1.578-4.422,1.578c-2.25,0-4.003-0.792-5.258-2.375
		c-1.255-1.583-1.883-3.609-1.883-6.078v-0.656c0-2.458,0.625-4.479,1.875-6.062s3-2.375,5.25-2.375
		c1.812,0,3.323,0.547,4.531,1.641c1.208,1.094,1.792,2.531,1.75,4.312l-0.031,0.094h-1.672c0-1.354-0.443-2.435-1.328-3.242
		c-0.886-0.808-1.969-1.211-3.25-1.211c-1.771,0-3.089,0.651-3.953,1.953c-0.865,1.302-1.297,2.933-1.297,4.891v0.656
		c0,1.989,0.432,3.633,1.297,4.93C34.08,225.748,35.403,226.396,37.184,226.396z"/>
	<path d="M50.387,206.412v4.328h3.719v1.531h-3.719v11.016c0,1.104,0.2,1.888,0.602,2.352c0.401,0.464,0.935,0.695,1.602,0.695
		c0.229,0,0.45-0.013,0.664-0.039c0.213-0.026,0.466-0.07,0.758-0.133l0.281,1.391c-0.25,0.125-0.56,0.227-0.93,0.305
		c-0.37,0.078-0.737,0.117-1.102,0.117c-1.188,0-2.112-0.375-2.773-1.125c-0.662-0.75-0.992-1.938-0.992-3.562v-11.016h-2.922
		v-1.531h2.922v-4.328H50.387z"/>
	<path d="M56.715,218.943c0-2.489,0.682-4.531,2.047-6.125c1.364-1.594,3.172-2.391,5.422-2.391c2.26,0,4.073,0.797,5.438,2.391
		c1.364,1.594,2.047,3.636,2.047,6.125v0.516c0,2.5-0.68,4.544-2.039,6.133s-3.164,2.383-5.414,2.383
		c-2.271,0-4.089-0.794-5.453-2.383c-1.365-1.589-2.047-3.633-2.047-6.133V218.943z M58.59,219.459c0,1.958,0.495,3.604,1.484,4.938
		c0.989,1.333,2.37,2,4.141,2c1.739,0,3.106-0.667,4.102-2c0.995-1.333,1.492-2.979,1.492-4.938v-0.516c0-1.927-0.5-3.562-1.5-4.906
		s-2.375-2.016-4.125-2.016s-3.12,0.672-4.109,2.016c-0.99,1.344-1.484,2.979-1.484,4.906V219.459z"/>
	<path d="M89.2,219.662c0,2.531-0.573,4.55-1.719,6.055c-1.146,1.505-2.724,2.258-4.734,2.258c-1.229,0-2.294-0.247-3.195-0.742
		c-0.901-0.495-1.633-1.2-2.195-2.117l-0.312,2.531h-1.469v-24.375h1.875v10.062c0.562-0.927,1.281-1.644,2.156-2.148
		s1.911-0.758,3.109-0.758c2.031,0,3.62,0.81,4.766,2.43c1.146,1.62,1.719,3.778,1.719,6.477V219.662z M87.309,219.334
		c0-2.156-0.417-3.909-1.25-5.258c-0.833-1.349-2.068-2.023-3.703-2.023c-1.292,0-2.333,0.315-3.125,0.945
		c-0.792,0.63-1.386,1.445-1.781,2.445v7.734c0.417,0.979,1.034,1.753,1.852,2.32c0.817,0.567,1.846,0.852,3.086,0.852
		c1.635,0,2.864-0.604,3.688-1.812c0.823-1.208,1.234-2.833,1.234-4.875V219.334z"/>
	<path d="M99.809,227.975c-2.188,0-3.964-0.773-5.328-2.32c-1.365-1.547-2.047-3.534-2.047-5.961v-0.859
		c0-2.438,0.69-4.448,2.07-6.031c1.38-1.583,3.091-2.375,5.133-2.375c2.052,0,3.638,0.659,4.758,1.977
		c1.12,1.317,1.68,3.091,1.68,5.32v1.453H94.309v0.516c0,1.927,0.487,3.526,1.461,4.797c0.974,1.271,2.32,1.906,4.039,1.906
		c1.031,0,1.979-0.169,2.844-0.508c0.864-0.339,1.583-0.794,2.156-1.367l0.797,1.281c-0.594,0.625-1.373,1.144-2.336,1.555
		C102.306,227.769,101.153,227.975,99.809,227.975z M99.637,212.021c-1.438,0-2.62,0.516-3.547,1.547
		c-0.927,1.031-1.469,2.339-1.625,3.922l0.047,0.094h9.688v-0.391c0-1.5-0.394-2.737-1.18-3.711
		C102.233,212.509,101.106,212.021,99.637,212.021z"/>
	<path d="M117.575,212.35l-1.328-0.094c-1.177,0-2.144,0.331-2.898,0.992c-0.755,0.661-1.294,1.57-1.617,2.727v11.672h-1.875V210.74
		h1.641l0.234,2.812v0.188c0.489-1.042,1.146-1.854,1.969-2.438c0.823-0.583,1.802-0.875,2.938-0.875
		c0.229,0,0.448,0.019,0.656,0.055c0.208,0.036,0.38,0.075,0.516,0.117L117.575,212.35z"/>
	<path d="M136.387,227.646h-1.875v-21.141l-5.391,0.656v-1.5l7.266-1.094V227.646z"/>
	<path d="M159.762,219.615c0,2.594-0.628,4.636-1.883,6.125c-1.255,1.489-2.977,2.234-5.164,2.234s-3.917-0.747-5.188-2.242
		c-1.271-1.495-1.906-3.534-1.906-6.117v-6.688c0-2.573,0.63-4.609,1.891-6.109c1.26-1.5,2.984-2.25,5.172-2.25
		s3.914,0.75,5.18,2.25s1.898,3.536,1.898,6.109V219.615z M157.887,212.631c0-1.989-0.451-3.565-1.352-4.727
		c-0.901-1.161-2.185-1.742-3.852-1.742c-1.667,0-2.951,0.583-3.852,1.75c-0.901,1.167-1.352,2.739-1.352,4.719v7.266
		c0,1.969,0.456,3.544,1.367,4.727c0.911,1.183,2.2,1.773,3.867,1.773c1.656,0,2.932-0.589,3.828-1.766
		c0.896-1.177,1.344-2.755,1.344-4.734V212.631z"/>
	<path d="M172.809,218.74h-9.219v-1.578h9.219V218.74z"/>
	<path d="M185.293,227.646h-1.875v-21.141l-5.391,0.656v-1.5l7.266-1.094V227.646z"/>
	<path d="M208.965,227.646h-13.844v-1.438l7.484-8.734c1.333-1.573,2.255-2.862,2.766-3.867c0.51-1.005,0.766-1.997,0.766-2.977
		c0-1.386-0.373-2.477-1.117-3.273c-0.745-0.797-1.847-1.195-3.305-1.195c-1.625,0-2.875,0.481-3.75,1.445s-1.312,2.195-1.312,3.695
		h-1.75l-0.031-0.094c-0.052-1.854,0.547-3.425,1.797-4.711s2.932-1.93,5.047-1.93c1.947,0,3.484,0.547,4.609,1.641
		s1.688,2.573,1.688,4.438c0,1.229-0.37,2.458-1.109,3.688c-0.74,1.229-1.828,2.719-3.266,4.469l-6.156,7.188l0.031,0.078h11.453
		V227.646z"/>
	<path d="M235.825,227.646h-15.812v-3.438l7-7.688c0.938-1.062,1.625-2.011,2.062-2.844s0.656-1.558,0.656-2.172
		c0-0.886-0.198-1.586-0.594-2.102c-0.396-0.516-1.031-0.773-1.906-0.773c-0.823,0-1.461,0.336-1.914,1.008s-0.68,1.528-0.68,2.57
		h-5.172l-0.031-0.094c-0.053-2.104,0.641-3.888,2.078-5.352s3.344-2.195,5.719-2.195c2.489,0,4.411,0.612,5.766,1.836
		c1.354,1.224,2.031,2.909,2.031,5.055c0,1.438-0.375,2.711-1.125,3.82s-2.125,2.747-4.125,4.914l-2.766,3.312l0.031,0.078h8.781
		V227.646z"/>
	<path d="M254.153,219.287c0,2.719-0.725,4.847-2.172,6.383c-1.448,1.536-3.359,2.305-5.734,2.305c-2.396,0-4.318-0.769-5.766-2.305
		c-1.448-1.536-2.172-3.664-2.172-6.383v-6.031c0-2.719,0.719-4.847,2.156-6.383s3.354-2.305,5.75-2.305
		c2.375,0,4.291,0.771,5.75,2.312c1.458,1.542,2.188,3.667,2.188,6.375V219.287z M248.887,212.896c0-1.386-0.237-2.442-0.711-3.172
		c-0.475-0.729-1.128-1.094-1.961-1.094c-0.844,0-1.495,0.364-1.953,1.094c-0.459,0.729-0.688,1.786-0.688,3.172v6.719
		c0,1.417,0.231,2.487,0.695,3.211c0.463,0.724,1.122,1.086,1.977,1.086c0.833,0,1.481-0.362,1.945-1.086
		c0.463-0.724,0.695-1.794,0.695-3.211V212.896z"/>
	<path d="M268.606,227.646h-5.281v-18.234h-4.578v-4.031l9.859-0.812V227.646z"/>
	<path d="M282.59,223.912c0.958,0,1.744-0.378,2.359-1.133c0.614-0.755,0.922-1.8,0.922-3.133v-1.312
		c-0.511,0.625-1.104,1.097-1.781,1.414c-0.678,0.317-1.401,0.477-2.172,0.477c-2.062,0-3.686-0.695-4.867-2.086
		c-1.183-1.391-1.773-3.258-1.773-5.602c0-2.25,0.739-4.141,2.219-5.672c1.479-1.531,3.391-2.297,5.734-2.297
		c2.302,0,4.195,0.8,5.68,2.398s2.227,3.8,2.227,6.602v5.719c0,2.625-0.811,4.729-2.43,6.312c-1.62,1.583-3.659,2.375-6.117,2.375
		c-0.771,0-1.576-0.086-2.414-0.258c-0.839-0.172-1.639-0.414-2.398-0.727l0.906-3.766c0.666,0.239,1.297,0.414,1.891,0.523
		S281.84,223.912,282.59,223.912z M283.075,216.428c0.604,0,1.143-0.114,1.617-0.344c0.474-0.229,0.867-0.542,1.18-0.938V212.6
		c0-1.292-0.248-2.276-0.742-2.953c-0.495-0.677-1.133-1.016-1.914-1.016c-0.823,0-1.475,0.391-1.953,1.172
		c-0.479,0.781-0.719,1.692-0.719,2.734c0,1.167,0.216,2.106,0.648,2.82C281.624,216.071,282.251,216.428,283.075,216.428z"/>
	<path d="M78.442,266.046v-22.75h6.938c2.781,0,5.081,0.928,6.898,2.781c1.817,1.855,2.727,4.234,2.727,7.141v2.922
		c0,2.906-0.909,5.285-2.727,7.133c-1.818,1.85-4.117,2.773-6.898,2.773H78.442z M80.317,244.89v19.578h5.062
		c2.25,0,4.104-0.785,5.562-2.359c1.458-1.572,2.188-3.562,2.188-5.969v-2.969c0-2.375-0.732-4.348-2.195-5.922
		c-1.464-1.572-3.315-2.359-5.555-2.359H80.317z"/>
	<path d="M105.958,266.374c-2.188,0-3.964-0.773-5.328-2.32c-1.365-1.547-2.047-3.533-2.047-5.961v-0.859
		c0-2.438,0.69-4.447,2.07-6.031c1.38-1.582,3.091-2.375,5.133-2.375c2.052,0,3.638,0.66,4.758,1.977
		c1.12,1.318,1.68,3.092,1.68,5.32v1.453h-11.766v0.516c0,1.928,0.487,3.527,1.461,4.797c0.974,1.271,2.32,1.906,4.039,1.906
		c1.031,0,1.979-0.168,2.844-0.508c0.864-0.338,1.583-0.793,2.156-1.367l0.797,1.281c-0.594,0.625-1.373,1.145-2.336,1.555
		C108.455,266.169,107.301,266.374,105.958,266.374z M105.786,250.421c-1.438,0-2.62,0.516-3.547,1.547
		c-0.927,1.031-1.469,2.34-1.625,3.922l0.047,0.094h9.688v-0.391c0-1.5-0.394-2.736-1.18-3.711
		C108.382,250.909,107.254,250.421,105.786,250.421z"/>
	<path d="M117.661,249.14l0.172,2.938c0.552-1.031,1.286-1.83,2.203-2.398c0.917-0.566,2.005-0.852,3.266-0.852
		c1.833,0,3.229,0.561,4.188,1.68c0.958,1.121,1.438,2.867,1.438,5.242v10.297h-1.875v-10.281c0-1.938-0.362-3.307-1.086-4.109
		c-0.724-0.801-1.753-1.203-3.086-1.203c-1.333,0-2.409,0.328-3.227,0.984c-0.818,0.656-1.409,1.537-1.773,2.641v11.969h-1.875
		V249.14H117.661z"/>
	<path d="M138.629,261.812l0.547,1.984h0.094l0.594-1.984l4.594-12.672h1.938l-6.422,16.906h-1.5l-6.438-16.906h1.938
		L138.629,261.812z"/>
	<path d="M155.692,266.374c-2.188,0-3.964-0.773-5.328-2.32c-1.365-1.547-2.047-3.533-2.047-5.961v-0.859
		c0-2.438,0.69-4.447,2.07-6.031c1.38-1.582,3.091-2.375,5.133-2.375c2.052,0,3.638,0.66,4.758,1.977
		c1.12,1.318,1.68,3.092,1.68,5.32v1.453h-11.766v0.516c0,1.928,0.487,3.527,1.461,4.797c0.974,1.271,2.32,1.906,4.039,1.906
		c1.031,0,1.979-0.168,2.844-0.508c0.864-0.338,1.583-0.793,2.156-1.367l0.797,1.281c-0.594,0.625-1.373,1.145-2.336,1.555
		C158.189,266.169,157.036,266.374,155.692,266.374z M155.52,250.421c-1.438,0-2.62,0.516-3.547,1.547
		c-0.927,1.031-1.469,2.34-1.625,3.922l0.047,0.094h9.688v-0.391c0-1.5-0.394-2.736-1.18-3.711
		C158.116,250.909,156.989,250.421,155.52,250.421z"/>
	<path d="M173.458,250.749l-1.328-0.094c-1.177,0-2.144,0.332-2.898,0.992c-0.755,0.662-1.294,1.57-1.617,2.727v11.672h-1.875
		V249.14h1.641l0.234,2.812v0.188c0.489-1.041,1.146-1.854,1.969-2.438c0.823-0.582,1.802-0.875,2.938-0.875
		c0.229,0,0.448,0.02,0.656,0.055c0.208,0.037,0.38,0.076,0.516,0.117L173.458,250.749z"/>
	<path d="M200.551,258.937l0.031,0.094c0.041,2.23-0.688,4.012-2.188,5.344c-1.5,1.334-3.469,2-5.906,2
		c-2.531,0-4.573-0.914-6.125-2.742c-1.552-1.828-2.328-4.195-2.328-7.102v-3.703c0-2.895,0.776-5.262,2.328-7.102
		c1.552-1.838,3.594-2.758,6.125-2.758c2.469,0,4.445,0.652,5.93,1.953c1.484,1.303,2.205,3.094,2.164,5.375l-0.031,0.094h-1.75
		c0-1.832-0.561-3.262-1.68-4.289c-1.12-1.025-2.664-1.539-4.633-1.539c-1.99,0-3.586,0.771-4.789,2.312
		c-1.203,1.543-1.805,3.516-1.805,5.922v3.734c0,2.438,0.602,4.426,1.805,5.961c1.203,1.537,2.799,2.305,4.789,2.305
		c1.969,0,3.513-0.5,4.633-1.5c1.119-1,1.68-2.453,1.68-4.359H200.551z"/>
	<path d="M222.083,256.53c0,2.938-0.805,5.312-2.414,7.125s-3.769,2.719-6.477,2.719c-2.667,0-4.795-0.906-6.383-2.719
		c-1.589-1.812-2.383-4.188-2.383-7.125v-3.703c0-2.926,0.791-5.301,2.375-7.125c1.583-1.822,3.708-2.734,6.375-2.734
		c2.708,0,4.869,0.912,6.484,2.734c1.614,1.824,2.422,4.199,2.422,7.125V256.53z M220.223,252.796c0-2.457-0.623-4.438-1.867-5.938
		c-1.245-1.5-2.972-2.25-5.18-2.25c-2.167,0-3.854,0.75-5.062,2.25c-1.209,1.5-1.812,3.48-1.812,5.938v3.734
		c0,2.48,0.606,4.469,1.82,5.969c1.213,1.5,2.903,2.25,5.07,2.25c2.219,0,3.945-0.746,5.18-2.242
		c1.234-1.494,1.852-3.486,1.852-5.977V252.796z"/>
</g>
<g>
	<polygon fill="none" stroke="#010101" stroke-width="3.9" stroke-miterlimit="10" points="199.173,108.596 248.186,80.3 
		297.199,108.596 297.199,165.19 248.186,193.489 199.173,165.19 	"/>
	<polygon fill="none" stroke="#010101" stroke-width="3.9" stroke-miterlimit="10" points="2.356,108.596 51.37,80.3 
		100.38,108.596 100.38,165.19 51.37,193.489 2.356,165.19 	"/>
	<path fill="none" stroke="#010101" stroke-width="3" stroke-miterlimit="10" d="M15.453,143.089l3.001,3.102l12.5,0.059
		c0.845-1.27,2.29-2.102,3.931-2.102c1.691,0,3.178,0.891,4.012,2.229l12.628,0.1c0.896-2.887,3.2-5.152,6.107-5.998l0.01-12.436
		c-0.644-0.646-1.046-1.54-1.046-2.527c0-1.971,1.598-3.569,3.568-3.569l0.26,0.013l10.656-10.919
		c-0.013-0.131-0.019-0.265-0.019-0.4c0-2.167,1.756-3.923,3.923-3.923c2.167,0,3.922,1.755,3.922,3.923
		c0,2.166-1.756,3.923-3.922,3.923c-0.039,0,0,0,0,0l-11.255,10.733c0.005,0.072,0.006,0.147,0.006,0.221
		c0,0.96-0.379,1.831-0.994,2.475L62.7,140.476c3.764,1.094,6.515,4.57,6.515,8.689c0,1.545-0.386,2.998-1.069,4.271l0.144,0.162
		l5.815,6.061c1.715,0.156,3.059,1.6,3.059,3.354c0,1.859-1.507,3.367-3.365,3.367c-1.806,0-3.276-1.422-3.363-3.203l-6.087-5.988
		c-1.25,0.654-2.672,1.023-4.182,1.023c-4.2,0-7.733-2.865-8.751-6.746l-12.608,0.051c-0.85,1.256-2.288,2.08-3.918,2.08
		c-1.64,0-3.083-0.83-3.93-2.098l-17.531,0.055"/>
	<polygon fill="none" stroke="#010101" stroke-width="3.9" stroke-miterlimit="10" points="100.766,108.596 149.778,80.3 
		198.792,108.596 198.792,165.19 149.776,193.489 100.764,165.19 	"/>
	<rect x="206.183" y="143.194" fill="#010101" stroke="#010101" stroke-miterlimit="10" width="1.66" height="7.961"/>
	<rect x="235.706" y="143.823" fill="#010101" stroke="#010101" stroke-miterlimit="10" width="1.354" height="7.332"/>
	<rect x="233.575" y="140.292" fill="#010101" stroke="#010101" stroke-miterlimit="10" width="1.66" height="10.863"/>
	<rect x="231.596" y="137.276" fill="#010101" stroke="#010101" stroke-miterlimit="10" width="1.659" height="13.879"/>
	<rect x="229.616" y="139.245" fill="#010101" stroke="#010101" stroke-miterlimit="10" width="1.66" height="11.91"/>
	<rect x="227.635" y="136.491" fill="#010101" stroke="#010101" stroke-miterlimit="10" width="1.66" height="14.664"/>
	<rect x="225.657" y="138.204" fill="#010101" stroke="#010101" stroke-miterlimit="10" width="1.662" height="12.951"/>
	<rect x="223.678" y="140.794" fill="#010101" stroke="#010101" stroke-miterlimit="10" width="1.658" height="10.361"/>
	<rect x="221.7" y="137.04" fill="#010101" stroke="#010101" stroke-miterlimit="10" width="1.658" height="14.115"/>
	<rect x="219.718" y="139.245" fill="#010101" stroke="#010101" stroke-miterlimit="10" width="1.659" height="11.91"/>
	<rect x="217.74" y="143.194" fill="#010101" stroke="#010101" stroke-miterlimit="10" width="1.659" height="7.961"/>
	<rect x="215.762" y="140.401" fill="#010101" stroke="#010101" stroke-miterlimit="10" width="1.658" height="10.754"/>
	<rect x="213.781" y="138.872" fill="#010101" stroke="#010101" stroke-miterlimit="10" width="1.66" height="12.283"/>
	<rect x="211.8" y="141.606" fill="#010101" stroke="#010101" stroke-miterlimit="10" width="1.662" height="9.549"/>
	<rect x="209.822" y="141.202" fill="#010101" stroke="#010101" stroke-miterlimit="10" width="1.66" height="9.953"/>
	<rect x="207.843" y="139.245" fill="#010101" stroke="#010101" stroke-miterlimit="10" width="1.66" height="11.91"/>
	<rect x="267.072" y="143.194" fill="#010101" stroke="#010101" stroke-miterlimit="10" width="1.66" height="7.961"/>
	<rect x="249.2" y="138.204" fill="#010101" stroke="#010101" stroke-miterlimit="10" width="1.353" height="12.559"/>
	<rect x="247.222" y="139.899" fill="#010101" stroke="#010101" stroke-miterlimit="10" width="1.66" height="10.863"/>
	<rect x="245.4" y="136.884" fill="#010101" stroke="#010101" stroke-miterlimit="10" width="1.66" height="13.879"/>
	<rect x="243.576" y="140.794" fill="#010101" stroke="#010101" stroke-miterlimit="10" width="1.66" height="9.969"/>
	<rect x="288.846" y="143.823" fill="#010101" stroke="#010101" stroke-miterlimit="10" width="1.66" height="7.332"/>
	<rect x="286.866" y="138.204" fill="#010101" stroke="#010101" stroke-miterlimit="10" width="1.66" height="12.951"/>
	<rect x="284.886" y="140.292" fill="#010101" stroke="#010101" stroke-miterlimit="10" width="1.661" height="10.863"/>
	<rect x="282.906" y="141.606" fill="#010101" stroke="#010101" stroke-miterlimit="10" width="1.66" height="9.549"/>
	<rect x="280.927" y="139.245" fill="#010101" stroke="#010101" stroke-miterlimit="10" width="1.661" height="11.91"/>
	<rect x="278.947" y="143.194" fill="#010101" stroke="#010101" stroke-miterlimit="10" width="1.662" height="7.961"/>
	<rect x="276.968" y="140.401" fill="#010101" stroke="#010101" stroke-miterlimit="10" width="1.658" height="10.754"/>
	<rect x="274.99" y="141.606" fill="#010101" stroke="#010101" stroke-miterlimit="10" width="1.661" height="9.549"/>
	<rect x="273.007" y="138.872" fill="#010101" stroke="#010101" stroke-miterlimit="10" width="1.662" height="12.283"/>
	<rect x="271.033" y="137.04" fill="#010101" stroke="#010101" stroke-miterlimit="10" width="1.66" height="14.115"/>
	<rect x="269.05" y="139.245" fill="#010101" stroke="#010101" stroke-miterlimit="10" width="1.662" height="11.91"/>
	<rect x="251.022" y="143.431" fill="#010101" stroke="#010101" stroke-miterlimit="10" width="1.353" height="7.332"/>
	<rect x="205.865" y="150.659" fill="#010101" width="84.642" height="0.99"/>
	<g>
		<rect x="217.584" y="121.894" fill="#010101" stroke="#010101" stroke-miterlimit="10" width="19.476" height="4.491"/>
		<rect x="243.576" y="121.894" fill="#010101" stroke="#010101" stroke-miterlimit="10" width="9.286" height="4.491"/>
		<rect x="267.072" y="121.894" fill="#010101" stroke="#010101" stroke-miterlimit="10" width="17.875" height="4.491"/>
		<rect x="237.06" y="123.646" fill="#010101" width="6.516" height="0.988"/>
		<rect x="252.865" y="123.646" fill="#010101" width="14.207" height="0.988"/>
		<rect x="205.865" y="123.311" fill="#010101" stroke="#010101" stroke-miterlimit="10" width="11.556" height="1.66"/>
		<rect x="284.947" y="123.31" fill="#010101" stroke="#010101" stroke-miterlimit="10" width="5.555" height="1.661"/>
	</g>
	<g>
		<path fill="none" stroke="#010101" stroke-width="3" stroke-miterlimit="10" d="M136.634,146.298"/>
		<polyline fill="none" stroke="#010101" stroke-width="3" stroke-miterlimit="10" points="136.634,146.298 164.745,108.324 
			192.857,146.298 		"/>
		<polyline fill="none" stroke="#010101" stroke-width="3" stroke-miterlimit="10" points="106.487,153.479 131.097,125.509 
			142.033,137.938 		"/>
		<polyline fill="none" stroke="#010101" stroke-width="3" stroke-miterlimit="10" points="141.856,163.122 166.466,135.15 
			177.401,147.579 		"/>
		<polyline fill="none" stroke="#010101" stroke-width="3" stroke-linecap="square" stroke-miterlimit="10" points="
			164.603,121.475 159.54,127.594 156.773,120.149 		"/>
		<path fill="none" stroke="#010101" stroke-width="3" stroke-miterlimit="10" d="M161.007,135.069"/>
		<path fill="none" stroke="#010101" stroke-width="3" stroke-miterlimit="10" d="M138.732,131.298"/>
		<polyline fill="none" stroke="#010101" stroke-width="3" stroke-linecap="square" stroke-miterlimit="10" points="
			172.308,119.178 170.588,126.932 164.734,121.566 		"/>
		<polyline fill="none" stroke="#010101" stroke-width="3" stroke-linecap="square" stroke-miterlimit="10" points="
			130.547,136.331 125.581,142.333 122.868,135.031 		"/>
		<polyline fill="none" stroke="#010101" stroke-width="3" stroke-linecap="square" stroke-miterlimit="10" points="
			138.104,134.078 136.418,141.683 130.675,136.421 		"/>
	</g>
</g>
<g>
</g>
<g>
</g>
<g>
</g>
<g>
</g>
<g>
</g>
<g>
</g>
</svg>
