<?xml version="1.0" encoding="utf-8"?>
<!-- Generator: Adobe Illustrator 16.0.4, SVG Export Plug-In . SVG Version: 6.00 Build 0)  -->
<!DOCTYPE svg PUBLIC "-//W3C//DTD SVG 1.1//EN" "http://www.w3.org/Graphics/SVG/1.1/DTD/svg11.dtd">
<svg version="1.1" id="Layer_1" xmlns="http://www.w3.org/2000/svg" xmlns:xlink="http://www.w3.org/1999/xlink" x="0px" y="0px"
	 width="472.48px" height="275.63px" viewBox="0 0 472.48 275.63" enable-background="new 0 0 472.48 275.63" xml:space="preserve">
<g>
	<path d="M27.35,17.693v9.438h-3.797V4.381h7.828c2.531,0,4.489,0.573,5.875,1.719c1.385,1.146,2.078,2.781,2.078,4.906
		c0,1.177-0.305,2.19-0.914,3.039c-0.609,0.849-1.498,1.529-2.664,2.039c1.281,0.406,2.206,1.068,2.773,1.984
		c0.567,0.917,0.852,2.052,0.852,3.406v1.891c0,0.667,0.083,1.318,0.25,1.953c0.167,0.636,0.442,1.12,0.828,1.453v0.359h-3.906
		c-0.417-0.344-0.683-0.88-0.797-1.609c-0.115-0.729-0.172-1.458-0.172-2.188v-1.828c0-1.167-0.336-2.094-1.008-2.781
		s-1.586-1.031-2.742-1.031H27.35z M27.35,14.646h3.828c1.521,0,2.63-0.292,3.328-0.875c0.698-0.583,1.047-1.474,1.047-2.672
		c0-1.146-0.344-2.044-1.031-2.695c-0.688-0.651-1.734-0.977-3.141-0.977H27.35V14.646z"/>
	<path d="M42.818,18.521c0-2.521,0.69-4.586,2.07-6.195c1.38-1.609,3.268-2.414,5.664-2.414c2.427,0,4.331,0.805,5.711,2.414
		c1.38,1.609,2.07,3.675,2.07,6.195v0.328c0,2.542-0.69,4.612-2.07,6.211c-1.38,1.599-3.273,2.398-5.68,2.398
		c-2.417,0-4.315-0.802-5.695-2.406c-1.38-1.604-2.07-3.672-2.07-6.203V18.521z M46.615,18.85c0,1.656,0.323,3,0.969,4.031
		c0.646,1.031,1.646,1.547,3,1.547c1.323,0,2.315-0.518,2.977-1.555c0.661-1.036,0.992-2.377,0.992-4.023v-0.328
		c0-1.614-0.331-2.945-0.992-3.992c-0.662-1.047-1.664-1.57-3.008-1.57c-1.323,0-2.31,0.523-2.961,1.57
		c-0.651,1.047-0.977,2.378-0.977,3.992V18.85z"/>
	<path d="M68.537,24.428c0.864,0,1.596-0.271,2.195-0.812c0.599-0.542,0.898-1.229,0.898-2.062h3.438l0.031,0.094
		c0.042,1.583-0.586,2.948-1.883,4.094c-1.297,1.146-2.857,1.719-4.68,1.719c-2.438,0-4.318-0.805-5.641-2.414
		c-1.323-1.609-1.984-3.638-1.984-6.086v-0.547c0-2.438,0.661-4.463,1.984-6.078c1.323-1.614,3.198-2.422,5.625-2.422
		c1.969,0,3.567,0.591,4.797,1.773c1.229,1.183,1.823,2.685,1.781,4.508l-0.031,0.094h-3.438c0-0.927-0.287-1.713-0.859-2.359
		c-0.573-0.646-1.323-0.969-2.25-0.969c-1.354,0-2.328,0.523-2.922,1.57s-0.891,2.341-0.891,3.883v0.547
		c0,1.573,0.294,2.878,0.883,3.914C66.18,23.91,67.162,24.428,68.537,24.428z"/>
	<path d="M83.49,19.74h-1.406v7.391h-3.781V2.756h3.781v13.938h1.297l4.578-6.469h4.453l-5.797,7.781l6.438,9.125h-4.422
		L83.49,19.74z"/>
	<path d="M100.646,20.35l0.375,1.688h0.094l3.703-11.812h4.156l-7,19.469c-0.448,1.177-1.078,2.182-1.891,3.016
		c-0.812,0.833-1.964,1.25-3.453,1.25c-0.312,0-0.648-0.031-1.008-0.094s-0.706-0.136-1.039-0.219l0.422-2.938
		c0.135,0.01,0.328,0.026,0.578,0.047c0.25,0.021,0.438,0.031,0.562,0.031c0.688,0,1.237-0.234,1.648-0.703
		c0.411-0.469,0.747-1.011,1.008-1.625l0.625-1.531l-6.141-16.703h4.141L100.646,20.35z"/>
	<path d="M131.131,21.881h0.094l6.578-17.5h4.844v22.75h-3.797V10.787l-0.094-0.016l-6.266,16.359h-2.609l-6.375-16.672
		l-0.094,0.031v16.641h-3.797V4.381h4.984L131.131,21.881z"/>
	<path d="M146.35,18.521c0-2.521,0.69-4.586,2.07-6.195c1.38-1.609,3.268-2.414,5.664-2.414c2.427,0,4.331,0.805,5.711,2.414
		c1.38,1.609,2.07,3.675,2.07,6.195v0.328c0,2.542-0.69,4.612-2.07,6.211c-1.38,1.599-3.273,2.398-5.68,2.398
		c-2.417,0-4.315-0.802-5.695-2.406c-1.38-1.604-2.07-3.672-2.07-6.203V18.521z M150.146,18.85c0,1.656,0.323,3,0.969,4.031
		c0.646,1.031,1.646,1.547,3,1.547c1.323,0,2.315-0.518,2.977-1.555c0.661-1.036,0.992-2.377,0.992-4.023v-0.328
		c0-1.614-0.331-2.945-0.992-3.992c-0.662-1.047-1.664-1.57-3.008-1.57c-1.323,0-2.31,0.523-2.961,1.57
		c-0.651,1.047-0.977,2.378-0.977,3.992V18.85z"/>
	<path d="M175.725,24.631c-0.521,0.906-1.19,1.604-2.008,2.094c-0.818,0.489-1.763,0.734-2.836,0.734
		c-1.812,0-3.229-0.596-4.25-1.789c-1.021-1.192-1.531-3.044-1.531-5.555v-9.891h3.781v9.922c0,1.615,0.234,2.722,0.703,3.32
		c0.469,0.599,1.198,0.898,2.188,0.898c0.917,0,1.685-0.164,2.305-0.492c0.62-0.328,1.106-0.805,1.461-1.43V10.225h3.797v16.906
		h-3.266L175.725,24.631z"/>
	<path d="M186.74,10.225l0.219,2.438c0.552-0.864,1.247-1.539,2.086-2.023c0.838-0.484,1.784-0.727,2.836-0.727
		c1.76,0,3.133,0.542,4.117,1.625c0.984,1.083,1.477,2.776,1.477,5.078v10.516h-3.797V16.646c0-1.312-0.255-2.245-0.766-2.797
		c-0.511-0.552-1.281-0.828-2.312-0.828c-0.812,0-1.516,0.154-2.109,0.461c-0.594,0.308-1.068,0.732-1.422,1.273v12.375h-3.797
		V10.225H186.74z"/>
	<path d="M206.287,6.115v4.109h3.031v2.812h-3.031v9.344c0,0.698,0.151,1.195,0.453,1.492c0.302,0.297,0.703,0.445,1.203,0.445
		c0.208,0,0.411-0.018,0.609-0.055c0.198-0.036,0.385-0.086,0.562-0.148l0.406,2.781c-0.323,0.177-0.706,0.315-1.148,0.414
		c-0.443,0.099-0.904,0.148-1.383,0.148c-1.396,0-2.492-0.409-3.289-1.227c-0.797-0.817-1.195-2.102-1.195-3.852v-9.344h-2.578
		v-2.812h2.578V6.115H206.287z"/>
	<path d="M222.568,27.131c-0.135-0.427-0.248-0.844-0.336-1.25s-0.148-0.812-0.18-1.219c-0.51,0.792-1.193,1.456-2.047,1.992
		s-1.807,0.805-2.859,0.805c-1.76,0-3.111-0.453-4.055-1.359c-0.942-0.906-1.414-2.151-1.414-3.734c0-1.635,0.646-2.909,1.937-3.82
		c1.291-0.911,3.109-1.367,5.453-1.367h2.953v-1.484c0-0.885-0.258-1.578-0.773-2.078s-1.264-0.75-2.242-0.75
		c-0.865,0-1.553,0.206-2.062,0.617c-0.51,0.412-0.766,0.945-0.766,1.602l-3.656,0.016l-0.016-0.094
		c-0.072-1.333,0.523-2.516,1.789-3.547s2.914-1.547,4.945-1.547c1.969,0,3.557,0.5,4.766,1.5s1.812,2.438,1.812,4.312v7.516
		c0,0.698,0.047,1.367,0.141,2.008s0.244,1.269,0.453,1.883H222.568z M217.927,24.412c0.947,0,1.805-0.239,2.57-0.719
		c0.766-0.479,1.273-1.026,1.523-1.641v-2.5h-3.016c-1.104,0-1.969,0.273-2.594,0.82s-0.938,1.19-0.938,1.93
		c0,0.646,0.211,1.159,0.633,1.539C216.529,24.222,217.136,24.412,217.927,24.412z"/>
	<path d="M233.833,6.084h-3.797V2.756h3.797V6.084z M233.833,27.131h-3.797V10.225h3.797V27.131z"/>
	<path d="M241.521,10.225l0.219,2.438c0.552-0.864,1.247-1.539,2.085-2.023c0.838-0.484,1.783-0.727,2.836-0.727
		c1.76,0,3.133,0.542,4.117,1.625c0.984,1.083,1.477,2.776,1.477,5.078v10.516h-3.797V16.646c0-1.312-0.256-2.245-0.766-2.797
		c-0.51-0.552-1.281-0.828-2.312-0.828c-0.812,0-1.516,0.154-2.109,0.461c-0.594,0.308-1.068,0.732-1.422,1.273v12.375h-3.797
		V10.225H241.521z"/>
	<path d="M268.364,17.693v9.438h-3.797V4.381h7.828c2.531,0,4.49,0.573,5.875,1.719c1.385,1.146,2.078,2.781,2.078,4.906
		c0,1.177-0.305,2.19-0.914,3.039c-0.609,0.849-1.498,1.529-2.664,2.039c1.281,0.406,2.205,1.068,2.773,1.984
		c0.568,0.917,0.852,2.052,0.852,3.406v1.891c0,0.667,0.084,1.318,0.25,1.953c0.166,0.636,0.443,1.12,0.828,1.453v0.359h-3.906
		c-0.416-0.344-0.682-0.88-0.797-1.609c-0.115-0.729-0.172-1.458-0.172-2.188v-1.828c0-1.167-0.336-2.094-1.008-2.781
		s-1.586-1.031-2.742-1.031H268.364z M268.364,14.646h3.828c1.521,0,2.631-0.292,3.328-0.875c0.697-0.583,1.047-1.474,1.047-2.672
		c0-1.146-0.344-2.044-1.031-2.695c-0.688-0.651-1.734-0.977-3.141-0.977h-4.031V14.646z"/>
	<path d="M302.692,27.131h-3.797L288.817,10.74l-0.094,0.031v16.359h-3.797V4.381h3.797l10.078,16.391l0.094-0.031V4.381h3.797
		V27.131z"/>
	<path d="M319.599,21.818h-8.062l-1.75,5.312h-3.922l7.938-22.75h3.609l7.844,22.75h-3.922L319.599,21.818z M312.583,18.646h5.984
		l-2.922-8.969h-0.094L312.583,18.646z"/>
	<path d="M347.552,21.881h0.094l6.578-17.5h4.844v22.75h-3.797V10.787l-0.094-0.016l-6.266,16.359h-2.609l-6.375-16.672
		l-0.094,0.031v16.641h-3.797V4.381h4.984L347.552,21.881z"/>
	<path d="M370.646,27.459c-2.469,0-4.398-0.778-5.789-2.336c-1.391-1.557-2.086-3.575-2.086-6.055v-0.625
		c0-2.479,0.695-4.523,2.086-6.133s3.186-2.409,5.383-2.398c2.271,0,3.99,0.701,5.156,2.102c1.166,1.401,1.75,3.273,1.75,5.617
		v2.047h-10.453l-0.031,0.078c0.041,1.386,0.406,2.511,1.094,3.375c0.688,0.865,1.725,1.297,3.109,1.297
		c1.031,0,1.924-0.125,2.68-0.375s1.455-0.609,2.102-1.078l1.234,2.484c-0.646,0.562-1.5,1.037-2.562,1.422
		S372.03,27.459,370.646,27.459z M370.239,12.959c-0.99,0-1.781,0.357-2.375,1.07c-0.594,0.714-0.963,1.644-1.109,2.789l0.031,0.078
		h6.609V16.6c0-1.083-0.252-1.961-0.758-2.633S371.333,12.959,370.239,12.959z"/>
	<path d="M387.396,27.459c-2.469,0-4.398-0.778-5.789-2.336c-1.391-1.557-2.086-3.575-2.086-6.055v-0.625
		c0-2.479,0.695-4.523,2.086-6.133s3.186-2.409,5.383-2.398c2.271,0,3.99,0.701,5.156,2.102c1.166,1.401,1.75,3.273,1.75,5.617
		v2.047h-10.453l-0.031,0.078c0.041,1.386,0.406,2.511,1.094,3.375c0.688,0.865,1.725,1.297,3.109,1.297
		c1.031,0,1.924-0.125,2.68-0.375s1.455-0.609,2.102-1.078l1.234,2.484c-0.646,0.562-1.5,1.037-2.562,1.422
		S388.78,27.459,387.396,27.459z M386.989,12.959c-0.99,0-1.781,0.357-2.375,1.07c-0.594,0.714-0.963,1.644-1.109,2.789l0.031,0.078
		h6.609V16.6c0-1.083-0.252-1.961-0.758-2.633S388.083,12.959,386.989,12.959z"/>
	<path d="M401.833,6.115v4.109h3.031v2.812h-3.031v9.344c0,0.698,0.15,1.195,0.453,1.492s0.703,0.445,1.203,0.445
		c0.209,0,0.412-0.018,0.609-0.055c0.197-0.036,0.385-0.086,0.562-0.148l0.406,2.781c-0.322,0.177-0.705,0.315-1.148,0.414
		c-0.443,0.099-0.904,0.148-1.383,0.148c-1.396,0-2.492-0.409-3.289-1.227c-0.797-0.817-1.195-2.102-1.195-3.852v-9.344h-2.578
		v-2.812h2.578V6.115H401.833z"/>
	<path d="M411.974,6.084h-3.797V2.756h3.797V6.084z M411.974,27.131h-3.797V10.225h3.797V27.131z"/>
	<path d="M419.661,10.225l0.219,2.438c0.553-0.864,1.248-1.539,2.086-2.023s1.783-0.727,2.836-0.727c1.76,0,3.133,0.542,4.117,1.625
		c0.984,1.083,1.477,2.776,1.477,5.078v10.516h-3.797V16.646c0-1.312-0.256-2.245-0.766-2.797c-0.51-0.552-1.281-0.828-2.312-0.828
		c-0.812,0-1.516,0.154-2.109,0.461c-0.594,0.308-1.068,0.732-1.422,1.273v12.375h-3.797V10.225H419.661z"/>
	<path d="M433.755,18.912c0-2.698,0.578-4.872,1.734-6.523c1.156-1.651,2.781-2.477,4.875-2.477c1.01,0,1.898,0.216,2.664,0.648
		c0.766,0.433,1.414,1.055,1.945,1.867l0.375-2.203h3.156v16.906c0,2.177-0.672,3.859-2.016,5.047s-3.25,1.781-5.719,1.781
		c-0.822,0-1.711-0.117-2.664-0.352s-1.814-0.544-2.586-0.93l0.609-2.984c0.646,0.323,1.367,0.575,2.164,0.758
		c0.797,0.182,1.611,0.273,2.445,0.273c1.375,0,2.381-0.294,3.016-0.883c0.635-0.589,0.953-1.492,0.953-2.711v-1.734
		c-0.531,0.677-1.158,1.19-1.883,1.539s-1.555,0.523-2.492,0.523c-2.072,0-3.688-0.755-4.844-2.266
		c-1.156-1.51-1.734-3.495-1.734-5.953V18.912z M437.536,19.24c0,1.562,0.303,2.808,0.906,3.734
		c0.604,0.927,1.557,1.391,2.859,1.391c0.812,0,1.498-0.169,2.055-0.508c0.557-0.338,1.008-0.825,1.352-1.461V14.99
		c-0.354-0.614-0.811-1.096-1.367-1.445c-0.557-0.349-1.227-0.523-2.008-0.523c-1.303,0-2.26,0.544-2.875,1.633
		c-0.615,1.089-0.922,2.508-0.922,4.258V19.24z"/>
</g>
<g>
	<path d="M26.889,256.115c0,2.938-0.805,5.312-2.414,7.125s-3.769,2.719-6.477,2.719c-2.667,0-4.794-0.906-6.383-2.719
		c-1.589-1.812-2.383-4.188-2.383-7.125v-3.703c0-2.927,0.792-5.302,2.375-7.125c1.583-1.823,3.708-2.734,6.375-2.734
		c2.708,0,4.87,0.911,6.484,2.734c1.614,1.823,2.422,4.198,2.422,7.125V256.115z M25.029,252.381c0-2.458-0.623-4.438-1.867-5.938
		c-1.245-1.5-2.972-2.25-5.18-2.25c-2.167,0-3.854,0.75-5.062,2.25c-1.208,1.5-1.812,3.479-1.812,5.938v3.734
		c0,2.479,0.606,4.469,1.82,5.969c1.213,1.5,2.903,2.25,5.07,2.25c2.219,0,3.945-0.747,5.18-2.242s1.852-3.487,1.852-5.977V252.381z
		"/>
	<path d="M37.482,264.381c1.198,0,2.258-0.354,3.18-1.062s1.383-1.692,1.383-2.953h1.672l0.031,0.094
		c0.042,1.562-0.573,2.87-1.844,3.922c-1.271,1.052-2.745,1.578-4.422,1.578c-2.25,0-4.003-0.792-5.258-2.375
		c-1.255-1.583-1.883-3.609-1.883-6.078v-0.656c0-2.458,0.625-4.479,1.875-6.062s3-2.375,5.25-2.375
		c1.812,0,3.323,0.547,4.531,1.641c1.208,1.094,1.792,2.531,1.75,4.312l-0.031,0.094h-1.672c0-1.354-0.443-2.435-1.328-3.242
		c-0.886-0.808-1.969-1.211-3.25-1.211c-1.771,0-3.089,0.651-3.953,1.953c-0.865,1.302-1.297,2.933-1.297,4.891v0.656
		c0,1.989,0.432,3.633,1.297,4.93C34.378,263.732,35.701,264.381,37.482,264.381z"/>
	<path d="M50.686,244.396v4.328h3.719v1.531h-3.719v11.016c0,1.104,0.2,1.888,0.602,2.352c0.401,0.464,0.935,0.695,1.602,0.695
		c0.229,0,0.45-0.013,0.664-0.039c0.213-0.026,0.466-0.07,0.758-0.133l0.281,1.391c-0.25,0.125-0.56,0.227-0.93,0.305
		c-0.37,0.078-0.737,0.117-1.102,0.117c-1.188,0-2.112-0.375-2.773-1.125c-0.662-0.75-0.992-1.938-0.992-3.562v-11.016h-2.922
		v-1.531h2.922v-4.328H50.686z"/>
	<path d="M57.014,256.928c0-2.489,0.682-4.531,2.047-6.125c1.364-1.594,3.172-2.391,5.422-2.391c2.26,0,4.073,0.797,5.438,2.391
		c1.364,1.594,2.047,3.636,2.047,6.125v0.516c0,2.5-0.68,4.544-2.039,6.133s-3.164,2.383-5.414,2.383
		c-2.271,0-4.089-0.794-5.453-2.383c-1.365-1.589-2.047-3.633-2.047-6.133V256.928z M58.889,257.443
		c0,1.958,0.495,3.604,1.484,4.938c0.989,1.333,2.37,2,4.141,2c1.739,0,3.106-0.667,4.102-2c0.995-1.333,1.492-2.979,1.492-4.938
		v-0.516c0-1.927-0.5-3.562-1.5-4.906s-2.375-2.016-4.125-2.016s-3.12,0.672-4.109,2.016c-0.99,1.344-1.484,2.979-1.484,4.906
		V257.443z"/>
	<path d="M89.498,257.646c0,2.531-0.573,4.55-1.719,6.055c-1.146,1.505-2.724,2.258-4.734,2.258c-1.229,0-2.294-0.247-3.195-0.742
		c-0.901-0.495-1.633-1.2-2.195-2.117l-0.312,2.531h-1.469v-24.375h1.875v10.062c0.562-0.927,1.281-1.644,2.156-2.148
		s1.911-0.758,3.109-0.758c2.031,0,3.62,0.81,4.766,2.43c1.146,1.62,1.719,3.778,1.719,6.477V257.646z M87.607,257.318
		c0-2.156-0.417-3.909-1.25-5.258c-0.833-1.349-2.068-2.023-3.703-2.023c-1.292,0-2.333,0.315-3.125,0.945
		c-0.792,0.63-1.386,1.445-1.781,2.445v7.734c0.417,0.979,1.034,1.753,1.852,2.32c0.817,0.567,1.846,0.852,3.086,0.852
		c1.635,0,2.864-0.604,3.688-1.812c0.823-1.208,1.234-2.833,1.234-4.875V257.318z"/>
	<path d="M100.107,265.959c-2.188,0-3.964-0.773-5.328-2.32c-1.365-1.547-2.047-3.534-2.047-5.961v-0.859
		c0-2.438,0.69-4.448,2.07-6.031c1.38-1.583,3.091-2.375,5.133-2.375c2.052,0,3.638,0.659,4.758,1.977
		c1.12,1.317,1.68,3.091,1.68,5.32v1.453H94.607v0.516c0,1.927,0.487,3.526,1.461,4.797c0.974,1.271,2.32,1.906,4.039,1.906
		c1.031,0,1.979-0.169,2.844-0.508c0.864-0.339,1.583-0.794,2.156-1.367l0.797,1.281c-0.594,0.625-1.373,1.144-2.336,1.555
		C102.604,265.753,101.451,265.959,100.107,265.959z M99.936,250.006c-1.438,0-2.62,0.516-3.547,1.547
		c-0.927,1.031-1.469,2.339-1.625,3.922l0.047,0.094h9.688v-0.391c0-1.5-0.394-2.737-1.18-3.711
		C102.532,250.493,101.404,250.006,99.936,250.006z"/>
	<path d="M117.873,250.334l-1.328-0.094c-1.177,0-2.144,0.331-2.898,0.992c-0.755,0.661-1.294,1.57-1.617,2.727v11.672h-1.875
		v-16.906h1.641l0.234,2.812v0.188c0.489-1.042,1.146-1.854,1.969-2.438c0.823-0.583,1.802-0.875,2.938-0.875
		c0.229,0,0.448,0.019,0.656,0.055c0.208,0.036,0.38,0.075,0.516,0.117L117.873,250.334z"/>
	<path d="M136.686,265.631h-1.875V244.49l-5.391,0.656v-1.5l7.266-1.094V265.631z"/>
	<path d="M160.061,257.6c0,2.594-0.628,4.636-1.883,6.125c-1.255,1.489-2.977,2.234-5.164,2.234s-3.917-0.747-5.188-2.242
		c-1.271-1.495-1.906-3.534-1.906-6.117v-6.688c0-2.573,0.63-4.609,1.891-6.109c1.26-1.5,2.984-2.25,5.172-2.25
		s3.914,0.75,5.18,2.25s1.898,3.536,1.898,6.109V257.6z M158.186,250.615c0-1.989-0.451-3.565-1.352-4.727
		c-0.901-1.161-2.185-1.742-3.852-1.742c-1.667,0-2.951,0.583-3.852,1.75c-0.901,1.167-1.352,2.739-1.352,4.719v7.266
		c0,1.969,0.456,3.544,1.367,4.727c0.911,1.183,2.2,1.773,3.867,1.773c1.656,0,2.932-0.589,3.828-1.766
		c0.896-1.177,1.344-2.755,1.344-4.734V250.615z"/>
	<path d="M173.107,256.725h-9.219v-1.578h9.219V256.725z"/>
	<path d="M185.592,265.631h-1.875V244.49l-5.391,0.656v-1.5l7.266-1.094V265.631z"/>
	<path d="M209.263,265.631H195.42v-1.438l7.484-8.734c1.334-1.573,2.256-2.862,2.766-3.867s0.766-1.997,0.766-2.977
		c0-1.386-0.373-2.477-1.117-3.273s-1.846-1.195-3.305-1.195c-1.625,0-2.875,0.481-3.75,1.445c-0.875,0.964-1.312,2.195-1.312,3.695
		h-1.75l-0.031-0.094c-0.052-1.854,0.547-3.425,1.797-4.711s2.931-1.93,5.046-1.93c1.947,0,3.484,0.547,4.609,1.641
		s1.688,2.573,1.688,4.438c0,1.229-0.369,2.458-1.109,3.688s-1.828,2.719-3.266,4.469l-6.156,7.188l0.031,0.078h11.453V265.631z"/>
	<path d="M236.123,265.631H220.31v-3.438l7-7.688c0.938-1.062,1.625-2.011,2.062-2.844s0.656-1.558,0.656-2.172
		c0-0.886-0.198-1.586-0.594-2.102c-0.396-0.516-1.031-0.773-1.906-0.773c-0.823,0-1.461,0.336-1.914,1.008s-0.68,1.528-0.68,2.57
		h-5.172l-0.031-0.094c-0.053-2.104,0.641-3.888,2.078-5.352s3.344-2.195,5.719-2.195c2.489,0,4.411,0.612,5.766,1.836
		c1.354,1.224,2.031,2.909,2.031,5.055c0,1.438-0.375,2.711-1.125,3.82s-2.125,2.747-4.125,4.914l-2.766,3.312l0.031,0.078h8.781
		V265.631z"/>
	<path d="M254.45,257.271c0,2.719-0.725,4.847-2.172,6.383s-3.359,2.305-5.734,2.305c-2.396,0-4.318-0.769-5.765-2.305
		c-1.448-1.536-2.172-3.664-2.172-6.383v-6.031c0-2.719,0.719-4.847,2.156-6.383s3.353-2.305,5.75-2.305
		c2.375,0,4.291,0.771,5.75,2.312s2.188,3.667,2.188,6.375V257.271z M249.185,250.881c0-1.386-0.236-2.442-0.711-3.172
		s-1.127-1.094-1.961-1.094c-0.844,0-1.494,0.364-1.953,1.094s-0.688,1.786-0.688,3.172v6.719c0,1.417,0.232,2.487,0.695,3.211
		s1.123,1.086,1.977,1.086c0.834,0,1.482-0.362,1.945-1.086s0.695-1.794,0.695-3.211V250.881z"/>
	<path d="M268.903,265.631h-5.281v-18.234h-4.578v-4.031l9.859-0.812V265.631z"/>
	<path d="M282.888,261.896c0.959,0,1.744-0.378,2.359-1.133s0.922-1.8,0.922-3.133v-1.312c-0.51,0.625-1.104,1.097-1.781,1.414
		s-1.4,0.477-2.172,0.477c-2.062,0-3.686-0.695-4.867-2.086s-1.773-3.258-1.773-5.602c0-2.25,0.74-4.141,2.219-5.672
		s3.391-2.297,5.734-2.297c2.303,0,4.195,0.8,5.68,2.398s2.227,3.8,2.227,6.602v5.719c0,2.625-0.811,4.729-2.43,6.312
		s-3.658,2.375-6.117,2.375c-0.771,0-1.576-0.086-2.414-0.258s-1.639-0.414-2.398-0.727l0.906-3.766
		c0.666,0.239,1.297,0.414,1.891,0.523S282.138,261.896,282.888,261.896z M283.372,254.412c0.604,0,1.143-0.114,1.617-0.344
		s0.867-0.542,1.18-0.938v-2.547c0-1.292-0.248-2.276-0.742-2.953s-1.133-1.016-1.914-1.016c-0.822,0-1.475,0.391-1.953,1.172
		s-0.719,1.692-0.719,2.734c0,1.167,0.217,2.106,0.648,2.82S282.55,254.412,283.372,254.412z"/>
	<path d="M305.263,269.85h-1.875v-26.969h1.875V269.85z"/>
	<path d="M318.763,265.631v-22.75h6.938c2.781,0,5.08,0.927,6.898,2.781s2.727,4.234,2.727,7.141v2.922
		c0,2.906-0.908,5.284-2.727,7.133s-4.117,2.773-6.898,2.773H318.763z M320.638,244.475v19.578h5.062
		c2.25,0,4.104-0.786,5.562-2.359s2.188-3.562,2.188-5.969v-2.969c0-2.375-0.732-4.349-2.195-5.922s-3.314-2.359-5.555-2.359
		H320.638z"/>
	<path d="M346.278,265.959c-2.188,0-3.963-0.773-5.328-2.32s-2.047-3.534-2.047-5.961v-0.859c0-2.438,0.689-4.448,2.07-6.031
		s3.092-2.375,5.133-2.375c2.053,0,3.639,0.659,4.758,1.977s1.68,3.091,1.68,5.32v1.453h-11.766v0.516
		c0,1.927,0.486,3.526,1.461,4.797s2.32,1.906,4.039,1.906c1.031,0,1.979-0.169,2.844-0.508s1.584-0.794,2.156-1.367l0.797,1.281
		c-0.594,0.625-1.373,1.144-2.336,1.555S347.622,265.959,346.278,265.959z M346.106,250.006c-1.438,0-2.619,0.516-3.547,1.547
		s-1.469,2.339-1.625,3.922l0.047,0.094h9.688v-0.391c0-1.5-0.393-2.737-1.18-3.711S347.575,250.006,346.106,250.006z"/>
	<path d="M357.981,248.725l0.172,2.938c0.553-1.031,1.287-1.831,2.203-2.398s2.006-0.852,3.266-0.852c1.834,0,3.229,0.56,4.188,1.68
		s1.438,2.867,1.438,5.242v10.297h-1.875V255.35c0-1.938-0.361-3.308-1.086-4.109s-1.752-1.203-3.086-1.203
		s-2.408,0.328-3.227,0.984s-1.408,1.536-1.773,2.641v11.969h-1.875v-16.906H357.981z"/>
	<path d="M378.95,261.396l0.547,1.984h0.094l0.594-1.984l4.594-12.672h1.938l-6.422,16.906h-1.5l-6.438-16.906h1.938L378.95,261.396
		z"/>
	<path d="M396.013,265.959c-2.188,0-3.963-0.773-5.328-2.32s-2.047-3.534-2.047-5.961v-0.859c0-2.438,0.689-4.448,2.07-6.031
		s3.092-2.375,5.133-2.375c2.053,0,3.639,0.659,4.758,1.977s1.68,3.091,1.68,5.32v1.453h-11.766v0.516
		c0,1.927,0.486,3.526,1.461,4.797s2.32,1.906,4.039,1.906c1.031,0,1.979-0.169,2.844-0.508s1.584-0.794,2.156-1.367l0.797,1.281
		c-0.594,0.625-1.373,1.144-2.336,1.555S397.356,265.959,396.013,265.959z M395.841,250.006c-1.438,0-2.619,0.516-3.547,1.547
		s-1.469,2.339-1.625,3.922l0.047,0.094h9.688v-0.391c0-1.5-0.393-2.737-1.18-3.711S397.31,250.006,395.841,250.006z"/>
	<path d="M413.778,250.334l-1.328-0.094c-1.178,0-2.143,0.331-2.898,0.992s-1.295,1.57-1.617,2.727v11.672h-1.875v-16.906h1.641
		l0.234,2.812v0.188c0.49-1.042,1.146-1.854,1.969-2.438s1.803-0.875,2.938-0.875c0.229,0,0.447,0.019,0.656,0.055
		s0.381,0.075,0.516,0.117L413.778,250.334z"/>
	<path d="M440.872,258.521l0.031,0.094c0.041,2.229-0.688,4.011-2.188,5.344s-3.469,2-5.906,2c-2.531,0-4.572-0.914-6.125-2.742
		s-2.328-4.195-2.328-7.102v-3.703c0-2.896,0.775-5.263,2.328-7.102s3.594-2.758,6.125-2.758c2.469,0,4.445,0.651,5.93,1.953
		s2.205,3.094,2.164,5.375l-0.031,0.094h-1.75c0-1.833-0.561-3.263-1.68-4.289s-2.664-1.539-4.633-1.539
		c-1.99,0-3.586,0.771-4.789,2.312s-1.805,3.516-1.805,5.922v3.734c0,2.438,0.602,4.425,1.805,5.961s2.799,2.305,4.789,2.305
		c1.969,0,3.514-0.5,4.633-1.5s1.68-2.453,1.68-4.359H440.872z"/>
	<path d="M462.403,256.115c0,2.938-0.805,5.312-2.414,7.125s-3.768,2.719-6.477,2.719c-2.666,0-4.795-0.906-6.383-2.719
		s-2.383-4.188-2.383-7.125v-3.703c0-2.927,0.791-5.302,2.375-7.125s3.709-2.734,6.375-2.734c2.709,0,4.869,0.911,6.484,2.734
		s2.422,4.198,2.422,7.125V256.115z M460.544,252.381c0-2.458-0.623-4.438-1.867-5.938s-2.971-2.25-5.18-2.25
		c-2.166,0-3.854,0.75-5.062,2.25s-1.812,3.479-1.812,5.938v3.734c0,2.479,0.607,4.469,1.82,5.969s2.904,2.25,5.07,2.25
		c2.219,0,3.945-0.747,5.18-2.242s1.852-3.487,1.852-5.977V252.381z"/>
</g>
<g>
	<polygon fill="none" stroke="#010101" stroke-width="3.9" stroke-miterlimit="10" points="314.419,90.166 392.409,45.14 
		470.399,90.166 470.399,180.222 392.409,225.25 314.419,180.222 	"/>
	<polygon fill="none" stroke="#010101" stroke-width="3.9" stroke-miterlimit="10" points="1.237,90.166 79.229,45.14 
		157.216,90.166 157.216,180.222 79.229,225.25 1.237,180.222 	"/>
	<path fill="none" stroke="#010101" stroke-width="3" stroke-miterlimit="10" d="M22.077,145.052l4.775,4.936l19.892,0.094
		c1.345-2.021,3.644-3.346,6.254-3.346c2.691,0,5.057,1.418,6.385,3.545l20.094,0.16c1.426-4.594,5.092-8.198,9.719-9.545
		l0.016-19.787c-1.024-1.027-1.664-2.449-1.664-4.021c0-3.137,2.543-5.68,5.678-5.68l0.413,0.02l16.956-17.375
		c-0.021-0.209-0.03-0.422-0.03-0.637c0-3.449,2.795-6.242,6.243-6.242c3.448,0,6.242,2.793,6.242,6.242
		c0,3.445-2.794,6.242-6.242,6.242c-0.062,0,0,0,0,0l-17.909,17.078c0.008,0.115,0.01,0.234,0.01,0.352
		c0,1.527-0.604,2.914-1.582,3.938l-0.069,19.869c5.989,1.739,10.367,7.271,10.367,13.826c0,2.457-0.614,4.771-1.701,6.796
		l0.229,0.258l9.254,9.646c2.729,0.246,4.867,2.541,4.867,5.336c0,2.957-2.398,5.355-5.355,5.355c-2.874,0-5.213-2.262-5.352-5.098
		l-9.686-9.525c-1.989,1.039-4.253,1.627-6.655,1.627c-6.684,0-12.306-4.562-13.925-10.735l-20.063,0.08
		c-1.352,2-3.64,3.312-6.235,3.312c-2.61,0-4.905-1.321-6.254-3.339l-27.896,0.086"/>
	<polygon fill="none" stroke="#010101" stroke-width="3.9" stroke-miterlimit="10" points="157.83,90.166 235.819,45.14 
		313.812,90.166 313.812,180.222 235.816,225.25 157.828,180.222 	"/>
	<rect x="325.573" y="145.22" fill="#010101" stroke="#010101" stroke-miterlimit="10" width="2.641" height="12.666"/>
	<rect x="372.552" y="146.22" fill="#010101" stroke="#010101" stroke-miterlimit="10" width="2.154" height="11.666"/>
	<rect x="369.159" y="140.6" fill="#010101" stroke="#010101" stroke-miterlimit="10" width="2.641" height="17.286"/>
	<rect x="366.011" y="135.801" fill="#010101" stroke="#010101" stroke-miterlimit="10" width="2.641" height="22.085"/>
	<rect x="362.86" y="138.936" fill="#010101" stroke="#010101" stroke-miterlimit="10" width="2.641" height="18.95"/>
	<rect x="359.71" y="134.555" fill="#010101" stroke="#010101" stroke-miterlimit="10" width="2.641" height="23.331"/>
	<rect x="356.562" y="137.279" fill="#010101" stroke="#010101" stroke-miterlimit="10" width="2.643" height="20.606"/>
	<rect x="353.411" y="141.398" fill="#010101" stroke="#010101" stroke-miterlimit="10" width="2.641" height="16.487"/>
	<rect x="350.263" y="135.426" fill="#010101" stroke="#010101" stroke-miterlimit="10" width="2.641" height="22.46"/>
	<rect x="347.11" y="138.936" fill="#010101" stroke="#010101" stroke-miterlimit="10" width="2.643" height="18.95"/>
	<rect x="343.962" y="145.22" fill="#010101" stroke="#010101" stroke-miterlimit="10" width="2.641" height="12.666"/>
	<rect x="340.815" y="140.775" fill="#010101" stroke="#010101" stroke-miterlimit="10" width="2.641" height="17.11"/>
	<rect x="337.663" y="138.342" fill="#010101" stroke="#010101" stroke-miterlimit="10" width="2.641" height="19.544"/>
	<rect x="334.513" y="142.693" fill="#010101" stroke="#010101" stroke-miterlimit="10" width="2.643" height="15.192"/>
	<rect x="331.362" y="142.051" fill="#010101" stroke="#010101" stroke-miterlimit="10" width="2.643" height="15.835"/>
	<rect x="328.214" y="138.936" fill="#010101" stroke="#010101" stroke-miterlimit="10" width="2.643" height="18.95"/>
	<rect x="422.462" y="145.22" fill="#010101" stroke="#010101" stroke-miterlimit="10" width="2.641" height="12.666"/>
	<rect x="394.022" y="137.279" fill="#010101" stroke="#010101" stroke-miterlimit="10" width="2.152" height="19.983"/>
	<rect x="390.876" y="139.977" fill="#010101" stroke="#010101" stroke-miterlimit="10" width="2.641" height="17.286"/>
	<rect x="387.976" y="135.178" fill="#010101" stroke="#010101" stroke-miterlimit="10" width="2.643" height="22.085"/>
	<rect x="385.073" y="141.398" fill="#010101" stroke="#010101" stroke-miterlimit="10" width="2.643" height="15.864"/>
	<rect x="457.108" y="146.22" fill="#010101" stroke="#010101" stroke-miterlimit="10" width="2.643" height="11.666"/>
	<rect x="453.958" y="137.279" fill="#010101" stroke="#010101" stroke-miterlimit="10" width="2.641" height="20.606"/>
	<rect x="450.808" y="140.6" fill="#010101" stroke="#010101" stroke-miterlimit="10" width="2.645" height="17.286"/>
	<rect x="447.657" y="142.693" fill="#010101" stroke="#010101" stroke-miterlimit="10" width="2.641" height="15.192"/>
	<rect x="444.509" y="138.936" fill="#010101" stroke="#010101" stroke-miterlimit="10" width="2.645" height="18.95"/>
	<rect x="441.358" y="145.22" fill="#010101" stroke="#010101" stroke-miterlimit="10" width="2.643" height="12.666"/>
	<rect x="438.21" y="140.775" fill="#010101" stroke="#010101" stroke-miterlimit="10" width="2.639" height="17.11"/>
	<rect x="435.06" y="142.693" fill="#010101" stroke="#010101" stroke-miterlimit="10" width="2.645" height="15.192"/>
	<rect x="431.907" y="138.342" fill="#010101" stroke="#010101" stroke-miterlimit="10" width="2.643" height="19.544"/>
	<rect x="428.763" y="135.426" fill="#010101" stroke="#010101" stroke-miterlimit="10" width="2.643" height="22.46"/>
	<rect x="425.61" y="138.936" fill="#010101" stroke="#010101" stroke-miterlimit="10" width="2.643" height="18.95"/>
	<rect x="396.921" y="145.597" fill="#010101" stroke="#010101" stroke-miterlimit="10" width="2.152" height="11.666"/>
	<rect x="325.067" y="157.099" fill="#010101" width="134.684" height="1.574"/>
	<g>
		<rect x="343.716" y="111.326" fill="#010101" stroke="#010101" stroke-miterlimit="10" width="30.99" height="7.146"/>
		<rect x="385.073" y="111.326" fill="#010101" stroke="#010101" stroke-miterlimit="10" width="14.777" height="7.146"/>
		<rect x="422.462" y="111.326" fill="#010101" stroke="#010101" stroke-miterlimit="10" width="28.441" height="7.146"/>
		<rect x="374.706" y="114.113" fill="#010101" width="10.367" height="1.572"/>
		<rect x="399.854" y="114.112" fill="#010101" width="22.607" height="1.573"/>
		<rect x="325.067" y="113.58" fill="#010101" stroke="#010101" stroke-miterlimit="10" width="18.389" height="2.642"/>
		<rect x="450.903" y="113.579" fill="#010101" stroke="#010101" stroke-miterlimit="10" width="8.84" height="2.643"/>
	</g>
	<g>
		<path fill="none" stroke="#010101" stroke-width="3" stroke-miterlimit="10" d="M214.904,150.156"/>
		<polyline fill="none" stroke="#010101" stroke-width="3" stroke-miterlimit="10" points="214.904,150.156 259.636,89.733 
			304.368,150.156 		"/>
		<polyline fill="none" stroke="#010101" stroke-width="3" stroke-miterlimit="10" points="166.935,161.587 206.094,117.078 
			223.495,136.855 		"/>
		<polyline fill="none" stroke="#010101" stroke-width="3" stroke-miterlimit="10" points="223.215,176.928 262.374,132.419 
			279.774,152.196 		"/>
		<polyline fill="none" stroke="#010101" stroke-width="3" stroke-linecap="square" stroke-miterlimit="10" points="
			259.409,110.659 251.353,120.396 246.95,108.55 		"/>
		<path fill="none" stroke="#010101" stroke-width="3" stroke-miterlimit="10" d="M253.688,132.291"/>
		<path fill="none" stroke="#010101" stroke-width="3" stroke-miterlimit="10" d="M218.244,126.291"/>
		<polyline fill="none" stroke="#010101" stroke-width="3" stroke-linecap="square" stroke-miterlimit="10" points="
			271.671,107.003 268.935,119.342 259.618,110.804 		"/>
		<polyline fill="none" stroke="#010101" stroke-width="3" stroke-linecap="square" stroke-miterlimit="10" points="
			205.219,134.298 197.316,143.847 192.999,132.229 		"/>
		<polyline fill="none" stroke="#010101" stroke-width="3" stroke-linecap="square" stroke-miterlimit="10" points="
			217.244,130.712 214.561,142.813 205.423,134.439 		"/>
	</g>
</g>
<g>
</g>
<g>
</g>
<g>
</g>
<g>
</g>
<g>
</g>
<g>
</g>
</svg>
