<?xml version="1.0" encoding="utf-8"?>
<!-- Generator: Adobe Illustrator 16.0.4, SVG Export Plug-In . SVG Version: 6.00 Build 0)  -->
<!DOCTYPE svg PUBLIC "-//W3C//DTD SVG 1.1//EN" "http://www.w3.org/Graphics/SVG/1.1/DTD/svg11.dtd">
<svg version="1.1" id="Layer_1" xmlns="http://www.w3.org/2000/svg" xmlns:xlink="http://www.w3.org/1999/xlink" x="0px" y="0px"
	 width="484.033px" height="275.63px" viewBox="0 0 484.033 275.63" enable-background="new 0 0 484.033 275.63"
	 xml:space="preserve">
<g>
	<path d="M9.821,17.693v9.438H6.024V4.381h7.828c2.531,0,4.489,0.573,5.875,1.719c1.385,1.146,2.078,2.781,2.078,4.906
		c0,1.177-0.305,2.19-0.914,3.039c-0.609,0.849-1.498,1.529-2.664,2.039c1.281,0.406,2.206,1.068,2.773,1.984
		c0.567,0.917,0.852,2.052,0.852,3.406v1.891c0,0.667,0.083,1.318,0.25,1.953c0.167,0.636,0.442,1.12,0.828,1.453v0.359h-3.906
		c-0.417-0.344-0.683-0.88-0.797-1.609c-0.115-0.729-0.172-1.458-0.172-2.188v-1.828c0-1.167-0.336-2.094-1.008-2.781
		s-1.586-1.031-2.742-1.031H9.821z M9.821,14.646h3.828c1.521,0,2.63-0.292,3.328-0.875c0.698-0.583,1.047-1.474,1.047-2.672
		c0-1.146-0.344-2.044-1.031-2.695c-0.688-0.651-1.734-0.977-3.141-0.977H9.821V14.646z"/>
	<path d="M25.29,18.521c0-2.521,0.69-4.586,2.07-6.195c1.38-1.609,3.268-2.414,5.664-2.414c2.427,0,4.331,0.805,5.711,2.414
		c1.38,1.609,2.07,3.675,2.07,6.195v0.328c0,2.542-0.69,4.612-2.07,6.211c-1.38,1.599-3.273,2.398-5.68,2.398
		c-2.417,0-4.315-0.802-5.695-2.406c-1.38-1.604-2.07-3.672-2.07-6.203V18.521z M29.087,18.85c0,1.656,0.323,3,0.969,4.031
		c0.646,1.031,1.646,1.547,3,1.547c1.323,0,2.315-0.518,2.977-1.555c0.661-1.036,0.992-2.377,0.992-4.023v-0.328
		c0-1.614-0.331-2.945-0.992-3.992c-0.662-1.047-1.664-1.57-3.008-1.57c-1.323,0-2.31,0.523-2.961,1.57
		c-0.651,1.047-0.977,2.378-0.977,3.992V18.85z"/>
	<path d="M51.009,24.428c0.864,0,1.596-0.271,2.195-0.812c0.599-0.542,0.898-1.229,0.898-2.062h3.438l0.031,0.094
		c0.042,1.583-0.586,2.948-1.883,4.094c-1.297,1.146-2.857,1.719-4.68,1.719c-2.438,0-4.318-0.805-5.641-2.414
		c-1.323-1.609-1.984-3.638-1.984-6.086v-0.547c0-2.438,0.661-4.463,1.984-6.078c1.323-1.614,3.198-2.422,5.625-2.422
		c1.969,0,3.567,0.591,4.797,1.773c1.229,1.183,1.823,2.685,1.781,4.508l-0.031,0.094h-3.438c0-0.927-0.287-1.713-0.859-2.359
		c-0.573-0.646-1.323-0.969-2.25-0.969c-1.354,0-2.328,0.523-2.922,1.57s-0.891,2.341-0.891,3.883v0.547
		c0,1.573,0.294,2.878,0.883,3.914C48.652,23.91,49.634,24.428,51.009,24.428z"/>
	<path d="M65.962,19.74h-1.406v7.391h-3.781V2.756h3.781v13.938h1.297l4.578-6.469h4.453l-5.797,7.781l6.438,9.125h-4.422
		L65.962,19.74z"/>
	<path d="M83.118,20.35l0.375,1.688h0.094l3.703-11.812h4.156l-7,19.469c-0.448,1.177-1.078,2.182-1.891,3.016
		c-0.812,0.833-1.964,1.25-3.453,1.25c-0.312,0-0.648-0.031-1.008-0.094s-0.706-0.136-1.039-0.219l0.422-2.938
		c0.135,0.01,0.328,0.026,0.578,0.047c0.25,0.021,0.438,0.031,0.562,0.031c0.688,0,1.237-0.234,1.648-0.703
		c0.411-0.469,0.747-1.011,1.008-1.625l0.625-1.531l-6.141-16.703h4.141L83.118,20.35z"/>
	<path d="M113.603,21.881h0.094l6.578-17.5h4.844v22.75h-3.797V10.787l-0.094-0.016l-6.266,16.359h-2.609l-6.375-16.672
		l-0.094,0.031v16.641h-3.797V4.381h4.984L113.603,21.881z"/>
	<path d="M128.821,18.521c0-2.521,0.69-4.586,2.07-6.195c1.38-1.609,3.268-2.414,5.664-2.414c2.427,0,4.331,0.805,5.711,2.414
		c1.38,1.609,2.07,3.675,2.07,6.195v0.328c0,2.542-0.69,4.612-2.07,6.211c-1.38,1.599-3.273,2.398-5.68,2.398
		c-2.417,0-4.315-0.802-5.695-2.406c-1.38-1.604-2.07-3.672-2.07-6.203V18.521z M132.618,18.85c0,1.656,0.323,3,0.969,4.031
		c0.646,1.031,1.646,1.547,3,1.547c1.323,0,2.315-0.518,2.977-1.555c0.661-1.036,0.992-2.377,0.992-4.023v-0.328
		c0-1.614-0.331-2.945-0.992-3.992c-0.662-1.047-1.664-1.57-3.008-1.57c-1.323,0-2.31,0.523-2.961,1.57
		c-0.651,1.047-0.977,2.378-0.977,3.992V18.85z"/>
	<path d="M158.196,24.631c-0.521,0.906-1.19,1.604-2.008,2.094c-0.818,0.489-1.763,0.734-2.836,0.734
		c-1.812,0-3.229-0.596-4.25-1.789c-1.021-1.192-1.531-3.044-1.531-5.555v-9.891h3.781v9.922c0,1.615,0.234,2.722,0.703,3.32
		c0.469,0.599,1.198,0.898,2.188,0.898c0.917,0,1.685-0.164,2.305-0.492c0.62-0.328,1.106-0.805,1.461-1.43V10.225h3.797v16.906
		h-3.266L158.196,24.631z"/>
	<path d="M169.212,10.225l0.219,2.438c0.552-0.864,1.247-1.539,2.086-2.023c0.838-0.484,1.784-0.727,2.836-0.727
		c1.76,0,3.133,0.542,4.117,1.625c0.984,1.083,1.477,2.776,1.477,5.078v10.516h-3.797V16.646c0-1.312-0.255-2.245-0.766-2.797
		c-0.511-0.552-1.281-0.828-2.312-0.828c-0.812,0-1.516,0.154-2.109,0.461c-0.594,0.308-1.068,0.732-1.422,1.273v12.375h-3.797
		V10.225H169.212z"/>
	<path d="M188.759,6.115v4.109h3.031v2.812h-3.031v9.344c0,0.698,0.151,1.195,0.453,1.492c0.302,0.297,0.703,0.445,1.203,0.445
		c0.208,0,0.411-0.018,0.609-0.055c0.198-0.036,0.385-0.086,0.562-0.148l0.406,2.781c-0.323,0.177-0.706,0.315-1.148,0.414
		c-0.443,0.099-0.904,0.148-1.383,0.148c-1.396,0-2.492-0.409-3.289-1.227c-0.797-0.817-1.195-2.102-1.195-3.852v-9.344h-2.578
		v-2.812h2.578V6.115H188.759z"/>
	<path d="M205.04,27.131c-0.135-0.427-0.248-0.844-0.336-1.25s-0.148-0.812-0.18-1.219c-0.51,0.792-1.193,1.456-2.047,1.992
		s-1.807,0.805-2.859,0.805c-1.76,0-3.111-0.453-4.055-1.359c-0.942-0.906-1.414-2.151-1.414-3.734c0-1.635,0.646-2.909,1.937-3.82
		c1.291-0.911,3.109-1.367,5.453-1.367h2.953v-1.484c0-0.885-0.258-1.578-0.773-2.078s-1.264-0.75-2.242-0.75
		c-0.865,0-1.553,0.206-2.062,0.617c-0.51,0.412-0.766,0.945-0.766,1.602l-3.656,0.016l-0.016-0.094
		c-0.072-1.333,0.523-2.516,1.789-3.547s2.914-1.547,4.945-1.547c1.969,0,3.557,0.5,4.766,1.5s1.812,2.438,1.812,4.312v7.516
		c0,0.698,0.047,1.367,0.141,2.008s0.244,1.269,0.453,1.883H205.04z M200.399,24.412c0.947,0,1.805-0.239,2.57-0.719
		c0.766-0.479,1.273-1.026,1.523-1.641v-2.5h-3.016c-1.104,0-1.969,0.273-2.594,0.82s-0.938,1.19-0.938,1.93
		c0,0.646,0.211,1.159,0.633,1.539C199,24.222,199.608,24.412,200.399,24.412z"/>
	<path d="M216.305,6.084h-3.797V2.756h3.797V6.084z M216.305,27.131h-3.797V10.225h3.797V27.131z"/>
	<path d="M223.993,10.225l0.219,2.438c0.552-0.864,1.247-1.539,2.086-2.023c0.838-0.484,1.783-0.727,2.836-0.727
		c1.76,0,3.133,0.542,4.117,1.625c0.984,1.083,1.477,2.776,1.477,5.078v10.516h-3.797V16.646c0-1.312-0.256-2.245-0.766-2.797
		c-0.511-0.552-1.281-0.828-2.312-0.828c-0.812,0-1.516,0.154-2.109,0.461c-0.594,0.308-1.068,0.732-1.422,1.273v12.375h-3.797
		V10.225H223.993z"/>
	<path d="M250.837,17.693v9.438h-3.797V4.381h7.828c2.531,0,4.488,0.573,5.875,1.719c1.385,1.146,2.078,2.781,2.078,4.906
		c0,1.177-0.305,2.19-0.914,3.039c-0.609,0.849-1.498,1.529-2.664,2.039c1.281,0.406,2.205,1.068,2.773,1.984
		c0.566,0.917,0.852,2.052,0.852,3.406v1.891c0,0.667,0.082,1.318,0.25,1.953c0.166,0.636,0.441,1.12,0.828,1.453v0.359h-3.906
		c-0.418-0.344-0.684-0.88-0.797-1.609c-0.115-0.729-0.172-1.458-0.172-2.188v-1.828c0-1.167-0.336-2.094-1.008-2.781
		s-1.586-1.031-2.742-1.031H250.837z M250.837,14.646h3.828c1.52,0,2.629-0.292,3.328-0.875c0.697-0.583,1.047-1.474,1.047-2.672
		c0-1.146-0.344-2.044-1.031-2.695c-0.688-0.651-1.734-0.977-3.141-0.977h-4.031V14.646z"/>
	<path d="M285.165,27.131h-3.797L271.29,10.74l-0.094,0.031v16.359h-3.797V4.381h3.797l10.078,16.391l0.094-0.031V4.381h3.797
		V27.131z"/>
	<path d="M302.071,21.818h-8.062l-1.75,5.312h-3.922l7.938-22.75h3.609l7.844,22.75h-3.922L302.071,21.818z M295.056,18.646h5.984
		l-2.922-8.969h-0.094L295.056,18.646z"/>
	<path d="M335.134,19.693l0.031,0.094c0.041,2.292-0.703,4.144-2.234,5.555c-1.531,1.412-3.6,2.117-6.203,2.117
		c-2.646,0-4.793-0.893-6.438-2.68c-1.646-1.786-2.469-4.07-2.469-6.852V13.6c0-2.771,0.812-5.055,2.438-6.852
		s3.744-2.695,6.359-2.695c2.676,0,4.783,0.683,6.32,2.047c1.535,1.365,2.283,3.234,2.242,5.609l-0.031,0.094h-3.672
		c0-1.521-0.412-2.685-1.234-3.492c-0.824-0.807-2.031-1.211-3.625-1.211c-1.543,0-2.764,0.612-3.664,1.836
		c-0.902,1.224-1.352,2.769-1.352,4.633v4.359c0,1.886,0.457,3.44,1.375,4.664c0.916,1.224,2.166,1.836,3.75,1.836
		c1.551,0,2.73-0.406,3.539-1.219c0.807-0.812,1.211-1.984,1.211-3.516H335.134z"/>
	<path d="M337.728,18.521c0-2.521,0.689-4.586,2.07-6.195c1.379-1.609,3.268-2.414,5.664-2.414c2.426,0,4.33,0.805,5.711,2.414
		c1.379,1.609,2.07,3.675,2.07,6.195v0.328c0,2.542-0.691,4.612-2.07,6.211c-1.381,1.599-3.273,2.398-5.68,2.398
		c-2.418,0-4.316-0.802-5.695-2.406c-1.381-1.604-2.07-3.672-2.07-6.203V18.521z M341.524,18.85c0,1.656,0.322,3,0.969,4.031
		c0.645,1.031,1.645,1.547,3,1.547c1.322,0,2.314-0.518,2.977-1.555c0.66-1.036,0.992-2.377,0.992-4.023v-0.328
		c0-1.614-0.332-2.945-0.992-3.992c-0.662-1.047-1.664-1.57-3.008-1.57c-1.324,0-2.311,0.523-2.961,1.57
		c-0.652,1.047-0.977,2.378-0.977,3.992V18.85z"/>
	<path d="M359.993,10.225l0.219,2.438c0.551-0.864,1.246-1.539,2.086-2.023c0.838-0.484,1.783-0.727,2.836-0.727
		c1.76,0,3.133,0.542,4.117,1.625c0.984,1.083,1.477,2.776,1.477,5.078v10.516h-3.797V16.646c0-1.312-0.256-2.245-0.766-2.797
		c-0.512-0.552-1.281-0.828-2.312-0.828c-0.812,0-1.516,0.154-2.109,0.461c-0.594,0.308-1.068,0.732-1.422,1.273v12.375h-3.797
		V10.225H359.993z"/>
	<path d="M375.915,27.131V13.037h-2.578v-2.812h2.578V8.256c0-1.864,0.508-3.302,1.523-4.312c1.016-1.01,2.439-1.516,4.273-1.516
		c0.363,0,0.734,0.029,1.109,0.086c0.375,0.058,0.797,0.138,1.266,0.242l-0.391,2.938c-0.209-0.042-0.441-0.078-0.695-0.109
		c-0.256-0.031-0.529-0.047-0.82-0.047c-0.824,0-1.441,0.234-1.852,0.703c-0.412,0.469-0.617,1.141-0.617,2.016v1.969h3.141v2.812
		h-3.141v14.094H375.915z"/>
	<path d="M392.306,27.459c-2.469,0-4.398-0.778-5.789-2.336c-1.391-1.557-2.086-3.575-2.086-6.055v-0.625
		c0-2.479,0.695-4.523,2.086-6.133s3.184-2.409,5.383-2.398c2.27,0,3.988,0.701,5.156,2.102c1.166,1.401,1.75,3.273,1.75,5.617
		v2.047h-10.453l-0.031,0.078c0.041,1.386,0.406,2.511,1.094,3.375c0.688,0.865,1.723,1.297,3.109,1.297
		c1.031,0,1.924-0.125,2.68-0.375c0.754-0.25,1.455-0.609,2.102-1.078l1.234,2.484c-0.646,0.562-1.5,1.037-2.562,1.422
		S393.69,27.459,392.306,27.459z M391.899,12.959c-0.99,0-1.781,0.357-2.375,1.07c-0.594,0.714-0.965,1.644-1.109,2.789l0.031,0.078
		h6.609V16.6c0-1.083-0.254-1.961-0.758-2.633C393.792,13.295,392.993,12.959,391.899,12.959z"/>
	<path d="M410.306,13.646l-1.625-0.062c-0.74,0-1.357,0.156-1.852,0.469c-0.496,0.312-0.879,0.755-1.148,1.328v11.75h-3.797V10.225
		h3.469l0.25,2.453c0.426-0.864,0.977-1.542,1.648-2.031c0.672-0.489,1.445-0.734,2.32-0.734c0.229,0,0.441,0.019,0.641,0.055
		c0.197,0.037,0.379,0.081,0.547,0.133L410.306,13.646z"/>
	<path d="M419.993,27.459c-2.469,0-4.398-0.778-5.789-2.336c-1.391-1.557-2.086-3.575-2.086-6.055v-0.625
		c0-2.479,0.695-4.523,2.086-6.133s3.184-2.409,5.383-2.398c2.27,0,3.988,0.701,5.156,2.102c1.166,1.401,1.75,3.273,1.75,5.617
		v2.047H416.04l-0.031,0.078c0.041,1.386,0.406,2.511,1.094,3.375c0.688,0.865,1.723,1.297,3.109,1.297
		c1.031,0,1.924-0.125,2.68-0.375c0.754-0.25,1.455-0.609,2.102-1.078l1.234,2.484c-0.646,0.562-1.5,1.037-2.562,1.422
		S421.378,27.459,419.993,27.459z M419.587,12.959c-0.99,0-1.781,0.357-2.375,1.07c-0.594,0.714-0.965,1.644-1.109,2.789
		l0.031,0.078h6.609V16.6c0-1.083-0.254-1.961-0.758-2.633C421.479,13.295,420.681,12.959,419.587,12.959z"/>
	<path d="M433.009,10.225l0.219,2.438c0.551-0.864,1.246-1.539,2.086-2.023c0.838-0.484,1.783-0.727,2.836-0.727
		c1.76,0,3.133,0.542,4.117,1.625c0.984,1.083,1.477,2.776,1.477,5.078v10.516h-3.797V16.646c0-1.312-0.256-2.245-0.766-2.797
		c-0.512-0.552-1.281-0.828-2.312-0.828c-0.812,0-1.516,0.154-2.109,0.461c-0.594,0.308-1.068,0.732-1.422,1.273v12.375h-3.797
		V10.225H433.009z"/>
	<path d="M454.587,24.428c0.863,0,1.596-0.271,2.195-0.812c0.598-0.542,0.898-1.229,0.898-2.062h3.438l0.031,0.094
		c0.041,1.583-0.586,2.948-1.883,4.094c-1.297,1.146-2.857,1.719-4.68,1.719c-2.438,0-4.318-0.805-5.641-2.414
		c-1.324-1.609-1.984-3.638-1.984-6.086v-0.547c0-2.438,0.66-4.463,1.984-6.078c1.322-1.614,3.197-2.422,5.625-2.422
		c1.969,0,3.566,0.591,4.797,1.773c1.229,1.183,1.822,2.685,1.781,4.508l-0.031,0.094h-3.438c0-0.927-0.287-1.713-0.859-2.359
		c-0.574-0.646-1.324-0.969-2.25-0.969c-1.355,0-2.328,0.523-2.922,1.57s-0.891,2.341-0.891,3.883v0.547
		c0,1.573,0.293,2.878,0.883,3.914C452.229,23.91,453.212,24.428,454.587,24.428z"/>
	<path d="M471.509,27.459c-2.469,0-4.398-0.778-5.789-2.336c-1.391-1.557-2.086-3.575-2.086-6.055v-0.625
		c0-2.479,0.695-4.523,2.086-6.133s3.184-2.409,5.383-2.398c2.27,0,3.988,0.701,5.156,2.102c1.166,1.401,1.75,3.273,1.75,5.617
		v2.047h-10.453l-0.031,0.078c0.041,1.386,0.406,2.511,1.094,3.375c0.688,0.865,1.723,1.297,3.109,1.297
		c1.031,0,1.924-0.125,2.68-0.375c0.754-0.25,1.455-0.609,2.102-1.078l1.234,2.484c-0.646,0.562-1.5,1.037-2.562,1.422
		S472.894,27.459,471.509,27.459z M471.103,12.959c-0.99,0-1.781,0.357-2.375,1.07c-0.594,0.714-0.965,1.644-1.109,2.789
		l0.031,0.078h6.609V16.6c0-1.083-0.254-1.961-0.758-2.633C472.995,13.295,472.196,12.959,471.103,12.959z"/>
</g>
<g>
	<path d="M31.876,256.115c0,2.938-0.805,5.312-2.414,7.125s-3.769,2.719-6.477,2.719c-2.667,0-4.794-0.906-6.383-2.719
		c-1.589-1.812-2.383-4.188-2.383-7.125v-3.703c0-2.927,0.792-5.302,2.375-7.125c1.583-1.823,3.708-2.734,6.375-2.734
		c2.708,0,4.87,0.911,6.484,2.734c1.614,1.823,2.422,4.198,2.422,7.125V256.115z M30.017,252.381c0-2.458-0.623-4.438-1.867-5.938
		c-1.245-1.5-2.972-2.25-5.18-2.25c-2.167,0-3.854,0.75-5.062,2.25c-1.208,1.5-1.812,3.479-1.812,5.938v3.734
		c0,2.479,0.606,4.469,1.82,5.969c1.213,1.5,2.903,2.25,5.07,2.25c2.219,0,3.945-0.747,5.18-2.242s1.852-3.487,1.852-5.977V252.381z
		"/>
	<path d="M42.47,264.381c1.198,0,2.258-0.354,3.18-1.062s1.383-1.692,1.383-2.953h1.672l0.031,0.094
		c0.042,1.562-0.573,2.87-1.844,3.922c-1.271,1.052-2.745,1.578-4.422,1.578c-2.25,0-4.003-0.792-5.258-2.375
		c-1.255-1.583-1.883-3.609-1.883-6.078v-0.656c0-2.458,0.625-4.479,1.875-6.062s3-2.375,5.25-2.375
		c1.812,0,3.323,0.547,4.531,1.641c1.208,1.094,1.792,2.531,1.75,4.312l-0.031,0.094h-1.672c0-1.354-0.443-2.435-1.328-3.242
		c-0.886-0.808-1.969-1.211-3.25-1.211c-1.771,0-3.089,0.651-3.953,1.953c-0.865,1.302-1.297,2.933-1.297,4.891v0.656
		c0,1.989,0.432,3.633,1.297,4.93C39.365,263.732,40.688,264.381,42.47,264.381z"/>
	<path d="M55.673,244.396v4.328h3.719v1.531h-3.719v11.016c0,1.104,0.2,1.888,0.602,2.352c0.401,0.464,0.935,0.695,1.602,0.695
		c0.229,0,0.45-0.013,0.664-0.039c0.213-0.026,0.466-0.07,0.758-0.133l0.281,1.391c-0.25,0.125-0.56,0.227-0.93,0.305
		c-0.37,0.078-0.737,0.117-1.102,0.117c-1.188,0-2.112-0.375-2.773-1.125c-0.662-0.75-0.992-1.938-0.992-3.562v-11.016H50.86v-1.531
		h2.922v-4.328H55.673z"/>
	<path d="M62.001,256.928c0-2.489,0.682-4.531,2.047-6.125c1.364-1.594,3.172-2.391,5.422-2.391c2.26,0,4.073,0.797,5.438,2.391
		c1.364,1.594,2.047,3.636,2.047,6.125v0.516c0,2.5-0.68,4.544-2.039,6.133s-3.164,2.383-5.414,2.383
		c-2.271,0-4.089-0.794-5.453-2.383c-1.365-1.589-2.047-3.633-2.047-6.133V256.928z M63.876,257.443
		c0,1.958,0.495,3.604,1.484,4.938c0.989,1.333,2.37,2,4.141,2c1.739,0,3.106-0.667,4.102-2c0.995-1.333,1.492-2.979,1.492-4.938
		v-0.516c0-1.927-0.5-3.562-1.5-4.906s-2.375-2.016-4.125-2.016s-3.12,0.672-4.109,2.016c-0.99,1.344-1.484,2.979-1.484,4.906
		V257.443z"/>
	<path d="M94.485,257.646c0,2.531-0.573,4.55-1.719,6.055c-1.146,1.505-2.724,2.258-4.734,2.258c-1.229,0-2.294-0.247-3.195-0.742
		c-0.901-0.495-1.633-1.2-2.195-2.117l-0.312,2.531H80.86v-24.375h1.875v10.062c0.562-0.927,1.281-1.644,2.156-2.148
		s1.911-0.758,3.109-0.758c2.031,0,3.62,0.81,4.766,2.43c1.146,1.62,1.719,3.778,1.719,6.477V257.646z M92.595,257.318
		c0-2.156-0.417-3.909-1.25-5.258c-0.833-1.349-2.068-2.023-3.703-2.023c-1.292,0-2.333,0.315-3.125,0.945
		c-0.792,0.63-1.386,1.445-1.781,2.445v7.734c0.417,0.979,1.034,1.753,1.852,2.32c0.817,0.567,1.846,0.852,3.086,0.852
		c1.635,0,2.864-0.604,3.688-1.812c0.823-1.208,1.234-2.833,1.234-4.875V257.318z"/>
	<path d="M105.095,265.959c-2.188,0-3.964-0.773-5.328-2.32c-1.365-1.547-2.047-3.534-2.047-5.961v-0.859
		c0-2.438,0.69-4.448,2.07-6.031c1.38-1.583,3.091-2.375,5.133-2.375c2.052,0,3.638,0.659,4.758,1.977
		c1.12,1.317,1.68,3.091,1.68,5.32v1.453H99.595v0.516c0,1.927,0.487,3.526,1.461,4.797c0.974,1.271,2.32,1.906,4.039,1.906
		c1.031,0,1.979-0.169,2.844-0.508c0.864-0.339,1.583-0.794,2.156-1.367l0.797,1.281c-0.594,0.625-1.373,1.144-2.336,1.555
		C107.592,265.753,106.438,265.959,105.095,265.959z M104.923,250.006c-1.438,0-2.62,0.516-3.547,1.547
		c-0.927,1.031-1.469,2.339-1.625,3.922l0.047,0.094h9.688v-0.391c0-1.5-0.394-2.737-1.18-3.711
		C107.519,250.493,106.392,250.006,104.923,250.006z"/>
	<path d="M122.86,250.334l-1.328-0.094c-1.177,0-2.144,0.331-2.898,0.992c-0.755,0.661-1.294,1.57-1.617,2.727v11.672h-1.875
		v-16.906h1.641l0.234,2.812v0.188c0.489-1.042,1.146-1.854,1.969-2.438c0.823-0.583,1.802-0.875,2.938-0.875
		c0.229,0,0.448,0.019,0.656,0.055c0.208,0.036,0.38,0.075,0.516,0.117L122.86,250.334z"/>
	<path d="M141.673,265.631h-1.875V244.49l-5.391,0.656v-1.5l7.266-1.094V265.631z"/>
	<path d="M165.048,257.6c0,2.594-0.628,4.636-1.883,6.125c-1.255,1.489-2.977,2.234-5.164,2.234s-3.917-0.747-5.188-2.242
		c-1.271-1.495-1.906-3.534-1.906-6.117v-6.688c0-2.573,0.63-4.609,1.891-6.109c1.26-1.5,2.984-2.25,5.172-2.25
		s3.914,0.75,5.18,2.25s1.898,3.536,1.898,6.109V257.6z M163.173,250.615c0-1.989-0.451-3.565-1.352-4.727
		c-0.901-1.161-2.185-1.742-3.852-1.742c-1.667,0-2.951,0.583-3.852,1.75c-0.901,1.167-1.352,2.739-1.352,4.719v7.266
		c0,1.969,0.456,3.544,1.367,4.727c0.911,1.183,2.2,1.773,3.867,1.773c1.656,0,2.932-0.589,3.828-1.766
		c0.896-1.177,1.344-2.755,1.344-4.734V250.615z"/>
	<path d="M178.095,256.725h-9.219v-1.578h9.219V256.725z"/>
	<path d="M190.579,265.631h-1.875V244.49l-5.391,0.656v-1.5l7.266-1.094V265.631z"/>
	<path d="M214.25,265.631h-13.843v-1.438l7.484-8.734c1.334-1.573,2.256-2.862,2.766-3.867s0.766-1.997,0.766-2.977
		c0-1.386-0.373-2.477-1.117-3.273s-1.846-1.195-3.305-1.195c-1.625,0-2.875,0.481-3.75,1.445c-0.875,0.964-1.312,2.195-1.312,3.695
		h-1.75l-0.031-0.094c-0.052-1.854,0.547-3.425,1.797-4.711s2.931-1.93,5.046-1.93c1.947,0,3.484,0.547,4.609,1.641
		s1.688,2.573,1.688,4.438c0,1.229-0.369,2.458-1.109,3.688s-1.828,2.719-3.266,4.469l-6.156,7.188l0.031,0.078h11.453V265.631z"/>
	<path d="M241.11,265.631h-15.812v-3.438l7-7.688c0.938-1.062,1.625-2.011,2.062-2.844s0.656-1.558,0.656-2.172
		c0-0.886-0.198-1.586-0.594-2.102c-0.396-0.516-1.031-0.773-1.906-0.773c-0.823,0-1.461,0.336-1.914,1.008s-0.68,1.528-0.68,2.57
		h-5.172l-0.031-0.094c-0.053-2.104,0.641-3.888,2.078-5.352s3.344-2.195,5.719-2.195c2.489,0,4.411,0.612,5.766,1.836
		c1.354,1.224,2.031,2.909,2.031,5.055c0,1.438-0.375,2.711-1.125,3.82s-2.125,2.747-4.125,4.914l-2.766,3.312l0.031,0.078h8.781
		V265.631z"/>
	<path d="M259.438,257.271c0,2.719-0.725,4.847-2.172,6.383c-1.449,1.536-3.359,2.305-5.734,2.305c-2.396,0-4.318-0.769-5.766-2.305
		c-1.449-1.536-2.172-3.664-2.172-6.383v-6.031c0-2.719,0.719-4.847,2.157-6.383s3.354-2.305,5.75-2.305
		c2.375,0,4.291,0.771,5.75,2.312c1.457,1.542,2.188,3.667,2.188,6.375V257.271z M254.173,250.881c0-1.386-0.238-2.442-0.711-3.172
		c-0.475-0.729-1.129-1.094-1.961-1.094c-0.844,0-1.496,0.364-1.953,1.094c-0.459,0.729-0.688,1.786-0.688,3.172v6.719
		c0,1.417,0.23,2.487,0.695,3.211c0.463,0.724,1.121,1.086,1.977,1.086c0.832,0,1.48-0.362,1.945-1.086
		c0.463-0.724,0.695-1.794,0.695-3.211V250.881z"/>
	<path d="M273.892,265.631h-5.281v-18.234h-4.578v-4.031l9.859-0.812V265.631z"/>
	<path d="M287.876,261.896c0.957,0,1.744-0.378,2.359-1.133c0.613-0.755,0.922-1.8,0.922-3.133v-1.312
		c-0.512,0.625-1.105,1.097-1.781,1.414c-0.678,0.317-1.402,0.477-2.172,0.477c-2.062,0-3.686-0.695-4.867-2.086
		c-1.184-1.391-1.773-3.258-1.773-5.602c0-2.25,0.738-4.141,2.219-5.672c1.479-1.531,3.391-2.297,5.734-2.297
		c2.301,0,4.195,0.8,5.68,2.398s2.227,3.8,2.227,6.602v5.719c0,2.625-0.811,4.729-2.43,6.312c-1.621,1.583-3.66,2.375-6.117,2.375
		c-0.771,0-1.576-0.086-2.414-0.258c-0.84-0.172-1.639-0.414-2.398-0.727l0.906-3.766c0.666,0.239,1.297,0.414,1.891,0.523
		S287.126,261.896,287.876,261.896z M288.36,254.412c0.604,0,1.143-0.114,1.617-0.344c0.473-0.229,0.867-0.542,1.18-0.938v-2.547
		c0-1.292-0.248-2.276-0.742-2.953c-0.496-0.677-1.133-1.016-1.914-1.016c-0.824,0-1.475,0.391-1.953,1.172
		c-0.48,0.781-0.719,1.692-0.719,2.734c0,1.167,0.215,2.106,0.648,2.82C286.909,254.056,287.536,254.412,288.36,254.412z"/>
	<path d="M311.876,269.85h-3.844v-26.969h3.844V269.85z"/>
	<path d="M324.86,265.631v-22.75h6.938c2.781,0,5.08,0.927,6.898,2.781c1.816,1.854,2.727,4.234,2.727,7.141v2.922
		c0,2.906-0.91,5.284-2.727,7.133c-1.818,1.849-4.117,2.773-6.898,2.773H324.86z M326.735,244.475v19.578h5.062
		c2.25,0,4.104-0.786,5.562-2.359c1.457-1.573,2.188-3.562,2.188-5.969v-2.969c0-2.375-0.732-4.349-2.195-5.922
		c-1.465-1.573-3.316-2.359-5.555-2.359H326.735z"/>
	<path d="M352.376,265.959c-2.188,0-3.965-0.773-5.328-2.32c-1.365-1.547-2.047-3.534-2.047-5.961v-0.859
		c0-2.438,0.689-4.448,2.07-6.031c1.379-1.583,3.09-2.375,5.133-2.375c2.051,0,3.637,0.659,4.758,1.977
		c1.119,1.317,1.68,3.091,1.68,5.32v1.453h-11.766v0.516c0,1.927,0.486,3.526,1.461,4.797c0.973,1.271,2.32,1.906,4.039,1.906
		c1.031,0,1.979-0.169,2.844-0.508c0.863-0.339,1.582-0.794,2.156-1.367l0.797,1.281c-0.594,0.625-1.373,1.144-2.336,1.555
		C354.872,265.753,353.72,265.959,352.376,265.959z M352.204,250.006c-1.438,0-2.621,0.516-3.547,1.547
		c-0.928,1.031-1.469,2.339-1.625,3.922l0.047,0.094h9.688v-0.391c0-1.5-0.395-2.737-1.18-3.711
		C354.8,250.493,353.673,250.006,352.204,250.006z"/>
	<path d="M364.079,248.725l0.172,2.938c0.551-1.031,1.285-1.831,2.203-2.398c0.916-0.567,2.004-0.852,3.266-0.852
		c1.832,0,3.229,0.56,4.188,1.68c0.957,1.12,1.438,2.867,1.438,5.242v10.297h-1.875V255.35c0-1.938-0.363-3.308-1.086-4.109
		c-0.725-0.802-1.754-1.203-3.086-1.203c-1.334,0-2.41,0.328-3.227,0.984c-0.818,0.656-1.41,1.536-1.773,2.641v11.969h-1.875
		v-16.906H364.079z"/>
	<path d="M385.048,261.396l0.547,1.984h0.094l0.594-1.984l4.594-12.672h1.938l-6.422,16.906h-1.5l-6.438-16.906h1.938
		L385.048,261.396z"/>
	<path d="M402.11,265.959c-2.188,0-3.965-0.773-5.328-2.32c-1.365-1.547-2.047-3.534-2.047-5.961v-0.859
		c0-2.438,0.689-4.448,2.07-6.031c1.379-1.583,3.09-2.375,5.133-2.375c2.051,0,3.637,0.659,4.758,1.977
		c1.119,1.317,1.68,3.091,1.68,5.32v1.453H396.61v0.516c0,1.927,0.486,3.526,1.461,4.797c0.973,1.271,2.32,1.906,4.039,1.906
		c1.031,0,1.979-0.169,2.844-0.508c0.863-0.339,1.582-0.794,2.156-1.367l0.797,1.281c-0.594,0.625-1.373,1.144-2.336,1.555
		C404.606,265.753,403.454,265.959,402.11,265.959z M401.938,250.006c-1.438,0-2.621,0.516-3.547,1.547
		c-0.928,1.031-1.469,2.339-1.625,3.922l0.047,0.094h9.688v-0.391c0-1.5-0.395-2.737-1.18-3.711
		C404.534,250.493,403.407,250.006,401.938,250.006z"/>
	<path d="M419.876,250.334l-1.328-0.094c-1.178,0-2.145,0.331-2.898,0.992c-0.756,0.661-1.295,1.57-1.617,2.727v11.672h-1.875
		v-16.906h1.641l0.234,2.812v0.188c0.488-1.042,1.145-1.854,1.969-2.438c0.822-0.583,1.801-0.875,2.938-0.875
		c0.229,0,0.447,0.019,0.656,0.055c0.207,0.036,0.379,0.075,0.516,0.117L419.876,250.334z"/>
	<path d="M446.97,258.521l0.031,0.094c0.041,2.229-0.688,4.011-2.188,5.344s-3.469,2-5.906,2c-2.531,0-4.574-0.914-6.125-2.742
		c-1.553-1.828-2.328-4.195-2.328-7.102v-3.703c0-2.896,0.775-5.263,2.328-7.102c1.551-1.839,3.594-2.758,6.125-2.758
		c2.469,0,4.445,0.651,5.93,1.953s2.205,3.094,2.164,5.375l-0.031,0.094h-1.75c0-1.833-0.561-3.263-1.68-4.289
		c-1.121-1.026-2.664-1.539-4.633-1.539c-1.99,0-3.586,0.771-4.789,2.312s-1.805,3.516-1.805,5.922v3.734
		c0,2.438,0.602,4.425,1.805,5.961s2.799,2.305,4.789,2.305c1.969,0,3.512-0.5,4.633-1.5c1.119-1,1.68-2.453,1.68-4.359H446.97z"/>
	<path d="M468.501,256.115c0,2.938-0.805,5.312-2.414,7.125s-3.77,2.719-6.477,2.719c-2.668,0-4.795-0.906-6.383-2.719
		c-1.59-1.812-2.383-4.188-2.383-7.125v-3.703c0-2.927,0.791-5.302,2.375-7.125c1.582-1.823,3.707-2.734,6.375-2.734
		c2.707,0,4.869,0.911,6.484,2.734c1.613,1.823,2.422,4.198,2.422,7.125V256.115z M466.642,252.381c0-2.458-0.623-4.438-1.867-5.938
		c-1.246-1.5-2.973-2.25-5.18-2.25c-2.168,0-3.855,0.75-5.062,2.25c-1.209,1.5-1.812,3.479-1.812,5.938v3.734
		c0,2.479,0.605,4.469,1.82,5.969c1.213,1.5,2.902,2.25,5.07,2.25c2.219,0,3.945-0.747,5.18-2.242s1.852-3.487,1.852-5.977V252.381z
		"/>
</g>
<g>
	<polygon fill="none" stroke="#010101" stroke-width="3.9" stroke-miterlimit="10" points="319.961,90.166 397.951,45.14 
		475.941,90.166 475.941,180.222 397.951,225.25 319.961,180.222 	"/>
	<polygon fill="none" stroke="#010101" stroke-width="3.9" stroke-miterlimit="10" points="6.779,90.166 84.77,45.14 
		162.758,90.166 162.758,180.222 84.77,225.25 6.779,180.222 	"/>
	<path fill="none" stroke="#010101" stroke-width="3" stroke-miterlimit="10" d="M27.618,145.052l4.775,4.936l19.892,0.094
		c1.345-2.021,3.644-3.346,6.254-3.346c2.691,0,5.057,1.418,6.385,3.545l20.094,0.16c1.426-4.594,5.092-8.198,9.719-9.545
		l0.016-19.787c-1.024-1.027-1.664-2.449-1.664-4.021c0-3.137,2.543-5.68,5.678-5.68l0.413,0.02l16.956-17.375
		c-0.021-0.209-0.03-0.422-0.03-0.637c0-3.449,2.795-6.242,6.243-6.242c3.448,0,6.242,2.793,6.242,6.242
		c0,3.445-2.794,6.242-6.242,6.242c-0.062,0,0,0,0,0l-17.909,17.078c0.008,0.115,0.01,0.234,0.01,0.352
		c0,1.527-0.604,2.914-1.582,3.938l-0.069,19.869c5.989,1.739,10.367,7.271,10.367,13.826c0,2.457-0.614,4.771-1.701,6.796
		l0.229,0.258l9.254,9.646c2.729,0.246,4.867,2.541,4.867,5.336c0,2.957-2.398,5.355-5.355,5.355c-2.874,0-5.213-2.262-5.352-5.098
		l-9.686-9.525c-1.989,1.039-4.253,1.627-6.655,1.627c-6.684,0-12.306-4.562-13.925-10.735l-20.063,0.08
		c-1.352,2-3.64,3.312-6.235,3.312c-2.61,0-4.905-1.321-6.254-3.339l-27.896,0.086"/>
	<polygon fill="none" stroke="#010101" stroke-width="3.9" stroke-miterlimit="10" points="163.371,90.166 241.361,45.14 
		319.353,90.166 319.353,180.222 241.358,225.25 163.369,180.222 	"/>
	<g>
		<rect x="331.115" y="145.22" fill="#010101" stroke="#010101" stroke-miterlimit="10" width="2.641" height="12.666"/>
		<rect x="378.094" y="146.22" fill="#010101" stroke="#010101" stroke-miterlimit="10" width="2.154" height="11.666"/>
		<rect x="374.701" y="140.6" fill="#010101" stroke="#010101" stroke-miterlimit="10" width="2.64" height="17.286"/>
		<rect x="371.552" y="135.801" fill="#010101" stroke="#010101" stroke-miterlimit="10" width="2.642" height="22.085"/>
		<rect x="368.402" y="138.936" fill="#010101" stroke="#010101" stroke-miterlimit="10" width="2.641" height="18.95"/>
		<rect x="365.252" y="134.555" fill="#010101" stroke="#010101" stroke-miterlimit="10" width="2.641" height="23.331"/>
		<rect x="362.104" y="137.279" fill="#010101" stroke="#010101" stroke-miterlimit="10" width="2.643" height="20.606"/>
		<rect x="358.953" y="141.398" fill="#010101" stroke="#010101" stroke-miterlimit="10" width="2.64" height="16.487"/>
		<rect x="355.804" y="135.426" fill="#010101" stroke="#010101" stroke-miterlimit="10" width="2.642" height="22.46"/>
		<rect x="352.652" y="138.936" fill="#010101" stroke="#010101" stroke-miterlimit="10" width="2.643" height="18.95"/>
		<rect x="349.504" y="145.22" fill="#010101" stroke="#010101" stroke-miterlimit="10" width="2.641" height="12.666"/>
		<rect x="346.357" y="140.775" fill="#010101" stroke="#010101" stroke-miterlimit="10" width="2.64" height="17.11"/>
		<rect x="343.205" y="138.342" fill="#010101" stroke="#010101" stroke-miterlimit="10" width="2.64" height="19.544"/>
		<rect x="340.055" y="142.693" fill="#010101" stroke="#010101" stroke-miterlimit="10" width="2.643" height="15.192"/>
		<rect x="336.904" y="142.051" fill="#010101" stroke="#010101" stroke-miterlimit="10" width="2.643" height="15.835"/>
		<rect x="333.756" y="138.936" fill="#010101" stroke="#010101" stroke-miterlimit="10" width="2.643" height="18.95"/>
		<rect x="428.003" y="145.22" fill="#010101" stroke="#010101" stroke-miterlimit="10" width="2.642" height="12.666"/>
		<rect x="399.564" y="137.279" fill="#010101" stroke="#010101" stroke-miterlimit="10" width="2.151" height="19.983"/>
		<rect x="396.418" y="139.977" fill="#010101" stroke="#010101" stroke-miterlimit="10" width="2.64" height="17.286"/>
		<rect x="393.518" y="135.178" fill="#010101" stroke="#010101" stroke-miterlimit="10" width="2.643" height="22.085"/>
		<rect x="390.615" y="141.398" fill="#010101" stroke="#010101" stroke-miterlimit="10" width="2.642" height="15.864"/>
		<rect x="462.65" y="146.22" fill="#010101" stroke="#010101" stroke-miterlimit="10" width="2.642" height="11.666"/>
		<rect x="459.5" y="137.279" fill="#010101" stroke="#010101" stroke-miterlimit="10" width="2.641" height="20.606"/>
		<rect x="456.35" y="140.6" fill="#010101" stroke="#010101" stroke-miterlimit="10" width="2.645" height="17.286"/>
		<rect x="453.199" y="142.693" fill="#010101" stroke="#010101" stroke-miterlimit="10" width="2.641" height="15.192"/>
		<rect x="450.051" y="138.936" fill="#010101" stroke="#010101" stroke-miterlimit="10" width="2.645" height="18.95"/>
		<rect x="446.9" y="145.22" fill="#010101" stroke="#010101" stroke-miterlimit="10" width="2.643" height="12.666"/>
		<rect x="443.752" y="140.775" fill="#010101" stroke="#010101" stroke-miterlimit="10" width="2.639" height="17.11"/>
		<rect x="440.602" y="142.693" fill="#010101" stroke="#010101" stroke-miterlimit="10" width="2.645" height="15.192"/>
		<rect x="437.449" y="138.342" fill="#010101" stroke="#010101" stroke-miterlimit="10" width="2.643" height="19.544"/>
		<rect x="434.304" y="135.426" fill="#010101" stroke="#010101" stroke-miterlimit="10" width="2.644" height="22.46"/>
		<rect x="431.152" y="138.936" fill="#010101" stroke="#010101" stroke-miterlimit="10" width="2.642" height="18.95"/>
		<rect x="402.463" y="145.597" fill="#010101" stroke="#010101" stroke-miterlimit="10" width="2.152" height="11.666"/>
		<rect x="330.609" y="157.099" fill="#010101" width="134.683" height="1.574"/>
		<g>
			<rect x="349.257" y="111.326" fill="#010101" stroke="#010101" stroke-miterlimit="10" width="30.991" height="7.146"/>
			<rect x="390.615" y="111.326" fill="#010101" stroke="#010101" stroke-miterlimit="10" width="14.776" height="7.146"/>
			<rect x="428.003" y="111.326" fill="#010101" stroke="#010101" stroke-miterlimit="10" width="28.442" height="7.146"/>
			<rect x="380.248" y="114.113" fill="#010101" width="10.367" height="1.572"/>
			<rect x="405.396" y="114.112" fill="#010101" width="22.606" height="1.573"/>
			<rect x="330.609" y="113.58" fill="#010101" stroke="#010101" stroke-miterlimit="10" width="18.388" height="2.642"/>
			<rect x="456.445" y="113.579" fill="#010101" stroke="#010101" stroke-miterlimit="10" width="8.84" height="2.643"/>
		</g>
	</g>
	<g>
		<path fill="none" stroke="#010101" stroke-width="3" stroke-miterlimit="10" d="M218.445,151.156"/>
		<polyline fill="none" stroke="#010101" stroke-width="3" stroke-miterlimit="10" points="218.445,151.156 263.178,90.733 
			307.91,151.156 		"/>
		<polyline fill="none" stroke="#010101" stroke-width="3" stroke-miterlimit="10" points="172.476,161.587 211.636,117.078 
			229.036,136.855 		"/>
		<polyline fill="none" stroke="#010101" stroke-width="3" stroke-miterlimit="10" points="226.756,177.928 265.916,133.419 
			283.316,153.196 		"/>
	</g>
</g>
<g>
</g>
<g>
</g>
<g>
</g>
<g>
</g>
<g>
</g>
<g>
</g>
</svg>
