<?xml version="1.0" encoding="utf-8"?>
<!-- Generator: Adobe Illustrator 16.0.4, SVG Export Plug-In . SVG Version: 6.00 Build 0)  -->
<!DOCTYPE svg PUBLIC "-//W3C//DTD SVG 1.1//EN" "http://www.w3.org/Graphics/SVG/1.1/DTD/svg11.dtd">
<svg version="1.1" id="Layer_1" xmlns="http://www.w3.org/2000/svg" xmlns:xlink="http://www.w3.org/1999/xlink" x="0px" y="0px"
	 width="299.627px" height="275.629px" viewBox="0 0 299.627 275.629" enable-background="new 0 0 299.627 275.629"
	 xml:space="preserve">
<g>
	<path d="M39.442,23.12v9.438h-3.797V9.807h7.828c2.531,0,4.489,0.573,5.875,1.719c1.385,1.146,2.078,2.781,2.078,4.906
		c0,1.177-0.305,2.19-0.914,3.039C49.903,20.32,49.015,21,47.848,21.51c1.281,0.406,2.206,1.068,2.773,1.984
		c0.567,0.917,0.852,2.052,0.852,3.406v1.891c0,0.667,0.083,1.318,0.25,1.953c0.167,0.636,0.442,1.12,0.828,1.453v0.359h-3.906
		c-0.417-0.344-0.683-0.88-0.797-1.609c-0.115-0.729-0.172-1.458-0.172-2.188v-1.828c0-1.167-0.336-2.094-1.008-2.781
		s-1.586-1.031-2.742-1.031L39.442,23.12L39.442,23.12z M39.442,20.073h3.828c1.521,0,2.63-0.292,3.328-0.875
		c0.698-0.583,1.047-1.474,1.047-2.672c0-1.146-0.344-2.044-1.031-2.695c-0.688-0.651-1.734-0.977-3.141-0.977h-4.031V20.073z"/>
	<path d="M54.911,23.948c0-2.521,0.69-4.586,2.07-6.195s3.268-2.414,5.664-2.414c2.427,0,4.331,0.805,5.711,2.414
		s2.07,3.675,2.07,6.195v0.328c0,2.542-0.69,4.612-2.07,6.211c-1.38,1.599-3.273,2.398-5.68,2.398c-2.417,0-4.315-0.802-5.695-2.406
		s-2.07-3.672-2.07-6.203V23.948z M58.708,24.276c0,1.656,0.323,3,0.969,4.031c0.646,1.031,1.646,1.547,3,1.547
		c1.323,0,2.315-0.518,2.977-1.555c0.661-1.036,0.992-2.377,0.992-4.023v-0.328c0-1.614-0.331-2.945-0.992-3.992
		c-0.662-1.047-1.664-1.57-3.008-1.57c-1.323,0-2.31,0.523-2.961,1.57s-0.977,2.378-0.977,3.992V24.276z"/>
	<path d="M80.629,29.854c0.864,0,1.596-0.271,2.195-0.812c0.599-0.542,0.898-1.229,0.898-2.062h3.438l0.031,0.094
		c0.042,1.583-0.586,2.948-1.883,4.094s-2.857,1.719-4.68,1.719c-2.438,0-4.318-0.805-5.641-2.414
		c-1.323-1.609-1.984-3.638-1.984-6.086V23.84c0-2.438,0.661-4.463,1.984-6.078c1.323-1.614,3.198-2.422,5.625-2.422
		c1.969,0,3.567,0.591,4.797,1.773c1.229,1.183,1.823,2.685,1.781,4.508l-0.031,0.094h-3.438c0-0.927-0.287-1.713-0.859-2.359
		c-0.573-0.646-1.323-0.969-2.25-0.969c-1.354,0-2.328,0.523-2.922,1.57c-0.594,1.047-0.891,2.341-0.891,3.883v0.547
		c0,1.573,0.294,2.878,0.883,3.914C78.272,29.336,79.254,29.854,80.629,29.854z"/>
	<path d="M95.583,25.167h-1.406v7.391h-3.781V8.182h3.781V22.12h1.297l4.578-6.469h4.453l-5.797,7.781l6.438,9.125h-4.422
		L95.583,25.167z"/>
	<path d="M112.739,25.776l0.375,1.688h0.094l3.703-11.812h4.156l-7,19.469c-0.448,1.177-1.078,2.182-1.891,3.016
		c-0.812,0.833-1.964,1.25-3.453,1.25c-0.312,0-0.648-0.031-1.008-0.094c-0.36-0.063-0.706-0.136-1.039-0.219l0.422-2.938
		c0.135,0.01,0.328,0.026,0.578,0.047s0.438,0.031,0.562,0.031c0.688,0,1.237-0.234,1.648-0.703
		c0.411-0.469,0.747-1.011,1.008-1.625l0.625-1.531l-6.141-16.703h4.141L112.739,25.776z"/>
	<path d="M143.223,27.307h0.094l6.578-17.5h4.844v22.75h-3.797V16.213l-0.094-0.016l-6.267,16.359h-2.609l-6.375-16.672
		l-0.094,0.031v16.641h-3.797V9.807h4.984L143.223,27.307z"/>
	<path d="M158.442,23.948c0-2.521,0.689-4.586,2.07-6.195c1.379-1.609,3.268-2.414,5.663-2.414c2.427,0,4.331,0.805,5.712,2.414
		c1.379,1.609,2.069,3.675,2.069,6.195v0.328c0,2.542-0.69,4.612-2.069,6.211c-1.381,1.599-3.273,2.398-5.681,2.398
		c-2.417,0-4.315-0.802-5.694-2.406c-1.381-1.604-2.07-3.672-2.07-6.203V23.948z M162.239,24.276c0,1.656,0.322,3,0.969,4.031
		c0.646,1.031,1.646,1.547,3,1.547c1.322,0,2.314-0.518,2.977-1.555c0.662-1.036,0.992-2.377,0.992-4.023v-0.328
		c0-1.614-0.33-2.945-0.992-3.992s-1.664-1.57-3.008-1.57c-1.322,0-2.31,0.523-2.961,1.57c-0.65,1.047-0.977,2.378-0.977,3.992
		V24.276z"/>
	<path d="M187.817,30.057c-0.521,0.906-1.19,1.604-2.008,2.094c-0.818,0.489-1.764,0.734-2.836,0.734
		c-1.812,0-3.229-0.596-4.25-1.789c-1.021-1.192-1.531-3.044-1.531-5.555V15.65h3.781v9.922c0,1.615,0.233,2.722,0.702,3.32
		c0.47,0.599,1.198,0.898,2.188,0.898c0.917,0,1.685-0.164,2.305-0.492c0.62-0.328,1.105-0.805,1.461-1.43V15.651h3.797v16.906
		h-3.266L187.817,30.057z"/>
	<path d="M198.833,15.651l0.219,2.438c0.553-0.864,1.247-1.539,2.086-2.023c0.838-0.484,1.783-0.727,2.836-0.727
		c1.76,0,3.133,0.542,4.117,1.625s1.477,2.776,1.477,5.078v10.516h-3.797V22.073c0-1.312-0.256-2.245-0.766-2.797
		c-0.511-0.552-1.281-0.828-2.312-0.828c-0.812,0-1.516,0.154-2.108,0.461c-0.594,0.308-1.067,0.732-1.422,1.273v12.375h-3.797
		V15.651H198.833z"/>
	<path d="M218.379,11.542v4.109h3.031v2.812h-3.031v9.344c0,0.698,0.149,1.195,0.453,1.492c0.302,0.297,0.703,0.445,1.203,0.445
		c0.208,0,0.411-0.018,0.608-0.055c0.197-0.036,0.385-0.086,0.562-0.148l0.406,2.781c-0.323,0.177-0.706,0.315-1.148,0.414
		c-0.443,0.099-0.904,0.148-1.383,0.148c-1.396,0-2.492-0.409-3.289-1.227c-0.797-0.817-1.195-2.102-1.195-3.852v-9.344h-2.578
		v-2.812h2.578V11.54h3.782V11.542z"/>
	<path d="M234.661,32.557c-0.137-0.427-0.248-0.844-0.336-1.25c-0.09-0.406-0.148-0.812-0.18-1.219
		c-0.512,0.792-1.193,1.456-2.047,1.992c-0.854,0.536-1.809,0.805-2.859,0.805c-1.762,0-3.112-0.453-4.055-1.359
		c-0.943-0.906-1.414-2.151-1.414-3.734c0-1.635,0.646-2.909,1.938-3.82c1.291-0.911,3.109-1.367,5.453-1.367h2.953V21.12
		c0-0.885-0.258-1.578-0.773-2.078c-0.515-0.5-1.264-0.75-2.242-0.75c-0.865,0-1.553,0.206-2.062,0.617
		c-0.511,0.412-0.767,0.945-0.767,1.602l-3.655,0.016l-0.017-0.094c-0.072-1.333,0.523-2.516,1.789-3.547
		c1.266-1.031,2.914-1.547,4.945-1.547c1.969,0,3.557,0.5,4.766,1.5s1.812,2.438,1.812,4.312v7.516c0,0.698,0.047,1.367,0.141,2.008
		c0.094,0.641,0.244,1.269,0.453,1.883L234.661,32.557L234.661,32.557z M230.021,29.838c0.946,0,1.805-0.239,2.569-0.719
		c0.767-0.479,1.272-1.026,1.522-1.641v-2.5h-3.016c-1.104,0-1.969,0.273-2.594,0.82s-0.938,1.19-0.938,1.93
		c0,0.646,0.211,1.159,0.633,1.539C228.622,29.648,229.228,29.838,230.021,29.838z"/>
	<path d="M245.926,11.51h-3.797V8.182h3.797V11.51z M245.926,32.557h-3.797V15.651h3.797V32.557z"/>
	<path d="M253.614,15.651l0.219,2.438c0.552-0.864,1.247-1.539,2.086-2.023c0.838-0.484,1.783-0.727,2.836-0.727
		c1.76,0,3.133,0.542,4.117,1.625s1.477,2.776,1.477,5.078v10.516h-3.797V22.073c0-1.312-0.256-2.245-0.766-2.797
		c-0.512-0.552-1.281-0.828-2.312-0.828c-0.812,0-1.516,0.154-2.108,0.461c-0.595,0.308-1.068,0.732-1.423,1.273v12.375h-3.797
		V15.651H253.614z"/>
	<path d="M61.817,61.52v9.438H58.02v-22.75h7.828c2.531,0,4.489,0.573,5.875,1.719c1.385,1.146,2.078,2.781,2.078,4.906
		c0,1.177-0.305,2.19-0.914,3.039c-0.609,0.849-1.498,1.529-2.664,2.039c1.281,0.406,2.206,1.068,2.773,1.984
		c0.567,0.917,0.852,2.052,0.852,3.406v1.891c0,0.667,0.083,1.318,0.25,1.953c0.167,0.636,0.442,1.12,0.828,1.453v0.359H71.02
		c-0.417-0.344-0.683-0.88-0.797-1.609c-0.115-0.729-0.172-1.458-0.172-2.188v-1.828c0-1.167-0.336-2.094-1.008-2.781
		c-0.672-0.687-1.586-1.031-2.742-1.031H61.817z M61.817,58.473h3.828c1.521,0,2.63-0.292,3.328-0.875
		c0.698-0.583,1.047-1.474,1.047-2.672c0-1.146-0.344-2.044-1.031-2.695c-0.688-0.651-1.734-0.977-3.141-0.977h-4.031V58.473z"/>
	<path d="M96.145,70.957h-3.797L82.27,54.566l-0.094,0.031v16.359h-3.797v-22.75h3.797l10.078,16.391l0.094-0.031V48.207h3.797
		V70.957z"/>
	<path d="M113.051,65.645h-8.062l-1.75,5.312h-3.922l7.938-22.75h3.609l7.844,22.75h-3.922L113.051,65.645z M106.036,62.473h5.984
		l-2.922-8.969h-0.094L106.036,62.473z"/>
	<path d="M141.004,65.707h0.094l6.578-17.5h4.845v22.75h-3.797V54.613l-0.094-0.016l-6.266,16.359h-2.609l-6.375-16.672
		l-0.094,0.031v16.641h-3.797v-22.75h4.984L141.004,65.707z"/>
	<path d="M164.099,71.285c-2.47,0-4.398-0.778-5.789-2.336c-1.392-1.557-2.086-3.575-2.086-6.055V62.27
		c0-2.479,0.694-4.523,2.086-6.133c1.391-1.61,3.185-2.409,5.383-2.398c2.271,0,3.988,0.701,5.156,2.102
		c1.166,1.401,1.75,3.273,1.75,5.617v2.047h-10.453l-0.031,0.078c0.042,1.386,0.406,2.511,1.094,3.375
		c0.688,0.865,1.725,1.297,3.109,1.297c1.031,0,1.924-0.125,2.68-0.375c0.755-0.25,1.456-0.609,2.102-1.078l1.234,2.484
		c-0.646,0.562-1.5,1.037-2.562,1.422C166.709,71.093,165.483,71.285,164.099,71.285z M163.692,56.785
		c-0.99,0-1.781,0.357-2.375,1.07c-0.594,0.714-0.965,1.644-1.109,2.789l0.031,0.078h6.609v-0.297c0-1.083-0.254-1.961-0.759-2.633
		C165.585,57.121,164.786,56.785,163.692,56.785z"/>
	<path d="M180.849,71.285c-2.47,0-4.398-0.778-5.789-2.336c-1.392-1.557-2.086-3.575-2.086-6.055V62.27
		c0-2.479,0.694-4.523,2.086-6.133c1.391-1.61,3.185-2.409,5.383-2.398c2.271,0,3.988,0.701,5.156,2.102
		c1.166,1.401,1.75,3.273,1.75,5.617v2.047h-10.453l-0.031,0.078c0.042,1.386,0.406,2.511,1.094,3.375
		c0.688,0.865,1.725,1.297,3.109,1.297c1.031,0,1.924-0.125,2.68-0.375c0.755-0.25,1.456-0.609,2.102-1.078l1.234,2.484
		c-0.646,0.562-1.5,1.037-2.562,1.422C183.459,71.093,182.233,71.285,180.849,71.285z M180.442,56.785
		c-0.99,0-1.781,0.357-2.375,1.07c-0.594,0.714-0.965,1.644-1.109,2.789l0.031,0.078h6.609v-0.297c0-1.083-0.254-1.961-0.759-2.633
		C182.335,57.121,181.536,56.785,180.442,56.785z"/>
	<path d="M195.286,49.941v4.109h3.031v2.812h-3.031v9.344c0,0.698,0.15,1.195,0.453,1.492c0.302,0.297,0.703,0.445,1.203,0.445
		c0.207,0,0.41-0.018,0.608-0.055c0.197-0.036,0.386-0.086,0.562-0.148l0.406,2.781c-0.322,0.177-0.705,0.315-1.147,0.414
		c-0.442,0.099-0.904,0.148-1.384,0.148c-1.396,0-2.491-0.409-3.288-1.227c-0.798-0.817-1.195-2.102-1.195-3.852V56.86h-2.578
		v-2.812h2.578v-4.109h3.782V49.941z"/>
	<path d="M205.426,49.91h-3.797v-3.328h3.797V49.91z M205.426,70.957h-3.797V54.051h3.797V70.957z"/>
	<path d="M213.114,54.051l0.219,2.438c0.552-0.864,1.247-1.539,2.086-2.023c0.838-0.484,1.783-0.727,2.836-0.727
		c1.76,0,3.133,0.542,4.117,1.625s1.477,2.776,1.477,5.078v10.516h-3.797V60.473c0-1.312-0.256-2.245-0.766-2.797
		c-0.512-0.552-1.281-0.828-2.312-0.828c-0.812,0-1.516,0.154-2.108,0.461c-0.595,0.308-1.068,0.732-1.423,1.273v12.375h-3.797
		V54.051H213.114z"/>
	<path d="M227.208,62.738c0-2.698,0.578-4.872,1.734-6.523c1.156-1.651,2.781-2.477,4.875-2.477c1.01,0,1.897,0.216,2.664,0.648
		c0.766,0.433,1.414,1.055,1.944,1.867l0.375-2.203h3.156v16.906c0,2.177-0.672,3.859-2.017,5.047
		c-1.344,1.188-3.25,1.781-5.719,1.781c-0.822,0-1.711-0.117-2.664-0.352s-1.814-0.544-2.586-0.93l0.609-2.984
		c0.646,0.323,1.367,0.575,2.164,0.758c0.797,0.182,1.611,0.273,2.445,0.273c1.375,0,2.379-0.294,3.016-0.883
		c0.635-0.589,0.953-1.492,0.953-2.711v-1.734c-0.531,0.677-1.159,1.19-1.883,1.539c-0.726,0.349-1.555,0.523-2.492,0.523
		c-2.073,0-3.688-0.755-4.844-2.266c-1.156-1.51-1.734-3.495-1.734-5.953v-0.326H227.208z M230.989,63.066
		c0,1.562,0.302,2.808,0.906,3.734c0.604,0.927,1.557,1.391,2.858,1.391c0.812,0,1.497-0.169,2.056-0.508
		c0.557-0.338,1.008-0.825,1.352-1.461v-7.406c-0.354-0.614-0.811-1.096-1.367-1.445c-0.559-0.349-1.227-0.523-2.008-0.523
		c-1.303,0-2.262,0.544-2.875,1.633c-0.615,1.089-0.922,2.508-0.922,4.258V63.066z"/>
</g>
<g>
	<path d="M26.59,218.131c0,2.938-0.805,5.312-2.414,7.125c-1.609,1.812-3.769,2.719-6.477,2.719c-2.667,0-4.794-0.906-6.383-2.719
		s-2.383-4.188-2.383-7.125v-3.703c0-2.928,0.792-5.303,2.375-7.125c1.583-1.823,3.708-2.734,6.375-2.734
		c2.708,0,4.87,0.911,6.484,2.734c1.614,1.822,2.422,4.197,2.422,7.125L26.59,218.131L26.59,218.131z M24.731,214.396
		c0-2.458-0.623-4.438-1.867-5.938c-1.245-1.5-2.972-2.25-5.18-2.25c-2.167,0-3.854,0.75-5.062,2.25s-1.812,3.479-1.812,5.938v3.733
		c0,2.479,0.606,4.47,1.82,5.97c1.213,1.5,2.903,2.25,5.07,2.25c2.219,0,3.945-0.747,5.18-2.242
		c1.235-1.495,1.852-3.487,1.852-5.978L24.731,214.396L24.731,214.396z"/>
	<path d="M37.184,226.396c1.198,0,2.258-0.354,3.18-1.062c0.922-0.709,1.383-1.692,1.383-2.953h1.672l0.031,0.094
		c0.042,1.562-0.573,2.869-1.844,3.922s-2.745,1.578-4.422,1.578c-2.25,0-4.003-0.792-5.258-2.375
		c-1.255-1.583-1.883-3.609-1.883-6.078v-0.656c0-2.457,0.625-4.479,1.875-6.062s3-2.375,5.25-2.375
		c1.812,0,3.323,0.547,4.531,1.641c1.208,1.095,1.792,2.531,1.75,4.312l-0.031,0.095h-1.672c0-1.354-0.443-2.435-1.328-3.242
		c-0.886-0.808-1.969-1.211-3.25-1.211c-1.771,0-3.089,0.651-3.953,1.953c-0.865,1.302-1.297,2.933-1.297,4.892v0.655
		c0,1.989,0.432,3.634,1.297,4.931C34.08,225.749,35.403,226.396,37.184,226.396z"/>
	<path d="M50.387,206.413v4.328h3.719v1.53h-3.719v11.017c0,1.104,0.2,1.887,0.602,2.352c0.401,0.464,0.935,0.695,1.602,0.695
		c0.229,0,0.45-0.014,0.664-0.039c0.213-0.026,0.466-0.07,0.758-0.133l0.281,1.391c-0.25,0.125-0.56,0.227-0.93,0.305
		c-0.37,0.078-0.737,0.117-1.102,0.117c-1.188,0-2.112-0.375-2.773-1.125c-0.662-0.75-0.992-1.938-0.992-3.562v-11.016h-2.922
		v-1.531h2.922v-4.328H50.387L50.387,206.413z"/>
	<path d="M56.715,218.943c0-2.489,0.682-4.53,2.047-6.125c1.364-1.594,3.172-2.392,5.422-2.392c2.26,0,4.073,0.798,5.438,2.392
		c1.364,1.595,2.047,3.636,2.047,6.125v0.517c0,2.5-0.68,4.543-2.039,6.133c-1.359,1.589-3.164,2.383-5.414,2.383
		c-2.271,0-4.089-0.794-5.453-2.383c-1.365-1.59-2.047-3.633-2.047-6.133L56.715,218.943L56.715,218.943z M58.59,219.459
		c0,1.957,0.495,3.604,1.484,4.938c0.989,1.333,2.37,2,4.141,2c1.739,0,3.106-0.667,4.102-2c0.995-1.333,1.492-2.979,1.492-4.938
		v-0.517c0-1.927-0.5-3.562-1.5-4.905c-1-1.345-2.375-2.017-4.125-2.017s-3.12,0.672-4.109,2.017
		c-0.99,1.344-1.484,2.979-1.484,4.905L58.59,219.459L58.59,219.459z"/>
	<path d="M89.2,219.663c0,2.53-0.573,4.549-1.719,6.055c-1.146,1.505-2.724,2.258-4.734,2.258c-1.229,0-2.294-0.247-3.195-0.742
		c-0.901-0.495-1.633-1.199-2.195-2.117l-0.312,2.531h-1.469v-24.375h1.875v10.062c0.562-0.928,1.281-1.645,2.156-2.148
		s1.911-0.758,3.109-0.758c2.031,0,3.62,0.81,4.766,2.43s1.719,3.777,1.719,6.477L89.2,219.663L89.2,219.663z M87.309,219.334
		c0-2.156-0.417-3.91-1.25-5.258c-0.833-1.35-2.068-2.023-3.703-2.023c-1.292,0-2.333,0.314-3.125,0.945
		c-0.792,0.629-1.386,1.444-1.781,2.444v7.733c0.417,0.98,1.034,1.754,1.852,2.32c0.817,0.567,1.846,0.853,3.086,0.853
		c1.635,0,2.864-0.604,3.688-1.812c0.823-1.209,1.234-2.834,1.234-4.875L87.309,219.334L87.309,219.334z"/>
	<path d="M99.809,227.975c-2.188,0-3.964-0.773-5.328-2.32c-1.365-1.547-2.047-3.533-2.047-5.961v-0.859
		c0-2.438,0.69-4.447,2.07-6.03s3.091-2.375,5.133-2.375c2.052,0,3.638,0.659,4.758,1.978c1.12,1.316,1.68,3.09,1.68,5.319v1.453
		H94.309v0.516c0,1.927,0.487,3.526,1.461,4.798c0.974,1.271,2.32,1.905,4.039,1.905c1.031,0,1.979-0.169,2.844-0.508
		c0.864-0.339,1.583-0.794,2.156-1.367l0.797,1.281c-0.594,0.625-1.373,1.144-2.336,1.555
		C102.306,227.769,101.153,227.975,99.809,227.975z M99.637,212.021c-1.438,0-2.62,0.517-3.547,1.547
		c-0.927,1.031-1.469,2.339-1.625,3.923l0.047,0.094h9.688v-0.392c0-1.5-0.394-2.737-1.18-3.711
		C102.233,212.508,101.106,212.021,99.637,212.021z"/>
	<path d="M117.575,212.35l-1.328-0.094c-1.177,0-2.144,0.33-2.898,0.992c-0.755,0.66-1.294,1.569-1.617,2.727v11.672h-1.875v-16.906
		h1.641l0.234,2.811v0.189c0.489-1.043,1.146-1.855,1.969-2.439c0.823-0.582,1.802-0.875,2.938-0.875
		c0.229,0,0.448,0.02,0.656,0.056s0.38,0.075,0.516,0.117L117.575,212.35z"/>
	<path d="M136.387,227.646h-1.875v-21.142l-5.391,0.656v-1.5l7.266-1.094V227.646z"/>
	<path d="M159.763,219.616c0,2.594-0.629,4.635-1.884,6.125c-1.255,1.488-2.978,2.233-5.164,2.233s-3.917-0.747-5.188-2.242
		s-1.906-3.534-1.906-6.116v-6.689c0-2.572,0.63-4.608,1.891-6.108c1.26-1.5,2.984-2.25,5.172-2.25c2.188,0,3.914,0.75,5.18,2.25
		s1.898,3.536,1.898,6.108V219.616L159.763,219.616z M157.888,212.631c0-1.989-0.451-3.565-1.353-4.728
		c-0.901-1.161-2.185-1.741-3.853-1.741c-1.666,0-2.951,0.582-3.852,1.75c-0.901,1.166-1.352,2.738-1.352,4.719v7.266
		c0,1.969,0.456,3.544,1.367,4.727c0.911,1.184,2.2,1.773,3.867,1.773c1.656,0,2.933-0.589,3.828-1.766
		c0.896-1.178,1.344-2.756,1.344-4.734v-7.266H157.888z"/>
	<path d="M172.81,218.741h-9.22v-1.578h9.22V218.741z"/>
	<path d="M185.293,227.646h-1.875v-21.142l-5.392,0.656v-1.5l7.267-1.094V227.646z"/>
	<path d="M208.965,227.646h-13.844v-1.438l7.483-8.733c1.334-1.573,2.256-2.862,2.767-3.867c0.51-1.005,0.767-1.997,0.767-2.978
		c0-1.385-0.373-2.477-1.117-3.272c-0.746-0.797-1.848-1.194-3.306-1.194c-1.625,0-2.875,0.48-3.75,1.444s-1.312,2.194-1.312,3.694
		h-1.75l-0.031-0.094c-0.053-1.854,0.547-3.424,1.797-4.711c1.25-1.285,2.932-1.93,5.047-1.93c1.947,0,3.484,0.547,4.609,1.641
		c1.125,1.095,1.688,2.574,1.688,4.438c0,1.229-0.369,2.458-1.109,3.688c-0.739,1.229-1.827,2.719-3.266,4.469l-6.156,7.188
		l0.031,0.078h11.453L208.965,227.646L208.965,227.646z"/>
	<path d="M235.825,227.646h-15.812v-3.438l7-7.688c0.938-1.062,1.625-2.012,2.062-2.844c0.438-0.834,0.656-1.559,0.656-2.172
		c0-0.887-0.198-1.586-0.594-2.103c-0.396-0.517-1.031-0.772-1.906-0.772c-0.823,0-1.461,0.336-1.914,1.008s-0.68,1.527-0.68,2.57
		h-5.173l-0.03-0.095c-0.054-2.104,0.641-3.888,2.078-5.353c1.437-1.463,3.344-2.194,5.719-2.194c2.488,0,4.41,0.612,5.766,1.836
		c1.354,1.224,2.031,2.909,2.031,5.056c0,1.438-0.375,2.711-1.125,3.819s-2.125,2.747-4.125,4.914l-2.766,3.312l0.03,0.078h8.781
		L235.825,227.646L235.825,227.646z"/>
	<path d="M254.153,219.288c0,2.719-0.725,4.846-2.172,6.383c-1.448,1.535-3.359,2.305-5.734,2.305c-2.396,0-4.318-0.77-5.766-2.305
		c-1.448-1.537-2.172-3.664-2.172-6.383v-6.031c0-2.719,0.719-4.848,2.155-6.383c1.437-1.537,3.354-2.306,5.75-2.306
		c2.375,0,4.291,0.771,5.75,2.312c1.458,1.543,2.188,3.668,2.188,6.375V219.288L254.153,219.288z M248.888,212.896
		c0-1.386-0.238-2.442-0.712-3.172c-0.475-0.729-1.128-1.095-1.961-1.095c-0.844,0-1.495,0.365-1.952,1.095
		c-0.459,0.729-0.688,1.786-0.688,3.172v6.72c0,1.416,0.231,2.486,0.694,3.211c0.463,0.723,1.123,1.086,1.978,1.086
		c0.833,0,1.481-0.363,1.944-1.086c0.463-0.725,0.695-1.795,0.695-3.211v-6.72H248.888z"/>
	<path d="M268.606,227.646h-5.281v-18.233h-4.578v-4.031l9.859-0.812V227.646z"/>
	<path d="M282.59,223.913c0.958,0,1.744-0.379,2.359-1.134c0.614-0.755,0.922-1.8,0.922-3.133v-1.312
		c-0.511,0.625-1.104,1.097-1.781,1.414c-0.678,0.316-1.401,0.477-2.172,0.477c-2.062,0-3.687-0.695-4.867-2.086
		c-1.183-1.391-1.772-3.258-1.772-5.602c0-2.25,0.738-4.142,2.219-5.672c1.479-1.531,3.391-2.298,5.734-2.298
		c2.302,0,4.194,0.8,5.68,2.397c1.484,1.599,2.227,3.801,2.227,6.603v5.72c0,2.625-0.811,4.729-2.43,6.312
		c-1.62,1.583-3.659,2.375-6.117,2.375c-0.771,0-1.576-0.086-2.414-0.259c-0.839-0.172-1.639-0.414-2.398-0.727l0.906-3.766
		c0.666,0.238,1.297,0.414,1.892,0.523C281.17,223.855,281.84,223.913,282.59,223.913z M283.075,216.428
		c0.604,0,1.143-0.114,1.617-0.344c0.474-0.229,0.867-0.543,1.18-0.938V212.6c0-1.292-0.248-2.275-0.742-2.953
		c-0.495-0.677-1.133-1.016-1.914-1.016c-0.822,0-1.475,0.391-1.953,1.172s-0.719,1.691-0.719,2.734
		c0,1.166,0.216,2.105,0.648,2.819C281.624,216.071,282.251,216.428,283.075,216.428z"/>
	<path d="M78.442,266.045v-22.75h6.938c2.781,0,5.081,0.929,6.898,2.781c1.817,1.855,2.727,4.234,2.727,7.141v2.923
		c0,2.905-0.909,5.284-2.727,7.133c-1.818,1.851-4.117,2.772-6.898,2.772H78.442L78.442,266.045z M80.317,244.89v19.577h5.062
		c2.25,0,4.104-0.784,5.562-2.358c1.458-1.571,2.188-3.562,2.188-5.969v-2.97c0-2.375-0.732-4.348-2.195-5.922
		c-1.464-1.572-3.315-2.358-5.555-2.358H80.317z"/>
	<path d="M105.958,266.374c-2.188,0-3.964-0.772-5.328-2.319c-1.365-1.548-2.047-3.533-2.047-5.962v-0.858
		c0-2.438,0.69-4.446,2.07-6.03c1.38-1.582,3.091-2.375,5.133-2.375c2.052,0,3.638,0.659,4.758,1.977
		c1.12,1.318,1.68,3.092,1.68,5.32v1.453h-11.766v0.516c0,1.928,0.487,3.527,1.461,4.797c0.974,1.271,2.32,1.906,4.039,1.906
		c1.031,0,1.979-0.168,2.844-0.508c0.864-0.338,1.583-0.793,2.156-1.367l0.797,1.281c-0.594,0.625-1.373,1.145-2.336,1.555
		C108.455,266.168,107.301,266.374,105.958,266.374z M105.786,250.42c-1.438,0-2.62,0.517-3.547,1.547
		c-0.927,1.031-1.469,2.341-1.625,3.923l0.047,0.094h9.688v-0.392c0-1.5-0.394-2.735-1.18-3.711
		C108.382,250.909,107.254,250.42,105.786,250.42z"/>
	<path d="M117.661,249.14l0.172,2.938c0.552-1.031,1.286-1.83,2.203-2.398c0.917-0.566,2.005-0.852,3.266-0.852
		c1.833,0,3.229,0.561,4.188,1.68c0.958,1.121,1.438,2.867,1.438,5.242v10.297h-1.875v-10.281c0-1.938-0.362-3.307-1.086-4.109
		c-0.724-0.801-1.753-1.203-3.086-1.203s-2.409,0.328-3.227,0.984c-0.818,0.656-1.409,1.537-1.773,2.641v11.969h-1.875V249.14
		H117.661z"/>
	<path d="M138.629,261.812l0.547,1.983h0.094l0.594-1.983l4.594-12.672h1.938l-6.422,16.905h-1.5l-6.438-16.905h1.938
		L138.629,261.812z"/>
	<path d="M155.692,266.374c-2.188,0-3.965-0.772-5.328-2.319c-1.365-1.548-2.047-3.533-2.047-5.962v-0.858
		c0-2.438,0.69-4.446,2.071-6.03c1.379-1.582,3.09-2.375,5.133-2.375c2.051,0,3.638,0.659,4.758,1.977
		c1.119,1.318,1.68,3.092,1.68,5.32v1.453h-11.766v0.516c0,1.928,0.487,3.527,1.461,4.797c0.974,1.271,2.32,1.906,4.039,1.906
		c1.031,0,1.979-0.168,2.844-0.508c0.863-0.338,1.583-0.793,2.156-1.367l0.797,1.281c-0.594,0.625-1.373,1.145-2.336,1.555
		C158.188,266.168,157.036,266.374,155.692,266.374z M155.521,250.42c-1.438,0-2.621,0.517-3.547,1.547
		c-0.928,1.031-1.47,2.341-1.625,3.923l0.047,0.094h9.688v-0.392c0-1.5-0.395-2.735-1.18-3.711
		C158.116,250.909,156.989,250.42,155.521,250.42z"/>
	<path d="M173.458,250.749l-1.328-0.094c-1.177,0-2.145,0.332-2.898,0.992c-0.754,0.662-1.293,1.57-1.616,2.727v11.672h-1.875
		V249.14h1.641l0.234,2.812v0.188c0.489-1.041,1.146-1.854,1.969-2.438c0.823-0.582,1.802-0.875,2.938-0.875
		c0.229,0,0.447,0.021,0.656,0.055c0.207,0.037,0.379,0.076,0.516,0.117L173.458,250.749z"/>
	<path d="M200.551,258.937l0.031,0.095c0.041,2.229-0.688,4.012-2.188,5.344c-1.5,1.334-3.469,2-5.906,2
		c-2.53,0-4.572-0.914-6.125-2.742c-1.551-1.828-2.327-4.195-2.327-7.102v-3.703c0-2.896,0.776-5.263,2.327-7.103
		c1.553-1.838,3.595-2.759,6.125-2.759c2.47,0,4.445,0.652,5.931,1.953c1.483,1.304,2.205,3.095,2.164,5.375l-0.031,0.095h-1.75
		c0-1.832-0.562-3.263-1.68-4.289c-1.12-1.024-2.664-1.539-4.634-1.539c-1.989,0-3.586,0.771-4.788,2.312
		c-1.203,1.543-1.806,3.517-1.806,5.922v3.734c0,2.438,0.603,4.426,1.806,5.961c1.202,1.537,2.799,2.305,4.788,2.305
		c1.97,0,3.514-0.5,4.634-1.5c1.119-1,1.68-2.453,1.68-4.358H200.551L200.551,258.937z"/>
	<path d="M222.083,256.53c0,2.938-0.805,5.312-2.414,7.125s-3.77,2.719-6.477,2.719c-2.668,0-4.795-0.906-6.383-2.719
		c-1.59-1.812-2.384-4.188-2.384-7.125v-3.703c0-2.926,0.791-5.301,2.375-7.125c1.583-1.822,3.708-2.734,6.375-2.734
		c2.708,0,4.869,0.912,6.484,2.734c1.614,1.824,2.422,4.199,2.422,7.125L222.083,256.53L222.083,256.53z M220.224,252.795
		c0-2.457-0.623-4.438-1.867-5.938c-1.246-1.5-2.973-2.25-5.181-2.25c-2.167,0-3.854,0.75-5.062,2.25
		c-1.209,1.5-1.812,3.48-1.812,5.938v3.734c0,2.48,0.606,4.469,1.82,5.969c1.213,1.5,2.902,2.25,5.07,2.25
		c2.219,0,3.945-0.746,5.18-2.242c1.234-1.493,1.852-3.485,1.852-5.977V252.795L220.224,252.795z"/>
</g>
<g>
	<polygon fill="none" stroke="#010101" stroke-width="3.9" stroke-miterlimit="10" points="199.173,108.596 248.187,80.3 
		297.199,108.596 297.199,165.19 248.187,193.489 199.173,165.19 	"/>
	<polygon fill="none" stroke="#010101" stroke-width="3.9" stroke-miterlimit="10" points="2.356,108.596 51.37,80.3 
		100.38,108.596 100.38,165.19 51.37,193.489 2.356,165.19 	"/>
	<path fill="none" stroke="#010101" stroke-width="3" stroke-miterlimit="10" d="M15.453,143.088l3.001,3.103l12.5,0.06
		c0.845-1.271,2.29-2.103,3.931-2.103c1.691,0,3.178,0.892,4.012,2.229l12.628,0.1c0.896-2.887,3.2-5.152,6.107-5.998l0.01-12.436
		c-0.644-0.646-1.046-1.54-1.046-2.527c0-1.971,1.598-3.569,3.568-3.569l0.26,0.013l10.656-10.919
		c-0.013-0.131-0.019-0.265-0.019-0.4c0-2.167,1.756-3.923,3.923-3.923s3.922,1.755,3.922,3.923c0,2.166-1.756,3.923-3.922,3.923
		c-0.039,0,0,0,0,0l-11.255,10.733c0.005,0.072,0.006,0.147,0.006,0.221c0,0.96-0.379,1.831-0.994,2.475L62.7,140.476
		c3.764,1.094,6.515,4.569,6.515,8.688c0,1.545-0.386,2.998-1.069,4.271l0.144,0.162l5.815,6.061c1.715,0.156,3.059,1.6,3.059,3.354
		c0,1.858-1.507,3.366-3.365,3.366c-1.806,0-3.276-1.422-3.363-3.203l-6.087-5.987c-1.25,0.653-2.672,1.022-4.182,1.022
		c-4.2,0-7.733-2.864-8.751-6.746l-12.608,0.052c-0.85,1.256-2.288,2.08-3.918,2.08c-1.64,0-3.083-0.83-3.93-2.099l-17.531,0.055"/>
	<polygon fill="none" stroke="#010101" stroke-width="3.9" stroke-miterlimit="10" points="100.766,108.596 149.778,80.3 
		198.792,108.596 198.792,165.19 149.776,193.489 100.764,165.19 	"/>
	<rect x="206.183" y="143.194" fill="#010101" stroke="#010101" stroke-miterlimit="10" width="1.66" height="7.961"/>
	<rect x="235.706" y="143.823" fill="#010101" stroke="#010101" stroke-miterlimit="10" width="1.354" height="7.332"/>
	<rect x="233.575" y="140.292" fill="#010101" stroke="#010101" stroke-miterlimit="10" width="1.66" height="10.863"/>
	<rect x="231.597" y="137.276" fill="#010101" stroke="#010101" stroke-miterlimit="10" width="1.658" height="13.879"/>
	<rect x="229.616" y="139.245" fill="#010101" stroke="#010101" stroke-miterlimit="10" width="1.66" height="11.91"/>
	<rect x="227.635" y="136.491" fill="#010101" stroke="#010101" stroke-miterlimit="10" width="1.66" height="14.664"/>
	<rect x="225.657" y="138.204" fill="#010101" stroke="#010101" stroke-miterlimit="10" width="1.662" height="12.951"/>
	<rect x="223.679" y="140.793" fill="#010101" stroke="#010101" stroke-miterlimit="10" width="1.657" height="10.361"/>
	<rect x="221.7" y="137.04" fill="#010101" stroke="#010101" stroke-miterlimit="10" width="1.658" height="14.115"/>
	<rect x="219.718" y="139.245" fill="#010101" stroke="#010101" stroke-miterlimit="10" width="1.659" height="11.91"/>
	<rect x="217.74" y="143.194" fill="#010101" stroke="#010101" stroke-miterlimit="10" width="1.659" height="7.961"/>
	<rect x="215.763" y="140.401" fill="#010101" stroke="#010101" stroke-miterlimit="10" width="1.657" height="10.754"/>
	<rect x="213.781" y="138.872" fill="#010101" stroke="#010101" stroke-miterlimit="10" width="1.659" height="12.283"/>
	<rect x="211.8" y="141.606" fill="#010101" stroke="#010101" stroke-miterlimit="10" width="1.662" height="9.549"/>
	<rect x="209.821" y="141.202" fill="#010101" stroke="#010101" stroke-miterlimit="10" width="1.66" height="9.953"/>
	<rect x="207.843" y="139.245" fill="#010101" stroke="#010101" stroke-miterlimit="10" width="1.66" height="11.91"/>
	<rect x="267.071" y="143.194" fill="#010101" stroke="#010101" stroke-miterlimit="10" width="1.66" height="7.961"/>
	<rect x="249.2" y="138.204" fill="#010101" stroke="#010101" stroke-miterlimit="10" width="1.354" height="12.559"/>
	<rect x="247.222" y="139.899" fill="#010101" stroke="#010101" stroke-miterlimit="10" width="1.66" height="10.863"/>
	<rect x="245.399" y="136.884" fill="#010101" stroke="#010101" stroke-miterlimit="10" width="1.66" height="13.879"/>
	<rect x="243.576" y="140.793" fill="#010101" stroke="#010101" stroke-miterlimit="10" width="1.659" height="9.97"/>
	<rect x="288.847" y="143.823" fill="#010101" stroke="#010101" stroke-miterlimit="10" width="1.659" height="7.332"/>
	<rect x="286.866" y="138.204" fill="#010101" stroke="#010101" stroke-miterlimit="10" width="1.66" height="12.951"/>
	<rect x="284.886" y="140.292" fill="#010101" stroke="#010101" stroke-miterlimit="10" width="1.661" height="10.863"/>
	<rect x="282.906" y="141.606" fill="#010101" stroke="#010101" stroke-miterlimit="10" width="1.659" height="9.549"/>
	<rect x="280.927" y="139.245" fill="#010101" stroke="#010101" stroke-miterlimit="10" width="1.661" height="11.91"/>
	<rect x="278.946" y="143.194" fill="#010101" stroke="#010101" stroke-miterlimit="10" width="1.662" height="7.961"/>
	<rect x="276.968" y="140.401" fill="#010101" stroke="#010101" stroke-miterlimit="10" width="1.658" height="10.754"/>
	<rect x="274.99" y="141.606" fill="#010101" stroke="#010101" stroke-miterlimit="10" width="1.661" height="9.549"/>
	<rect x="273.007" y="138.872" fill="#010101" stroke="#010101" stroke-miterlimit="10" width="1.662" height="12.283"/>
	<rect x="271.033" y="137.04" fill="#010101" stroke="#010101" stroke-miterlimit="10" width="1.659" height="14.115"/>
	<rect x="269.05" y="139.245" fill="#010101" stroke="#010101" stroke-miterlimit="10" width="1.662" height="11.91"/>
	<rect x="251.022" y="143.431" fill="#010101" stroke="#010101" stroke-miterlimit="10" width="1.353" height="7.332"/>
	<rect x="205.865" y="150.659" fill="#010101" width="84.642" height="0.99"/>
	<g>
		<rect x="217.584" y="121.894" fill="#010101" stroke="#010101" stroke-miterlimit="10" width="19.476" height="4.491"/>
		<rect x="243.576" y="121.894" fill="#010101" stroke="#010101" stroke-miterlimit="10" width="9.286" height="4.491"/>
		<rect x="267.071" y="121.894" fill="#010101" stroke="#010101" stroke-miterlimit="10" width="17.875" height="4.491"/>
		<rect x="237.06" y="123.646" fill="#010101" width="6.517" height="0.988"/>
		<rect x="252.865" y="123.646" fill="#010101" width="14.206" height="0.988"/>
		<rect x="205.865" y="123.311" fill="#010101" stroke="#010101" stroke-miterlimit="10" width="11.556" height="1.66"/>
		<rect x="284.946" y="123.31" fill="#010101" stroke="#010101" stroke-miterlimit="10" width="5.556" height="1.661"/>
	</g>
	<g>
		<path fill="none" stroke="#010101" stroke-width="3" stroke-miterlimit="10" d="M136.634,146.297"/>
		<polyline fill="none" stroke="#010101" stroke-width="3" stroke-miterlimit="10" points="136.634,146.297 164.745,108.324 
			192.856,146.297 		"/>
		<polyline fill="none" stroke="#010101" stroke-width="3" stroke-miterlimit="10" points="106.487,153.479 131.097,125.509 
			142.033,137.938 		"/>
		<polyline fill="none" stroke="#010101" stroke-width="3" stroke-miterlimit="10" points="141.856,163.122 166.466,135.15 
			177.401,147.579 		"/>
		<polyline fill="none" stroke="#010101" stroke-width="3" stroke-linecap="square" stroke-miterlimit="10" points="
			164.603,121.475 159.54,127.594 156.772,120.149 		"/>
		<path fill="none" stroke="#010101" stroke-width="3" stroke-miterlimit="10" d="M161.007,135.069"/>
		<path fill="none" stroke="#010101" stroke-width="3" stroke-miterlimit="10" d="M138.732,131.298"/>
		<polyline fill="none" stroke="#010101" stroke-width="3" stroke-linecap="square" stroke-miterlimit="10" points="
			172.308,119.178 170.588,126.932 164.733,121.566 		"/>
		<polyline fill="none" stroke="#010101" stroke-width="3" stroke-linecap="square" stroke-miterlimit="10" points="
			130.547,136.331 125.581,142.333 122.868,135.031 		"/>
		<polyline fill="none" stroke="#010101" stroke-width="3" stroke-linecap="square" stroke-miterlimit="10" points="
			138.104,134.078 136.418,141.683 130.675,136.421 		"/>
	</g>
</g>
<g>
	
		<text transform="matrix(0.8621 -0.5067 0.5067 0.8621 156.2236 198.2798)" fill="#231F20" font-family="'Roboto-Thin'" font-size="5">Logo by Mandy Richer</text>
</g>
</svg>
