<?xml version="1.0" encoding="utf-8"?>
<!-- Generator: Adobe Illustrator 16.0.4, SVG Export Plug-In . SVG Version: 6.00 Build 0)  -->
<!DOCTYPE svg PUBLIC "-//W3C//DTD SVG 1.1//EN" "http://www.w3.org/Graphics/SVG/1.1/DTD/svg11.dtd">
<svg version="1.1" id="Layer_1" xmlns="http://www.w3.org/2000/svg" xmlns:xlink="http://www.w3.org/1999/xlink" x="0px" y="0px"
	 width="472.48px" height="256.875px" viewBox="0 8.756 472.48 256.875" enable-background="new 0 8.756 472.48 256.875"
	 xml:space="preserve">
<g>
	<path fill="#FFFFFF" d="M27.35,23.693v9.438h-3.797v-22.75h7.828c2.531,0,4.489,0.573,5.875,1.719
		c1.385,1.146,2.078,2.781,2.078,4.906c0,1.177-0.305,2.19-0.914,3.039s-1.498,1.529-2.664,2.039
		c1.281,0.406,2.206,1.068,2.773,1.984c0.567,0.917,0.852,2.052,0.852,3.406v1.891c0,0.667,0.083,1.318,0.25,1.953
		c0.167,0.636,0.442,1.12,0.828,1.453v0.359h-3.906c-0.417-0.344-0.683-0.88-0.797-1.609c-0.115-0.729-0.172-1.458-0.172-2.188
		v-1.828c0-1.167-0.336-2.094-1.008-2.781c-0.672-0.687-1.586-1.031-2.742-1.031H27.35z M27.35,20.646h3.828
		c1.521,0,2.63-0.292,3.328-0.875c0.698-0.583,1.047-1.474,1.047-2.672c0-1.146-0.344-2.044-1.031-2.695
		c-0.688-0.651-1.734-0.977-3.141-0.977H27.35V20.646z"/>
	<path fill="#FFFFFF" d="M42.818,24.521c0-2.521,0.69-4.586,2.07-6.195c1.38-1.609,3.268-2.414,5.664-2.414
		c2.427,0,4.331,0.805,5.711,2.414c1.38,1.609,2.07,3.675,2.07,6.195v0.328c0,2.542-0.69,4.612-2.07,6.211
		c-1.38,1.599-3.273,2.398-5.68,2.398c-2.417,0-4.315-0.802-5.695-2.406c-1.38-1.604-2.07-3.672-2.07-6.203V24.521z M46.615,24.85
		c0,1.656,0.323,3,0.969,4.031c0.646,1.031,1.646,1.547,3,1.547c1.323,0,2.315-0.518,2.977-1.555
		c0.661-1.036,0.992-2.377,0.992-4.023v-0.328c0-1.614-0.331-2.945-0.992-3.992c-0.662-1.047-1.664-1.57-3.008-1.57
		c-1.323,0-2.31,0.523-2.961,1.57c-0.651,1.047-0.977,2.378-0.977,3.992V24.85z"/>
	<path fill="#FFFFFF" d="M68.537,30.428c0.864,0,1.596-0.271,2.195-0.812c0.599-0.542,0.898-1.229,0.898-2.062h3.438l0.031,0.094
		c0.042,1.583-0.586,2.948-1.883,4.094c-1.297,1.146-2.857,1.719-4.68,1.719c-2.438,0-4.318-0.805-5.641-2.414
		c-1.323-1.609-1.984-3.638-1.984-6.086v-0.547c0-2.438,0.661-4.463,1.984-6.078c1.323-1.614,3.198-2.422,5.625-2.422
		c1.969,0,3.567,0.591,4.797,1.773c1.229,1.183,1.823,2.685,1.781,4.508l-0.031,0.094h-3.438c0-0.927-0.287-1.713-0.859-2.359
		c-0.573-0.646-1.323-0.969-2.25-0.969c-1.354,0-2.328,0.523-2.922,1.57c-0.594,1.047-0.891,2.341-0.891,3.883v0.547
		c0,1.573,0.294,2.878,0.883,3.914C66.18,29.91,67.162,30.428,68.537,30.428z"/>
	<path fill="#FFFFFF" d="M83.49,25.74h-1.406v7.391h-3.781V8.756h3.781v13.938h1.297l4.578-6.469h4.453l-5.797,7.781l6.438,9.125
		h-4.422L83.49,25.74z"/>
	<path fill="#FFFFFF" d="M100.646,26.35l0.375,1.688h0.094l3.703-11.812h4.156l-7,19.469c-0.448,1.177-1.078,2.182-1.891,3.016
		c-0.812,0.833-1.964,1.25-3.453,1.25c-0.312,0-0.648-0.031-1.008-0.094s-0.706-0.136-1.039-0.219l0.422-2.938
		c0.135,0.01,0.328,0.026,0.578,0.047s0.438,0.031,0.562,0.031c0.688,0,1.237-0.234,1.648-0.703
		c0.411-0.469,0.747-1.011,1.008-1.625l0.625-1.531l-6.141-16.703h4.141L100.646,26.35z"/>
	<path fill="#FFFFFF" d="M131.131,27.881h0.094l6.578-17.5h4.844v22.75h-3.797V16.787l-0.094-0.016L132.49,33.13h-2.609
		l-6.375-16.672l-0.094,0.031V33.13h-3.797V10.381h4.984L131.131,27.881z"/>
	<path fill="#FFFFFF" d="M146.35,24.521c0-2.521,0.69-4.586,2.07-6.195c1.38-1.609,3.268-2.414,5.664-2.414
		c2.427,0,4.331,0.805,5.711,2.414c1.38,1.609,2.07,3.675,2.07,6.195v0.328c0,2.542-0.69,4.612-2.07,6.211s-3.273,2.398-5.68,2.398
		c-2.417,0-4.315-0.802-5.695-2.406c-1.38-1.604-2.07-3.672-2.07-6.203V24.521z M150.146,24.85c0,1.656,0.323,3,0.969,4.031
		c0.646,1.031,1.646,1.547,3,1.547c1.323,0,2.315-0.518,2.977-1.555c0.661-1.036,0.992-2.377,0.992-4.023v-0.328
		c0-1.614-0.331-2.945-0.992-3.992c-0.662-1.047-1.664-1.57-3.008-1.57c-1.323,0-2.31,0.523-2.961,1.57
		c-0.651,1.047-0.977,2.378-0.977,3.992V24.85z"/>
	<path fill="#FFFFFF" d="M175.725,30.631c-0.521,0.906-1.19,1.604-2.008,2.094c-0.818,0.489-1.763,0.734-2.836,0.734
		c-1.812,0-3.229-0.596-4.25-1.789c-1.021-1.192-1.531-3.044-1.531-5.555v-9.891h3.781v9.922c0,1.615,0.234,2.722,0.703,3.32
		c0.469,0.599,1.198,0.898,2.188,0.898c0.917,0,1.685-0.164,2.305-0.492c0.62-0.328,1.106-0.805,1.461-1.43V16.225h3.797v16.906
		h-3.266L175.725,30.631z"/>
	<path fill="#FFFFFF" d="M186.74,16.225l0.219,2.438c0.552-0.864,1.247-1.539,2.086-2.023c0.838-0.484,1.784-0.727,2.836-0.727
		c1.76,0,3.133,0.542,4.117,1.625s1.477,2.776,1.477,5.078v10.516h-3.797V22.646c0-1.312-0.255-2.245-0.766-2.797
		c-0.511-0.552-1.281-0.828-2.312-0.828c-0.812,0-1.516,0.154-2.109,0.461c-0.594,0.308-1.068,0.732-1.422,1.273V33.13h-3.797
		V16.225H186.74z"/>
	<path fill="#FFFFFF" d="M206.287,12.115v4.109h3.031v2.812h-3.031v9.344c0,0.698,0.151,1.195,0.453,1.492
		c0.302,0.297,0.703,0.445,1.203,0.445c0.208,0,0.411-0.018,0.609-0.055c0.198-0.036,0.385-0.086,0.562-0.148l0.406,2.781
		c-0.323,0.177-0.706,0.315-1.148,0.414c-0.443,0.099-0.904,0.148-1.383,0.148c-1.396,0-2.492-0.409-3.289-1.227
		c-0.797-0.817-1.195-2.102-1.195-3.852v-9.344h-2.578v-2.812h2.578v-4.107H206.287z"/>
	<path fill="#FFFFFF" d="M222.568,33.131c-0.135-0.427-0.248-0.844-0.336-1.25c-0.088-0.406-0.148-0.812-0.18-1.219
		c-0.51,0.792-1.193,1.456-2.047,1.992c-0.854,0.536-1.807,0.805-2.859,0.805c-1.76,0-3.111-0.453-4.055-1.359
		c-0.942-0.906-1.414-2.151-1.414-3.734c0-1.635,0.646-2.909,1.937-3.82c1.291-0.911,3.109-1.367,5.453-1.367h2.953v-1.484
		c0-0.885-0.258-1.578-0.773-2.078s-1.264-0.75-2.242-0.75c-0.865,0-1.553,0.206-2.062,0.617c-0.51,0.412-0.766,0.945-0.766,1.602
		l-3.656,0.016l-0.016-0.094c-0.072-1.333,0.523-2.516,1.789-3.547c1.266-1.031,2.914-1.547,4.945-1.547
		c1.969,0,3.557,0.5,4.766,1.5s1.812,2.438,1.812,4.312v7.516c0,0.698,0.047,1.367,0.141,2.008c0.094,0.641,0.244,1.269,0.453,1.883
		h-3.843V33.131z M217.927,30.412c0.947,0,1.805-0.239,2.57-0.719c0.766-0.479,1.273-1.026,1.523-1.641v-2.5h-3.016
		c-1.104,0-1.969,0.273-2.594,0.82s-0.938,1.19-0.938,1.93c0,0.646,0.211,1.159,0.633,1.539
		C216.529,30.222,217.136,30.412,217.927,30.412z"/>
	<path fill="#FFFFFF" d="M233.833,12.084h-3.797V8.756h3.797V12.084z M233.833,33.131h-3.797V16.225h3.797V33.131z"/>
	<path fill="#FFFFFF" d="M241.521,16.225l0.219,2.438c0.552-0.864,1.246-1.539,2.085-2.023c0.838-0.484,1.782-0.727,2.836-0.727
		c1.76,0,3.133,0.542,4.116,1.625c0.984,1.083,1.478,2.776,1.478,5.078v10.516h-3.797V22.646c0-1.312-0.256-2.245-0.767-2.797
		c-0.51-0.552-1.28-0.828-2.312-0.828c-0.812,0-1.517,0.154-2.108,0.461c-0.594,0.308-1.068,0.732-1.422,1.273V33.13h-3.797V16.225
		H241.521z"/>
	<path fill="#FFFFFF" d="M268.364,23.693v9.438h-3.798v-22.75h7.828c2.531,0,4.49,0.573,5.875,1.719
		c1.386,1.146,2.078,2.781,2.078,4.906c0,1.177-0.305,2.19-0.914,3.039c-0.608,0.849-1.498,1.529-2.664,2.039
		c1.281,0.406,2.205,1.068,2.773,1.984c0.568,0.917,0.852,2.052,0.852,3.406v1.891c0,0.667,0.084,1.318,0.25,1.953
		c0.166,0.636,0.443,1.12,0.828,1.453v0.359h-3.906c-0.416-0.344-0.682-0.88-0.797-1.609c-0.114-0.729-0.172-1.458-0.172-2.188
		v-1.828c0-1.167-0.336-2.094-1.008-2.781s-1.586-1.031-2.742-1.031H268.364z M268.364,20.646h3.827
		c1.521,0,2.632-0.292,3.328-0.875c0.697-0.583,1.047-1.474,1.047-2.672c0-1.146-0.344-2.044-1.03-2.695
		c-0.688-0.651-1.734-0.977-3.142-0.977h-4.03V20.646z"/>
	<path fill="#FFFFFF" d="M302.691,33.131h-3.797L288.816,16.74l-0.094,0.031V33.13h-3.797V10.381h3.797l10.078,16.391l0.094-0.031
		v-16.36h3.797V33.131z"/>
	<path fill="#FFFFFF" d="M319.6,27.818h-8.062l-1.75,5.312h-3.922l7.938-22.75h3.609l7.844,22.75h-3.922L319.6,27.818z
		 M312.583,24.646h5.983l-2.922-8.969h-0.094L312.583,24.646z"/>
	<path fill="#FFFFFF" d="M347.552,27.881h0.095l6.578-17.5h4.844v22.75h-3.797V16.787l-0.095-0.016l-6.266,16.359h-2.609
		l-6.375-16.672l-0.094,0.031V33.13h-3.797V10.381h4.983L347.552,27.881z"/>
	<path fill="#FFFFFF" d="M370.646,33.459c-2.47,0-4.398-0.778-5.789-2.336c-1.392-1.557-2.086-3.575-2.086-6.055v-0.625
		c0-2.479,0.694-4.523,2.086-6.133c1.391-1.61,3.186-2.409,5.383-2.398c2.271,0,3.99,0.701,5.156,2.102
		c1.166,1.401,1.75,3.273,1.75,5.617v2.047h-10.453l-0.031,0.078c0.041,1.386,0.406,2.511,1.094,3.375
		c0.688,0.865,1.725,1.297,3.109,1.297c1.031,0,1.924-0.125,2.68-0.375s1.455-0.609,2.102-1.078l1.234,2.484
		c-0.646,0.562-1.5,1.037-2.562,1.422C373.257,33.266,372.029,33.459,370.646,33.459z M370.239,18.959
		c-0.99,0-1.781,0.357-2.375,1.07c-0.595,0.714-0.964,1.644-1.109,2.789l0.031,0.078h6.608V22.6c0-1.083-0.252-1.961-0.758-2.633
		C372.131,19.295,371.333,18.959,370.239,18.959z"/>
	<path fill="#FFFFFF" d="M387.396,33.459c-2.47,0-4.398-0.778-5.789-2.336c-1.392-1.557-2.086-3.575-2.086-6.055v-0.625
		c0-2.479,0.694-4.523,2.086-6.133c1.391-1.61,3.186-2.409,5.383-2.398c2.271,0,3.99,0.701,5.156,2.102
		c1.166,1.401,1.75,3.273,1.75,5.617v2.047h-10.453l-0.031,0.078c0.041,1.386,0.406,2.511,1.094,3.375
		c0.688,0.865,1.725,1.297,3.109,1.297c1.031,0,1.924-0.125,2.68-0.375s1.455-0.609,2.102-1.078l1.234,2.484
		c-0.646,0.562-1.5,1.037-2.562,1.422C390.007,33.266,388.779,33.459,387.396,33.459z M386.989,18.959
		c-0.99,0-1.781,0.357-2.375,1.07c-0.595,0.714-0.964,1.644-1.109,2.789l0.031,0.078h6.608V22.6c0-1.083-0.252-1.961-0.758-2.633
		C388.881,19.295,388.083,18.959,386.989,18.959z"/>
	<path fill="#FFFFFF" d="M401.833,12.115v4.109h3.031v2.812h-3.031v9.344c0,0.698,0.15,1.195,0.453,1.492s0.703,0.445,1.203,0.445
		c0.209,0,0.412-0.018,0.608-0.055c0.197-0.036,0.386-0.086,0.562-0.148l0.406,2.781c-0.322,0.177-0.705,0.315-1.148,0.414
		s-0.904,0.148-1.383,0.148c-1.396,0-2.492-0.409-3.289-1.227c-0.797-0.817-1.195-2.102-1.195-3.852v-9.344h-2.578v-2.812h2.578
		v-4.107H401.833z"/>
	<path fill="#FFFFFF" d="M411.974,12.084h-3.797V8.756h3.797V12.084z M411.974,33.131h-3.797V16.225h3.797V33.131z"/>
	<path fill="#FFFFFF" d="M419.661,16.225l0.219,2.438c0.553-0.864,1.248-1.539,2.086-2.023s1.783-0.727,2.836-0.727
		c1.761,0,3.133,0.542,4.117,1.625s1.478,2.776,1.478,5.078v10.516h-3.798V22.646c0-1.312-0.256-2.245-0.766-2.797
		c-0.51-0.552-1.281-0.828-2.312-0.828c-0.812,0-1.517,0.154-2.109,0.461c-0.594,0.308-1.068,0.732-1.422,1.273V33.13h-3.797V16.225
		H419.661z"/>
	<path fill="#FFFFFF" d="M433.755,24.912c0-2.698,0.578-4.872,1.734-6.523c1.155-1.651,2.78-2.477,4.875-2.477
		c1.01,0,1.897,0.216,2.664,0.648c0.766,0.433,1.414,1.055,1.944,1.867l0.375-2.203h3.156V33.13c0,2.177-0.672,3.859-2.016,5.047
		c-1.344,1.188-3.25,1.781-5.719,1.781c-0.822,0-1.712-0.117-2.664-0.352c-0.953-0.235-1.814-0.544-2.586-0.93l0.608-2.984
		c0.646,0.323,1.367,0.575,2.164,0.758c0.797,0.182,1.611,0.273,2.445,0.273c1.375,0,2.381-0.294,3.016-0.883
		c0.635-0.589,0.953-1.492,0.953-2.711v-1.734c-0.531,0.677-1.158,1.19-1.883,1.539c-0.726,0.349-1.556,0.523-2.492,0.523
		c-2.072,0-3.688-0.755-4.844-2.266c-1.156-1.51-1.734-3.495-1.734-5.953v-0.326H433.755z M437.536,25.24
		c0,1.562,0.303,2.808,0.906,3.734c0.604,0.927,1.557,1.391,2.858,1.391c0.812,0,1.498-0.169,2.056-0.508
		c0.557-0.338,1.008-0.825,1.352-1.461V20.99c-0.354-0.614-0.811-1.096-1.367-1.445s-1.227-0.523-2.008-0.523
		c-1.303,0-2.26,0.544-2.875,1.633c-0.615,1.089-0.922,2.508-0.922,4.258V25.24z"/>
</g>
<g>
	<path fill="#FFFFFF" d="M26.889,256.116c0,2.938-0.805,5.311-2.414,7.125c-1.609,1.812-3.769,2.719-6.477,2.719
		c-2.667,0-4.794-0.906-6.383-2.719c-1.589-1.812-2.383-4.189-2.383-7.125v-3.703c0-2.928,0.792-5.303,2.375-7.125
		c1.583-1.824,3.708-2.734,6.375-2.734c2.708,0,4.87,0.91,6.484,2.734c1.614,1.822,2.422,4.197,2.422,7.125L26.889,256.116
		L26.889,256.116z M25.029,252.381c0-2.459-0.623-4.438-1.867-5.938c-1.245-1.5-2.972-2.25-5.18-2.25
		c-2.167,0-3.854,0.75-5.062,2.25s-1.812,3.479-1.812,5.938v3.734c0,2.479,0.606,4.469,1.82,5.969c1.213,1.5,2.903,2.25,5.07,2.25
		c2.219,0,3.945-0.748,5.18-2.242c1.235-1.495,1.852-3.487,1.852-5.977L25.029,252.381L25.029,252.381z"/>
	<path fill="#FFFFFF" d="M37.482,264.381c1.198,0,2.258-0.354,3.18-1.062s1.383-1.691,1.383-2.953h1.672l0.031,0.094
		c0.042,1.562-0.573,2.871-1.844,3.922c-1.271,1.053-2.745,1.578-4.422,1.578c-2.25,0-4.003-0.791-5.258-2.375
		c-1.255-1.582-1.883-3.608-1.883-6.078v-0.655c0-2.458,0.625-4.479,1.875-6.062c1.25-1.584,3-2.375,5.25-2.375
		c1.812,0,3.323,0.547,4.531,1.641s1.792,2.531,1.75,4.312l-0.031,0.094h-1.672c0-1.354-0.443-2.436-1.328-3.242
		c-0.886-0.809-1.969-1.211-3.25-1.211c-1.771,0-3.089,0.65-3.953,1.953c-0.865,1.302-1.297,2.933-1.297,4.891v0.656
		c0,1.988,0.432,3.633,1.297,4.93C34.378,263.732,35.701,264.381,37.482,264.381z"/>
	<path fill="#FFFFFF" d="M50.686,244.396v4.328h3.719v1.53h-3.719v11.017c0,1.104,0.2,1.888,0.602,2.353
		c0.401,0.463,0.935,0.694,1.602,0.694c0.229,0,0.45-0.013,0.664-0.039c0.213-0.026,0.466-0.069,0.758-0.133l0.281,1.392
		c-0.25,0.125-0.56,0.227-0.93,0.305s-0.737,0.117-1.102,0.117c-1.188,0-2.112-0.375-2.773-1.125
		c-0.662-0.75-0.992-1.938-0.992-3.562v-11.016h-2.922v-1.531h2.922v-4.328L50.686,244.396L50.686,244.396z"/>
	<path fill="#FFFFFF" d="M57.014,256.928c0-2.489,0.682-4.531,2.047-6.125c1.364-1.594,3.172-2.391,5.422-2.391
		c2.26,0,4.073,0.797,5.438,2.391c1.364,1.594,2.047,3.636,2.047,6.125v0.516c0,2.5-0.68,4.544-2.039,6.133
		c-1.359,1.59-3.164,2.383-5.414,2.383c-2.271,0-4.089-0.793-5.453-2.383c-1.365-1.589-2.047-3.633-2.047-6.133L57.014,256.928
		L57.014,256.928z M58.889,257.443c0,1.958,0.495,3.604,1.484,4.938c0.989,1.332,2.37,2,4.141,2c1.739,0,3.106-0.668,4.102-2
		c0.995-1.334,1.492-2.979,1.492-4.938v-0.517c0-1.926-0.5-3.561-1.5-4.905s-2.375-2.017-4.125-2.017s-3.12,0.672-4.109,2.017
		c-0.99,1.345-1.484,2.979-1.484,4.905L58.889,257.443L58.889,257.443z"/>
	<path fill="#FFFFFF" d="M89.498,257.646c0,2.53-0.573,4.55-1.719,6.056c-1.146,1.504-2.724,2.258-4.734,2.258
		c-1.229,0-2.294-0.248-3.195-0.742c-0.901-0.495-1.633-1.2-2.195-2.117l-0.312,2.531h-1.469v-24.375h1.875v10.062
		c0.562-0.927,1.281-1.644,2.156-2.147s1.911-0.758,3.109-0.758c2.031,0,3.62,0.81,4.766,2.43c1.146,1.619,1.719,3.777,1.719,6.477
		L89.498,257.646L89.498,257.646z M87.607,257.318c0-2.155-0.417-3.909-1.25-5.258s-2.068-2.022-3.703-2.022
		c-1.292,0-2.333,0.314-3.125,0.944s-1.386,1.444-1.781,2.444v7.734c0.417,0.979,1.034,1.754,1.852,2.32
		c0.817,0.566,1.846,0.852,3.086,0.852c1.635,0,2.864-0.604,3.688-1.812c0.823-1.208,1.234-2.833,1.234-4.875L87.607,257.318
		L87.607,257.318z"/>
	<path fill="#FFFFFF" d="M100.107,265.959c-2.188,0-3.964-0.773-5.328-2.32c-1.365-1.547-2.047-3.534-2.047-5.961v-0.859
		c0-2.438,0.69-4.447,2.07-6.031c1.38-1.582,3.091-2.375,5.133-2.375c2.052,0,3.638,0.659,4.758,1.978
		c1.12,1.317,1.68,3.091,1.68,5.319v1.453H94.607v0.517c0,1.927,0.487,3.526,1.461,4.797c0.974,1.271,2.32,1.905,4.039,1.905
		c1.031,0,1.979-0.168,2.844-0.508c0.864-0.338,1.583-0.793,2.156-1.367l0.797,1.281c-0.594,0.625-1.373,1.145-2.336,1.555
		C102.604,265.752,101.451,265.959,100.107,265.959z M99.936,250.006c-1.438,0-2.62,0.516-3.547,1.547
		c-0.927,1.031-1.469,2.339-1.625,3.922l0.047,0.094h9.688v-0.391c0-1.5-0.394-2.737-1.18-3.711
		C102.532,250.493,101.404,250.006,99.936,250.006z"/>
	<path fill="#FFFFFF" d="M117.873,250.334l-1.328-0.094c-1.177,0-2.144,0.33-2.898,0.991c-0.755,0.661-1.294,1.569-1.617,2.728
		v11.672h-1.875v-16.906h1.641l0.234,2.812v0.188c0.489-1.042,1.146-1.854,1.969-2.438c0.823-0.584,1.802-0.875,2.938-0.875
		c0.229,0,0.448,0.019,0.656,0.055c0.208,0.035,0.38,0.074,0.516,0.117L117.873,250.334z"/>
	<path fill="#FFFFFF" d="M136.686,265.631h-1.875v-21.141l-5.391,0.655v-1.5l7.266-1.095V265.631z"/>
	<path fill="#FFFFFF" d="M160.061,257.6c0,2.594-0.628,4.636-1.883,6.125c-1.255,1.488-2.977,2.234-5.164,2.234
		s-3.917-0.748-5.188-2.242c-1.271-1.495-1.906-3.534-1.906-6.117v-6.688c0-2.574,0.63-4.609,1.891-6.109
		c1.26-1.5,2.984-2.25,5.172-2.25s3.914,0.75,5.18,2.25s1.898,3.535,1.898,6.109V257.6L160.061,257.6z M158.186,250.616
		c0-1.99-0.451-3.566-1.352-4.728s-2.185-1.742-3.852-1.742s-2.951,0.583-3.852,1.75s-1.352,2.739-1.352,4.72v7.266
		c0,1.969,0.456,3.543,1.367,4.727s2.2,1.773,3.867,1.773c1.656,0,2.932-0.59,3.828-1.766c0.896-1.178,1.344-2.756,1.344-4.734
		v-7.266H158.186z"/>
	<path fill="#FFFFFF" d="M173.107,256.725h-9.219v-1.578h9.219V256.725z"/>
	<path fill="#FFFFFF" d="M185.592,265.631h-1.875v-21.141l-5.391,0.655v-1.5l7.266-1.095V265.631z"/>
	<path fill="#FFFFFF" d="M209.263,265.631H195.42v-1.438l7.484-8.733c1.334-1.573,2.256-2.862,2.766-3.867
		c0.51-1.006,0.766-1.997,0.766-2.977c0-1.387-0.373-2.478-1.117-3.273c-0.744-0.797-1.846-1.195-3.305-1.195
		c-1.625,0-2.875,0.48-3.75,1.445c-0.875,0.964-1.312,2.195-1.312,3.695h-1.75l-0.031-0.095c-0.052-1.854,0.547-3.425,1.797-4.711
		s2.931-1.93,5.046-1.93c1.947,0,3.484,0.547,4.609,1.641c1.125,1.095,1.688,2.573,1.688,4.438c0,1.229-0.369,2.457-1.109,3.688
		c-0.74,1.23-1.828,2.719-3.266,4.469l-6.156,7.188l0.031,0.078h11.453L209.263,265.631L209.263,265.631z"/>
	<path fill="#FFFFFF" d="M236.123,265.631H220.31v-3.438l7-7.688c0.938-1.062,1.625-2.01,2.062-2.844
		c0.437-0.832,0.656-1.558,0.656-2.172c0-0.886-0.198-1.586-0.594-2.102s-1.031-0.773-1.906-0.773c-0.823,0-1.461,0.336-1.914,1.008
		c-0.453,0.672-0.68,1.528-0.68,2.57h-5.172l-0.031-0.094c-0.053-2.104,0.641-3.889,2.078-5.352
		c1.437-1.465,3.344-2.195,5.719-2.195c2.489,0,4.411,0.611,5.766,1.836c1.354,1.224,2.031,2.908,2.031,5.055
		c0,1.438-0.375,2.711-1.125,3.82s-2.125,2.746-4.125,4.914l-2.766,3.312l0.031,0.077h8.781v4.065H236.123z"/>
	<path fill="#FFFFFF" d="M254.45,257.271c0,2.72-0.726,4.847-2.173,6.383c-1.446,1.536-3.358,2.306-5.733,2.306
		c-2.396,0-4.317-0.77-5.765-2.306c-1.448-1.536-2.172-3.663-2.172-6.383v-6.03c0-2.72,0.719-4.848,2.156-6.384
		c1.437-1.536,3.353-2.306,5.75-2.306c2.375,0,4.291,0.771,5.75,2.312s2.188,3.668,2.188,6.375L254.45,257.271L254.45,257.271z
		 M249.186,250.881c0-1.387-0.236-2.442-0.711-3.172c-0.476-0.73-1.127-1.094-1.961-1.094c-0.845,0-1.494,0.363-1.953,1.094
		c-0.459,0.729-0.688,1.785-0.688,3.172v6.719c0,1.417,0.231,2.486,0.694,3.211s1.123,1.086,1.978,1.086
		c0.834,0,1.481-0.361,1.945-1.086c0.463-0.725,0.694-1.794,0.694-3.211v-6.719H249.186z"/>
	<path fill="#FFFFFF" d="M268.902,265.631h-5.28v-18.234h-4.578v-4.031l9.858-0.812V265.631z"/>
	<path fill="#FFFFFF" d="M282.889,261.896c0.959,0,1.743-0.378,2.358-1.133c0.614-0.755,0.922-1.8,0.922-3.134v-1.312
		c-0.51,0.625-1.104,1.097-1.78,1.414c-0.678,0.317-1.4,0.478-2.173,0.478c-2.062,0-3.687-0.695-4.866-2.086
		c-1.182-1.392-1.773-3.258-1.773-5.603c0-2.25,0.74-4.142,2.219-5.672c1.479-1.531,3.391-2.298,5.734-2.298
		c2.303,0,4.195,0.801,5.68,2.398s2.227,3.801,2.227,6.602v5.72c0,2.625-0.811,4.729-2.43,6.312
		c-1.619,1.584-3.658,2.375-6.117,2.375c-0.771,0-1.576-0.086-2.414-0.258s-1.639-0.414-2.397-0.727l0.905-3.766
		c0.666,0.238,1.297,0.414,1.892,0.522C281.468,261.838,282.139,261.896,282.889,261.896z M283.372,254.413
		c0.604,0,1.144-0.115,1.617-0.345s0.866-0.542,1.18-0.938v-2.547c0-1.291-0.248-2.275-0.742-2.953
		c-0.493-0.676-1.133-1.016-1.913-1.016c-0.822,0-1.476,0.391-1.953,1.172c-0.479,0.781-0.72,1.692-0.72,2.734
		c0,1.167,0.218,2.105,0.648,2.82C281.92,254.054,282.55,254.413,283.372,254.413z"/>
	<path fill="#FFFFFF" d="M305.264,269.85h-1.875v-26.969h1.875V269.85z"/>
	<path fill="#FFFFFF" d="M318.764,265.631v-22.75h6.938c2.781,0,5.08,0.927,6.898,2.781c1.817,1.854,2.727,4.233,2.727,7.141v2.922
		c0,2.906-0.908,5.283-2.727,7.133c-1.82,1.85-4.117,2.773-6.898,2.773H318.764L318.764,265.631z M320.639,244.475v19.578h5.062
		c2.25,0,4.104-0.786,5.562-2.359c1.459-1.572,2.188-3.562,2.188-5.969v-2.969c0-2.375-0.732-4.35-2.195-5.922
		c-1.463-1.573-3.313-2.359-5.555-2.359H320.639L320.639,244.475z"/>
	<path fill="#FFFFFF" d="M346.277,265.959c-2.188,0-3.963-0.773-5.327-2.32c-1.365-1.547-2.048-3.534-2.048-5.961v-0.859
		c0-2.438,0.689-4.447,2.07-6.031c1.381-1.582,3.092-2.375,5.133-2.375c2.054,0,3.64,0.659,4.759,1.978
		c1.118,1.317,1.68,3.091,1.68,5.319v1.453h-11.767v0.517c0,1.927,0.486,3.526,1.462,4.797c0.975,1.271,2.319,1.905,4.038,1.905
		c1.031,0,1.979-0.168,2.845-0.508c0.864-0.338,1.584-0.793,2.155-1.367l0.798,1.281c-0.595,0.625-1.373,1.145-2.336,1.555
		C348.775,265.754,347.622,265.959,346.277,265.959z M346.105,250.006c-1.438,0-2.619,0.516-3.547,1.547s-1.469,2.339-1.625,3.922
		l0.047,0.094h9.688v-0.391c0-1.5-0.394-2.737-1.181-3.711C348.702,250.493,347.575,250.006,346.105,250.006z"/>
	<path fill="#FFFFFF" d="M357.98,248.725l0.172,2.938c0.554-1.031,1.287-1.83,2.203-2.397s2.006-0.853,3.267-0.853
		c1.834,0,3.229,0.561,4.188,1.68c0.959,1.121,1.438,2.867,1.438,5.242v10.297h-1.875V255.35c0-1.938-0.361-3.309-1.086-4.109
		s-1.752-1.203-3.086-1.203s-2.408,0.328-3.227,0.984c-0.82,0.656-1.408,1.536-1.773,2.641v11.969h-1.875v-16.905L357.98,248.725
		L357.98,248.725z"/>
	<path fill="#FFFFFF" d="M378.95,261.396l0.547,1.983h0.094l0.595-1.983l4.594-12.672h1.938l-6.422,16.905h-1.5l-6.438-16.905h1.938
		L378.95,261.396z"/>
	<path fill="#FFFFFF" d="M396.013,265.959c-2.188,0-3.963-0.773-5.327-2.32c-1.365-1.547-2.047-3.534-2.047-5.961v-0.859
		c0-2.438,0.688-4.447,2.069-6.031c1.381-1.582,3.092-2.375,5.133-2.375c2.053,0,3.64,0.659,4.758,1.978
		c1.119,1.317,1.681,3.091,1.681,5.319v1.453h-11.766v0.517c0,1.927,0.485,3.526,1.461,4.797c0.975,1.271,2.319,1.905,4.038,1.905
		c1.031,0,1.979-0.168,2.845-0.508c0.864-0.338,1.584-0.793,2.155-1.367l0.797,1.281c-0.594,0.625-1.372,1.145-2.336,1.555
		C398.511,265.754,397.356,265.959,396.013,265.959z M395.841,250.006c-1.438,0-2.618,0.516-3.547,1.547
		c-0.928,1.031-1.469,2.339-1.625,3.922l0.047,0.094h9.688v-0.391c0-1.5-0.394-2.737-1.181-3.711
		C398.438,250.493,397.31,250.006,395.841,250.006z"/>
	<path fill="#FFFFFF" d="M413.778,250.334l-1.328-0.094c-1.178,0-2.144,0.33-2.898,0.991s-1.295,1.569-1.617,2.728v11.672h-1.875
		v-16.906h1.642l0.233,2.812v0.188c0.49-1.042,1.146-1.854,1.97-2.438c0.822-0.584,1.803-0.875,2.938-0.875
		c0.229,0,0.447,0.019,0.656,0.055c0.209,0.035,0.381,0.074,0.516,0.117L413.778,250.334z"/>
	<path fill="#FFFFFF" d="M440.872,258.521l0.031,0.095c0.041,2.229-0.688,4.01-2.188,5.344c-1.5,1.332-3.469,2-5.906,2
		c-2.53,0-4.571-0.914-6.125-2.742c-1.553-1.828-2.327-4.195-2.327-7.102v-3.703c0-2.896,0.774-5.264,2.327-7.103
		c1.554-1.839,3.595-2.759,6.125-2.759c2.47,0,4.445,0.652,5.931,1.953c1.484,1.303,2.205,3.095,2.164,5.375l-0.031,0.095h-1.75
		c0-1.833-0.562-3.263-1.68-4.289c-1.119-1.026-2.664-1.539-4.634-1.539c-1.989,0-3.586,0.771-4.789,2.312
		c-1.202,1.541-1.805,3.517-1.805,5.922v3.734c0,2.438,0.603,4.426,1.805,5.961c1.203,1.536,2.8,2.305,4.789,2.305
		c1.97,0,3.515-0.5,4.634-1.5c1.118-1,1.68-2.453,1.68-4.358H440.872L440.872,258.521z"/>
	<path fill="#FFFFFF" d="M462.403,256.116c0,2.938-0.806,5.311-2.414,7.125c-1.609,1.812-3.769,2.719-6.478,2.719
		c-2.666,0-4.795-0.906-6.383-2.719c-1.588-1.814-2.383-4.189-2.383-7.125v-3.703c0-2.928,0.791-5.303,2.375-7.125
		c1.584-1.824,3.709-2.734,6.375-2.734c2.709,0,4.869,0.91,6.484,2.734c1.614,1.822,2.422,4.197,2.422,7.125L462.403,256.116
		L462.403,256.116z M460.544,252.381c0-2.459-0.623-4.438-1.867-5.938s-2.971-2.25-5.18-2.25c-2.166,0-3.854,0.75-5.062,2.25
		s-1.812,3.479-1.812,5.938v3.734c0,2.479,0.607,4.469,1.82,5.969s2.903,2.25,5.069,2.25c2.22,0,3.945-0.748,5.181-2.242
		c1.234-1.495,1.852-3.487,1.852-5.977L460.544,252.381L460.544,252.381z"/>
</g>
<g>
	<polygon fill="none" stroke="#FFFFFF" stroke-width="3.9" stroke-miterlimit="10" points="314.419,90.166 392.409,45.14 
		470.399,90.166 470.399,180.222 392.409,225.25 314.419,180.222 	"/>
	<polygon fill="none" stroke="#FFFFFF" stroke-width="3.9" stroke-miterlimit="10" points="1.237,90.166 79.229,45.14 
		157.216,90.166 157.216,180.222 79.229,225.25 1.237,180.222 	"/>
	<path fill="none" stroke="#FFFFFF" stroke-width="3" stroke-miterlimit="10" d="M22.077,145.051l4.775,4.937l19.892,0.095
		c1.345-2.021,3.644-3.347,6.254-3.347c2.691,0,5.057,1.418,6.385,3.546l20.094,0.159c1.426-4.594,5.092-8.198,9.719-9.545
		l0.016-19.787c-1.024-1.027-1.664-2.449-1.664-4.021c0-3.137,2.543-5.68,5.678-5.68l0.413,0.02l16.956-17.375
		c-0.021-0.209-0.03-0.422-0.03-0.637c0-3.449,2.795-6.242,6.243-6.242c3.448,0,6.242,2.793,6.242,6.242
		c0,3.445-2.794,6.242-6.242,6.242c-0.062,0,0,0,0,0l-17.909,17.078c0.008,0.115,0.01,0.234,0.01,0.352
		c0,1.527-0.604,2.914-1.582,3.938l-0.069,19.869c5.989,1.738,10.367,7.271,10.367,13.826c0,2.457-0.614,4.771-1.701,6.796
		l0.229,0.258l9.254,9.646c2.729,0.246,4.867,2.541,4.867,5.336c0,2.957-2.398,5.355-5.355,5.355c-2.874,0-5.213-2.262-5.352-5.098
		l-9.686-9.525c-1.989,1.039-4.253,1.627-6.655,1.627c-6.684,0-12.306-4.562-13.925-10.734l-20.063,0.08
		c-1.352,2-3.64,3.312-6.235,3.312c-2.61,0-4.905-1.321-6.254-3.339l-27.896,0.086"/>
	<polygon fill="none" stroke="#FFFFFF" stroke-width="3.9" stroke-miterlimit="10" points="157.83,90.166 235.819,45.14 
		313.812,90.166 313.812,180.222 235.816,225.25 157.828,180.222 	"/>
	<rect x="325.573" y="145.22" fill="#FFFFFF" width="2.641" height="12.665"/>
	<rect x="372.552" y="146.22" fill="#FFFFFF" width="2.154" height="11.665"/>
	<rect x="369.159" y="140.6" fill="#FFFFFF" width="2.641" height="17.285"/>
	<rect x="366.011" y="135.801" fill="#FFFFFF" width="2.642" height="22.084"/>
	<rect x="362.859" y="138.936" fill="#FFFFFF" width="2.642" height="18.949"/>
	<rect x="359.71" y="134.555" fill="#FFFFFF" width="2.642" height="23.33"/>
	<rect x="356.562" y="137.279" fill="#FFFFFF" width="2.643" height="20.606"/>
	<rect x="353.411" y="141.398" fill="#FFFFFF" width="2.641" height="16.487"/>
	<rect x="350.264" y="135.426" fill="#FFFFFF" width="2.641" height="22.459"/>
	<rect x="347.109" y="138.936" fill="#FFFFFF" width="2.644" height="18.949"/>
	<rect x="343.962" y="145.22" fill="#FFFFFF" width="2.642" height="12.665"/>
	<rect x="340.814" y="140.775" fill="#FFFFFF" width="2.642" height="17.11"/>
	<rect x="337.663" y="138.342" fill="#FFFFFF" width="2.642" height="19.543"/>
	<rect x="334.514" y="142.693" fill="#FFFFFF" width="2.643" height="15.192"/>
	<rect x="331.361" y="142.051" fill="#FFFFFF" width="2.644" height="15.834"/>
	<rect x="328.214" y="138.936" fill="#FFFFFF" width="2.644" height="18.949"/>
	<rect x="422.462" y="145.22" fill="#FFFFFF" width="2.641" height="12.665"/>
	<rect x="394.021" y="137.279" fill="#FFFFFF" width="2.152" height="19.983"/>
	<rect x="390.876" y="139.977" fill="#FFFFFF" width="2.642" height="17.286"/>
	<rect x="387.977" y="135.178" fill="#FFFFFF" width="2.643" height="22.085"/>
	<rect x="385.073" y="141.398" fill="#FFFFFF" width="2.643" height="15.864"/>
	<rect x="457.108" y="146.22" fill="#FFFFFF" width="2.643" height="11.665"/>
	<rect x="453.958" y="137.279" fill="#FFFFFF" width="2.641" height="20.606"/>
	<rect x="450.808" y="140.6" fill="#FFFFFF" width="2.646" height="17.285"/>
	<rect x="447.657" y="142.693" fill="#FFFFFF" width="2.641" height="15.192"/>
	<rect x="444.509" y="138.936" fill="#FFFFFF" width="2.646" height="18.949"/>
	<rect x="441.358" y="145.22" fill="#FFFFFF" width="2.643" height="12.665"/>
	<rect x="438.21" y="140.775" fill="#FFFFFF" width="2.639" height="17.11"/>
	<rect x="435.06" y="142.693" fill="#FFFFFF" width="2.646" height="15.192"/>
	<rect x="431.907" y="138.342" fill="#FFFFFF" width="2.643" height="19.543"/>
	<rect x="428.763" y="135.426" fill="#FFFFFF" width="2.644" height="22.459"/>
	<rect x="425.61" y="138.936" fill="#FFFFFF" width="2.643" height="18.949"/>
	<rect x="396.921" y="145.597" fill="#FFFFFF" width="2.152" height="11.666"/>
	<rect x="325.066" y="157.099" fill="#FFFFFF" stroke="#FFFFFF" stroke-miterlimit="10" width="134.685" height="1.573"/>
	<g>
		<rect x="343.716" y="111.326" fill="#FFFFFF" stroke="#FFFFFF" stroke-miterlimit="10" width="30.99" height="7.146"/>
		<rect x="385.073" y="111.326" fill="#FFFFFF" stroke="#FFFFFF" stroke-miterlimit="10" width="14.776" height="7.146"/>
		<rect x="422.462" y="111.326" fill="#FFFFFF" stroke="#FFFFFF" stroke-miterlimit="10" width="28.441" height="7.146"/>
		<rect x="374.706" y="114.113" fill="#FFFFFF" stroke="#FFFFFF" stroke-miterlimit="10" width="10.367" height="1.572"/>
		<rect x="399.854" y="114.112" fill="#FFFFFF" stroke="#FFFFFF" stroke-miterlimit="10" width="22.607" height="1.573"/>
		<rect x="325.066" y="113.58" fill="#FFFFFF" stroke="#FFFFFF" stroke-miterlimit="10" width="18.39" height="2.642"/>
		<rect x="450.903" y="113.579" fill="#FFFFFF" stroke="#FFFFFF" stroke-miterlimit="10" width="8.84" height="2.643"/>
	</g>
	<g>
		<path fill="none" stroke="#FFFFFF" stroke-width="3" stroke-miterlimit="10" d="M214.904,150.157"/>
		<polyline fill="none" stroke="#FFFFFF" stroke-width="3" stroke-miterlimit="10" points="214.904,150.157 259.636,89.733 
			304.368,150.157 		"/>
		<polyline fill="none" stroke="#FFFFFF" stroke-width="3" stroke-miterlimit="10" points="166.935,161.586 206.094,117.078 
			223.495,136.855 		"/>
		<polyline fill="none" stroke="#FFFFFF" stroke-width="3" stroke-miterlimit="10" points="223.215,176.928 262.374,132.419 
			279.773,152.196 		"/>
		<polyline fill="none" stroke="#FFFFFF" stroke-width="3" stroke-linecap="square" stroke-miterlimit="10" points="
			259.409,110.659 251.354,120.396 246.95,108.55 		"/>
		<path fill="none" stroke="#FFFFFF" stroke-width="3" stroke-miterlimit="10" d="M253.688,132.291"/>
		<path fill="none" stroke="#FFFFFF" stroke-width="3" stroke-miterlimit="10" d="M218.244,126.291"/>
		<polyline fill="none" stroke="#FFFFFF" stroke-width="3" stroke-linecap="square" stroke-miterlimit="10" points="
			271.671,107.003 268.936,119.342 259.618,110.804 		"/>
		<polyline fill="none" stroke="#FFFFFF" stroke-width="3" stroke-linecap="square" stroke-miterlimit="10" points="
			205.219,134.298 197.316,143.847 192.999,132.229 		"/>
		<polyline fill="none" stroke="#FFFFFF" stroke-width="3" stroke-linecap="square" stroke-miterlimit="10" points="
			217.244,130.712 214.561,142.813 205.423,134.439 		"/>
	</g>
</g>
<g>
	<g>
		<path fill="#FFFFFF" d="M251.059,224.735l1.987-1.168l0.08,0.137l-2.127,1.25l-2.161-3.678l0.139-0.082L251.059,224.735z"/>
		<path fill="#FFFFFF" d="M252.732,222.024c-0.234-0.4-0.316-0.793-0.244-1.178s0.285-0.682,0.639-0.889
			c0.355-0.209,0.719-0.252,1.09-0.127c0.369,0.125,0.674,0.387,0.908,0.787l0.062,0.105c0.236,0.402,0.317,0.796,0.248,1.181
			c-0.074,0.386-0.285,0.681-0.638,0.888c-0.354,0.209-0.719,0.252-1.09,0.127c-0.372-0.123-0.676-0.387-0.913-0.789
			L252.732,222.024z M252.932,222.049c0.203,0.345,0.471,0.58,0.801,0.703c0.334,0.127,0.662,0.095,0.986-0.098
			c0.32-0.188,0.506-0.457,0.557-0.811c0.053-0.352-0.022-0.697-0.225-1.039l-0.062-0.107c-0.195-0.334-0.461-0.566-0.797-0.693
			s-0.664-0.098-0.983,0.091c-0.322,0.188-0.508,0.461-0.558,0.813c-0.051,0.355,0.022,0.699,0.22,1.035L252.932,222.049z"/>
		<path fill="#FFFFFF" d="M255.684,220.358c-0.254-0.434-0.365-0.829-0.334-1.191c0.032-0.36,0.209-0.639,0.533-0.828
			c0.213-0.125,0.424-0.186,0.637-0.18c0.211,0.004,0.414,0.062,0.604,0.174l-0.267-0.498l0.115-0.068l0.494,0.841
			c0.002,0.004,0.004,0.007,0.006,0.009c0,0.002,0.002,0.002,0.004,0.002l0.654,1.112c0,0.004,0,0.009,0.002,0.009
			c0,0.002,0.002,0.004,0.002,0.006l0.453,0.771c0.204,0.347,0.27,0.669,0.199,0.966c-0.072,0.297-0.27,0.54-0.592,0.73
			c-0.133,0.078-0.281,0.146-0.439,0.201c-0.162,0.058-0.31,0.094-0.445,0.106l-0.041-0.16c0.154-0.019,0.297-0.049,0.429-0.088
			c0.129-0.043,0.268-0.104,0.413-0.19c0.295-0.174,0.47-0.388,0.527-0.642c0.053-0.254-0.009-0.535-0.188-0.844l-0.254-0.433
			c-0.009,0.199-0.065,0.389-0.173,0.564c-0.108,0.177-0.269,0.326-0.479,0.451c-0.322,0.188-0.646,0.213-0.972,0.074
			c-0.325-0.141-0.611-0.42-0.858-0.842L255.684,220.358z M255.854,220.331c0.222,0.377,0.474,0.633,0.754,0.767
			c0.279,0.135,0.564,0.116,0.854-0.054c0.233-0.139,0.397-0.305,0.493-0.502c0.096-0.196,0.126-0.406,0.094-0.625l-0.768-1.31
			c-0.18-0.149-0.381-0.247-0.602-0.292c-0.224-0.044-0.463,0.01-0.721,0.161c-0.29,0.17-0.439,0.419-0.452,0.743
			c-0.014,0.326,0.093,0.679,0.313,1.058L255.854,220.331z"/>
		<path fill="#FFFFFF" d="M258.396,218.696c-0.236-0.4-0.318-0.793-0.244-1.178c0.07-0.385,0.283-0.682,0.637-0.889
			c0.355-0.209,0.719-0.252,1.09-0.127c0.37,0.125,0.674,0.387,0.909,0.787l0.062,0.105c0.237,0.402,0.318,0.796,0.248,1.182
			c-0.072,0.385-0.285,0.68-0.637,0.887c-0.355,0.209-0.72,0.252-1.091,0.127c-0.371-0.123-0.677-0.387-0.912-0.789L258.396,218.696
			z M258.596,218.722c0.201,0.344,0.469,0.579,0.801,0.702c0.332,0.127,0.66,0.095,0.985-0.098c0.319-0.188,0.505-0.457,0.558-0.811
			c0.052-0.352-0.022-0.697-0.225-1.039l-0.062-0.107c-0.196-0.334-0.463-0.565-0.799-0.693c-0.336-0.127-0.664-0.098-0.983,0.091
			c-0.32,0.188-0.507,0.461-0.558,0.813c-0.049,0.355,0.023,0.699,0.222,1.035L258.596,218.722z"/>
		<path fill="#FFFFFF" d="M264.83,215.054c0.247,0.422,0.352,0.809,0.314,1.161c-0.039,0.352-0.217,0.623-0.535,0.812
			c-0.215,0.125-0.426,0.19-0.637,0.199c-0.209,0.008-0.4-0.034-0.576-0.127l0.23,0.433l-0.113,0.066l-0.438-0.745
			c-0.005-0.004-0.009-0.008-0.011-0.011c-0.004-0.002-0.006-0.006-0.008-0.01l-0.654-1.112c-0.002-0.003-0.002-0.005-0.004-0.005
			c0,0,0-0.008-0.004-0.02l-1.197-2.039l0.137-0.08l0.991,1.688c-0.007-0.22,0.041-0.42,0.141-0.604
			c0.101-0.186,0.257-0.342,0.472-0.468c0.319-0.188,0.647-0.209,0.979-0.062c0.332,0.148,0.626,0.438,0.881,0.871L264.83,215.054z
			 M264.657,215.084c-0.224-0.379-0.479-0.643-0.771-0.789c-0.289-0.147-0.58-0.137-0.867,0.031
			c-0.261,0.152-0.424,0.338-0.494,0.553c-0.068,0.216-0.08,0.438-0.033,0.666l0.768,1.309c0.174,0.137,0.369,0.212,0.588,0.225
			c0.219,0.014,0.446-0.05,0.685-0.189c0.288-0.168,0.44-0.408,0.461-0.719c0.021-0.312-0.082-0.654-0.304-1.031L264.657,215.084z"
			/>
		<path fill="#FFFFFF" d="M266.75,215.03l0.261,0.215l0.015-0.01l-0.008-0.05l-0.508-3.024l0.152-0.09l0.658,3.901
			c0.039,0.235,0.043,0.442,0.017,0.62c-0.028,0.18-0.149,0.332-0.364,0.459c-0.033,0.018-0.07,0.035-0.113,0.053
			c-0.041,0.018-0.073,0.027-0.096,0.031l-0.053-0.143c0.021-0.007,0.053-0.017,0.092-0.033c0.04-0.018,0.07-0.031,0.09-0.043
			c0.155-0.092,0.25-0.207,0.282-0.351c0.034-0.142,0.032-0.321-0.006-0.539l-0.097-0.541l-2.687-2.077l0.148-0.089L266.75,215.03z"
			/>
		<path fill="#FFFFFF" d="M271.689,212.5l0.015-0.008l-0.498-4.363l0.153-0.09l2.162,3.676l-0.138,0.08l-1.963-3.34l-0.019,0.006
			l0.477,4.22l-0.107,0.063l-3.531-2.521l-0.014,0.011l2.006,3.415l-0.137,0.08l-2.16-3.679l0.188-0.11L271.689,212.5z"/>
		<path fill="#FFFFFF" d="M275.879,209.651c0.003,0.221-0.059,0.438-0.186,0.65c-0.125,0.215-0.321,0.398-0.588,0.555
			c-0.254,0.148-0.494,0.197-0.722,0.145c-0.227-0.055-0.409-0.199-0.547-0.436c-0.135-0.229-0.142-0.484-0.015-0.768
			c0.125-0.28,0.351-0.519,0.676-0.709l0.779-0.459l-0.233-0.398c-0.134-0.227-0.312-0.361-0.531-0.404
			c-0.221-0.039-0.463,0.018-0.727,0.172c-0.248,0.146-0.412,0.322-0.492,0.531c-0.08,0.207-0.065,0.406,0.045,0.594l-0.116,0.062
			l-0.013-0.01c-0.135-0.207-0.157-0.434-0.069-0.686c0.09-0.25,0.277-0.46,0.565-0.63c0.293-0.172,0.571-0.235,0.835-0.19
			c0.266,0.045,0.479,0.207,0.643,0.485l0.805,1.369c0.057,0.097,0.117,0.187,0.182,0.271s0.137,0.164,0.213,0.238l-0.15,0.09
			c-0.094-0.107-0.16-0.188-0.203-0.244c-0.041-0.055-0.084-0.117-0.125-0.187L275.879,209.651z M275.027,210.723
			c0.271-0.159,0.465-0.354,0.582-0.583s0.154-0.481,0.111-0.757l-0.359-0.612l-0.773,0.453c-0.283,0.167-0.482,0.373-0.602,0.616
			c-0.116,0.246-0.119,0.464-0.006,0.654c0.106,0.185,0.258,0.299,0.449,0.344C274.623,210.881,274.822,210.844,275.027,210.723z"/>
		<path fill="#FFFFFF" d="M275.701,206.758l0.342,0.541c-0.027-0.24,0.007-0.459,0.104-0.657c0.097-0.197,0.261-0.365,0.49-0.5
			c0.299-0.177,0.577-0.213,0.836-0.113c0.26,0.101,0.51,0.354,0.748,0.763l0.945,1.607l-0.137,0.081l-0.947-1.614
			c-0.223-0.379-0.448-0.605-0.675-0.681c-0.228-0.076-0.456-0.045-0.688,0.092c-0.285,0.168-0.455,0.38-0.51,0.636
			c-0.053,0.256-0.023,0.527,0.088,0.814l1.031,1.753l-0.137,0.08l-0.822-1.397l-0.008,0.004c-0.021-0.033-0.037-0.064-0.057-0.099
			c-0.019-0.032-0.035-0.067-0.052-0.104l-0.668-1.137L275.701,206.758z"/>
		<path fill="#FFFFFF" d="M279.092,206.601c-0.254-0.433-0.365-0.83-0.334-1.192c0.033-0.359,0.21-0.638,0.533-0.826
			c0.213-0.125,0.424-0.187,0.637-0.183c0.211,0.004,0.412,0.062,0.602,0.171l-0.993-1.689l0.137-0.08l1.204,2.049
			c0.002,0.004,0.003,0.006,0.005,0.008c0,0.002,0.002,0.002,0.004,0.001l0.654,1.114c0,0.004,0.001,0.007,0.002,0.008
			c0.001,0.002,0.002,0.004,0.003,0.006l0.443,0.756l-0.131,0.076l-0.254-0.418c-0.004,0.199-0.061,0.389-0.17,0.566
			c-0.107,0.178-0.268,0.33-0.479,0.453c-0.322,0.189-0.646,0.215-0.972,0.076c-0.325-0.142-0.61-0.42-0.858-0.843L279.092,206.601z
			 M279.266,206.571c0.221,0.377,0.471,0.633,0.752,0.768c0.278,0.136,0.563,0.117,0.854-0.053c0.236-0.141,0.402-0.309,0.496-0.51
			c0.094-0.197,0.123-0.406,0.09-0.627l-0.76-1.293c-0.182-0.154-0.385-0.254-0.607-0.299c-0.221-0.045-0.462,0.008-0.721,0.16
			c-0.29,0.171-0.441,0.42-0.452,0.744c-0.013,0.324,0.095,0.678,0.315,1.057L279.266,206.571z"/>
		<path fill="#FFFFFF" d="M283.285,205.312l0.262,0.214l0.016-0.009l-0.008-0.05l-0.508-3.025l0.151-0.089l0.657,3.901
			c0.039,0.234,0.045,0.441,0.018,0.619c-0.027,0.181-0.148,0.332-0.365,0.459c-0.031,0.019-0.068,0.035-0.111,0.053
			s-0.073,0.027-0.098,0.031l-0.053-0.143c0.021-0.006,0.053-0.016,0.093-0.033c0.04-0.017,0.069-0.031,0.091-0.043
			c0.154-0.091,0.248-0.207,0.281-0.35s0.031-0.322-0.006-0.539l-0.098-0.541l-2.687-2.078l0.149-0.088L283.285,205.312z"/>
		<path fill="#FFFFFF" d="M285.742,202.213l1.016,1.728l-0.137,0.08l-2.16-3.679l1.197-0.702c0.387-0.228,0.734-0.317,1.041-0.272
			s0.555,0.228,0.744,0.549c0.121,0.207,0.166,0.434,0.135,0.682c-0.034,0.246-0.148,0.463-0.35,0.646
			c0.291-0.109,0.537-0.123,0.738-0.043c0.202,0.08,0.37,0.236,0.506,0.467l0.204,0.348c0.066,0.113,0.142,0.208,0.224,0.283
			c0.08,0.074,0.17,0.121,0.268,0.141l0.037,0.064l-0.135,0.078c-0.101-0.033-0.195-0.092-0.286-0.178
			c-0.091-0.082-0.173-0.188-0.246-0.314l-0.198-0.336c-0.146-0.25-0.346-0.394-0.6-0.432c-0.252-0.041-0.537,0.032-0.854,0.219
			L285.742,202.213z M285.662,202.077l1.035-0.609c0.376-0.221,0.604-0.461,0.689-0.725c0.086-0.263,0.059-0.512-0.08-0.748
			c-0.16-0.273-0.375-0.432-0.64-0.473c-0.267-0.039-0.575,0.045-0.931,0.254l-1.062,0.623L285.662,202.077z"/>
		<path fill="#FFFFFF" d="M288.064,198.336l-0.135,0.08l-0.205-0.35l0.135-0.08L288.064,198.336z M290.176,201.928l-0.136,0.08
			l-1.606-2.733l0.137-0.08L290.176,201.928z"/>
		<path fill="#FFFFFF" d="M291.951,200.772c0.23-0.135,0.396-0.318,0.5-0.548s0.08-0.472-0.068-0.726l0.115-0.067l0.014,0.013
			c0.164,0.264,0.191,0.534,0.082,0.812c-0.109,0.277-0.297,0.496-0.562,0.652c-0.349,0.204-0.695,0.239-1.041,0.104
			c-0.347-0.136-0.64-0.406-0.88-0.815l-0.062-0.105c-0.239-0.407-0.334-0.795-0.284-1.161c0.051-0.366,0.248-0.651,0.596-0.856
			c0.283-0.166,0.57-0.223,0.863-0.172c0.295,0.051,0.526,0.229,0.696,0.533l0.004,0.018l-0.116,0.068
			c-0.156-0.268-0.363-0.422-0.619-0.463c-0.254-0.041-0.504,0.009-0.748,0.152c-0.32,0.188-0.495,0.445-0.525,0.771
			c-0.031,0.326,0.061,0.669,0.271,1.028l0.062,0.107c0.214,0.362,0.472,0.61,0.771,0.74
			C291.316,200.993,291.628,200.963,291.951,200.772z"/>
		<path fill="#FFFFFF" d="M292.562,197.614c-0.029-0.246,0.006-0.472,0.105-0.676c0.1-0.205,0.266-0.376,0.5-0.514
			c0.284-0.168,0.553-0.203,0.807-0.111c0.252,0.096,0.493,0.336,0.721,0.723l0.978,1.662l-0.139,0.081l-0.979-1.667
			c-0.211-0.357-0.426-0.572-0.645-0.643c-0.219-0.068-0.438-0.039-0.659,0.09c-0.289,0.17-0.463,0.387-0.521,0.65
			c-0.058,0.262-0.029,0.539,0.084,0.83l1.021,1.737l-0.137,0.08l-0.822-1.397l-0.006,0.002c-0.021-0.035-0.037-0.064-0.052-0.088
			c-0.014-0.023-0.025-0.049-0.036-0.074l-1.4-2.381l0.138-0.08L292.562,197.614z"/>
		<path fill="#FFFFFF" d="M297.518,197.685c-0.322,0.188-0.668,0.226-1.033,0.104c-0.369-0.119-0.664-0.367-0.887-0.746
			l-0.096-0.162c-0.232-0.396-0.312-0.785-0.244-1.17c0.07-0.385,0.271-0.674,0.605-0.871c0.303-0.178,0.602-0.221,0.9-0.125
			c0.297,0.093,0.547,0.312,0.75,0.656l0.123,0.211l-2.019,1.187l0.021,0.032l0.094,0.162c0.197,0.332,0.455,0.559,0.776,0.675
			c0.322,0.114,0.632,0.086,0.929-0.089c0.162-0.098,0.301-0.219,0.416-0.368c0.114-0.147,0.19-0.302,0.226-0.458l0.136,0.062
			c-0.033,0.162-0.105,0.321-0.217,0.479C297.886,197.422,297.727,197.562,297.518,197.685z M295.943,194.978
			c-0.283,0.166-0.459,0.401-0.522,0.703c-0.067,0.304-0.022,0.61,0.129,0.924l0.017,0.013l1.854-1.091l-0.05-0.084
			c-0.164-0.28-0.377-0.467-0.639-0.562C296.473,194.79,296.209,194.821,295.943,194.978z"/>
		<path fill="#FFFFFF" d="M298.809,193.31l-0.186,0.089c-0.244,0.145-0.396,0.339-0.455,0.587c-0.061,0.246-0.037,0.513,0.068,0.796
			l1.053,1.791l-0.137,0.079l-1.605-2.731l0.111-0.064l0.304,0.459l0.056,0.094c-0.039-0.24-0.016-0.459,0.07-0.654
			c0.086-0.196,0.238-0.358,0.457-0.487c0.039-0.022,0.077-0.041,0.111-0.056c0.037-0.012,0.068-0.022,0.097-0.029L298.809,193.31z"
			/>
	</g>
</g>
</svg>
